G04 Layer: BottomSilkLayer*
G04 EasyEDA v6.3.12, 2019-11-29T11:20:33+08:00*
G04 20e9667cab1745c4bec6fbe7ec4c93c1,0d9194da949c4fdba41728a14849dae3,10*
G04 Gerber Generator version 0.2*
G04 Scale: 100 percent, Rotated: No, Reflected: No *
G04 Dimensions in millimeters *
G04 leading zeros omitted , absolute positions ,3 integer and 3 decimal *
%FSLAX33Y33*%
%MOMM*%
G90*
G71D02*

%ADD48C,0.203200*%

%LPD*%

%LPD*%
G36*
G01X10835Y3927D02*
G01X10724Y3927D01*
G01X10724Y3816D01*
G01X10835Y3816D01*
G01X10835Y3927D01*
G37*

%LPD*%
G36*
G01X9838Y4333D02*
G01X9728Y4333D01*
G01X9728Y3816D01*
G01X9897Y3816D01*
G01X10055Y4130D01*
G01X10059Y3816D01*
G01X10207Y3816D01*
G01X10207Y3941D01*
G01X10254Y3876D01*
G01X10302Y3811D01*
G01X10419Y3808D01*
G01X10537Y3805D01*
G01X10593Y3852D01*
G01X10650Y3899D01*
G01X10650Y4217D01*
G01X10534Y4333D01*
G01X10322Y4333D01*
G01X10265Y4251D01*
G01X10207Y4169D01*
G01X10207Y4333D01*
G01X10106Y4332D01*
G01X10004Y4331D01*
G01X9924Y4157D01*
G01X9845Y3982D01*
G01X9841Y4157D01*
G01X9838Y4333D01*
G37*

%LPC*%
G36*
G01X10494Y4222D02*
G01X10446Y4222D01*
G01X10424Y4219D01*
G01X10404Y4211D01*
G01X10386Y4200D01*
G01X10373Y4185D01*
G01X10359Y4171D01*
G01X10336Y4159D01*
G01X10308Y4151D01*
G01X10279Y4148D01*
G01X10207Y4148D01*
G01X10207Y4000D01*
G01X10347Y4000D01*
G01X10368Y3945D01*
G01X10395Y3903D01*
G01X10429Y3893D01*
G01X10466Y3913D01*
G01X10502Y3963D01*
G01X10541Y4036D01*
G01X10494Y4222D01*
G37*

%LPD*%
G36*
G01X18102Y5071D02*
G01X17951Y5071D01*
G01X17971Y5006D01*
G01X17976Y4989D01*
G01X17984Y4959D01*
G01X17994Y4918D01*
G01X18008Y4867D01*
G01X18024Y4807D01*
G01X18042Y4740D01*
G01X18061Y4666D01*
G01X18082Y4587D01*
G01X18104Y4504D01*
G01X18126Y4419D01*
G01X18148Y4332D01*
G01X18194Y4158D01*
G01X18215Y4074D01*
G01X18236Y3994D01*
G01X18255Y3918D01*
G01X18291Y3779D01*
G01X18618Y3779D01*
G01X18653Y3918D01*
G01X18661Y3951D01*
G01X18672Y3994D01*
G01X18684Y4044D01*
G01X18696Y4099D01*
G01X18711Y4158D01*
G01X18739Y4280D01*
G01X18753Y4340D01*
G01X18777Y4440D01*
G01X18798Y4515D01*
G01X18817Y4566D01*
G01X18834Y4593D01*
G01X18849Y4596D01*
G01X18864Y4577D01*
G01X18879Y4535D01*
G01X18894Y4472D01*
G01X18900Y4442D01*
G01X18909Y4402D01*
G01X18920Y4355D01*
G01X18933Y4303D01*
G01X18947Y4245D01*
G01X18963Y4186D01*
G01X18978Y4125D01*
G01X18995Y4065D01*
G01X19071Y3779D01*
G01X19414Y3780D01*
G01X19558Y4379D01*
G01X19577Y4461D01*
G01X19596Y4540D01*
G01X19614Y4616D01*
G01X19632Y4687D01*
G01X19648Y4754D01*
G01X19664Y4816D01*
G01X19677Y4871D01*
G01X19690Y4919D01*
G01X19700Y4960D01*
G01X19708Y4991D01*
G01X19714Y5013D01*
G01X19718Y5025D01*
G01X19735Y5071D01*
G01X19410Y5071D01*
G01X19317Y4619D01*
G01X19225Y4167D01*
G01X19161Y4425D01*
G01X19148Y4481D01*
G01X19132Y4540D01*
G01X19100Y4664D01*
G01X19084Y4725D01*
G01X19069Y4781D01*
G01X19055Y4833D01*
G01X19042Y4877D01*
G01X18988Y5071D01*
G01X18659Y5071D01*
G01X18638Y4987D01*
G01X18632Y4964D01*
G01X18623Y4926D01*
G01X18612Y4878D01*
G01X18598Y4821D01*
G01X18583Y4756D01*
G01X18566Y4686D01*
G01X18549Y4612D01*
G01X18531Y4536D01*
G01X18445Y4167D01*
G01X18423Y4259D01*
G01X18411Y4304D01*
G01X18397Y4366D01*
G01X18381Y4440D01*
G01X18362Y4523D01*
G01X18324Y4701D01*
G01X18305Y4788D01*
G01X18288Y4869D01*
G01X18273Y4939D01*
G01X18262Y4996D01*
G01X18254Y5035D01*
G01X18251Y5052D01*
G01X18240Y5059D01*
G01X18207Y5065D01*
G01X18159Y5069D01*
G01X18102Y5071D01*
G37*

%LPD*%
G36*
G01X12172Y5107D02*
G01X12052Y5107D01*
G01X12052Y4891D01*
G01X12135Y4880D01*
G01X12218Y4868D01*
G01X12230Y4788D01*
G01X12241Y4708D01*
G01X12071Y4683D01*
G01X12059Y4582D01*
G01X12047Y4480D01*
G01X12237Y4480D01*
G01X12237Y3779D01*
G01X12532Y3779D01*
G01X12532Y4480D01*
G01X12643Y4480D01*
G01X12643Y4701D01*
G01X12546Y4701D01*
G01X12512Y4858D01*
G01X12476Y5014D01*
G01X12385Y5061D01*
G01X12339Y5078D01*
G01X12284Y5093D01*
G01X12226Y5103D01*
G01X12172Y5107D01*
G37*

%LPD*%
G36*
G01X15816Y5071D02*
G01X15148Y5071D01*
G01X15040Y5015D01*
G01X14996Y4988D01*
G01X14957Y4960D01*
G01X14926Y4928D01*
G01X14900Y4892D01*
G01X14881Y4852D01*
G01X14867Y4808D01*
G01X14860Y4759D01*
G01X14856Y4706D01*
G01X14856Y4594D01*
G01X15034Y4462D01*
G01X14927Y4370D01*
G01X14819Y4277D01*
G01X14776Y4047D01*
G01X14998Y3798D01*
G01X15407Y3785D01*
G01X15816Y3773D01*
G01X15816Y5071D01*
G37*

%LPC*%
G36*
G01X15521Y4333D02*
G01X15389Y4333D01*
G01X15332Y4330D01*
G01X15276Y4321D01*
G01X15224Y4309D01*
G01X15186Y4295D01*
G01X15115Y4256D01*
G01X15115Y4173D01*
G01X15119Y4137D01*
G01X15128Y4100D01*
G01X15142Y4068D01*
G01X15159Y4045D01*
G01X15203Y4000D01*
G01X15521Y4000D01*
G01X15521Y4333D01*
G37*
G36*
G01X15521Y4554D02*
G01X15521Y4859D01*
G01X15368Y4834D01*
G01X15306Y4823D01*
G01X15250Y4811D01*
G01X15207Y4800D01*
G01X15183Y4790D01*
G01X15159Y4756D01*
G01X15153Y4703D01*
G01X15166Y4646D01*
G01X15196Y4598D01*
G01X15241Y4554D01*
G01X15521Y4554D01*
G37*

%LPD*%
G36*
G01X14211Y4700D02*
G01X13894Y4701D01*
G01X13803Y4611D01*
G01X13768Y4571D01*
G01X13739Y4530D01*
G01X13720Y4493D01*
G01X13713Y4464D01*
G01X13713Y4406D01*
G01X13940Y4406D01*
G01X13996Y4464D01*
G01X14046Y4498D01*
G01X14091Y4505D01*
G01X14124Y4487D01*
G01X14137Y4444D01*
G01X14137Y4396D01*
G01X13787Y4294D01*
G01X13729Y4205D01*
G01X13670Y4116D01*
G01X13694Y3916D01*
G01X13899Y3763D01*
G01X14300Y3763D01*
G01X14394Y3852D01*
G01X14430Y3890D01*
G01X14460Y3928D01*
G01X14480Y3963D01*
G01X14488Y3989D01*
G01X14488Y4037D01*
G01X14193Y4037D01*
G01X14193Y3964D01*
G01X13971Y3964D01*
G01X13971Y4069D01*
G01X14182Y4137D01*
G01X14393Y4204D01*
G01X14450Y4305D01*
G01X14506Y4406D01*
G01X14450Y4507D01*
G01X14421Y4550D01*
G01X14383Y4592D01*
G01X14342Y4629D01*
G01X14302Y4655D01*
G01X14211Y4700D01*
G37*

%LPD*%
G36*
G01X13334Y4701D02*
G01X13174Y4701D01*
G01X13105Y4698D01*
G01X13035Y4690D01*
G01X12973Y4677D01*
G01X12925Y4661D01*
G01X12835Y4620D01*
G01X12753Y4440D01*
G01X12753Y3779D01*
G01X13012Y3779D01*
G01X13012Y3857D01*
G01X13094Y3800D01*
G01X13145Y3770D01*
G01X13197Y3750D01*
G01X13248Y3740D01*
G01X13298Y3739D01*
G01X13346Y3747D01*
G01X13391Y3763D01*
G01X13433Y3785D01*
G01X13470Y3814D01*
G01X13503Y3849D01*
G01X13530Y3888D01*
G01X13549Y3931D01*
G01X13562Y3979D01*
G01X13567Y4029D01*
G01X13563Y4082D01*
G01X13549Y4136D01*
G01X13526Y4190D01*
G01X13485Y4265D01*
G01X13360Y4317D01*
G01X13305Y4338D01*
G01X13244Y4354D01*
G01X13187Y4366D01*
G01X13139Y4370D01*
G01X13043Y4370D01*
G01X13068Y4498D01*
G01X13138Y4511D01*
G01X13208Y4525D01*
G01X13241Y4466D01*
G01X13274Y4406D01*
G01X13528Y4406D01*
G01X13528Y4549D01*
G01X13334Y4701D01*
G37*

%LPC*%
G36*
G01X13116Y4185D02*
G01X13048Y4185D01*
G01X13048Y4133D01*
G01X13051Y4108D01*
G01X13055Y4079D01*
G01X13062Y4049D01*
G01X13071Y4022D01*
G01X13093Y3964D01*
G01X13273Y3964D01*
G01X13295Y4024D01*
G01X13319Y4085D01*
G01X13251Y4135D01*
G01X13219Y4154D01*
G01X13183Y4171D01*
G01X13147Y4181D01*
G01X13116Y4185D01*
G37*

%LPD*%
G36*
G01X11573Y4707D02*
G01X11520Y4708D01*
G01X11469Y4702D01*
G01X11420Y4691D01*
G01X11374Y4675D01*
G01X11330Y4653D01*
G01X11289Y4625D01*
G01X11251Y4593D01*
G01X11217Y4555D01*
G01X11186Y4512D01*
G01X11159Y4466D01*
G01X11137Y4414D01*
G01X11120Y4358D01*
G01X11107Y4299D01*
G01X11084Y4148D01*
G01X11684Y4148D01*
G01X11684Y4004D01*
G01X11623Y3970D01*
G01X11563Y3953D01*
G01X11498Y3955D01*
G01X11446Y3973D01*
G01X11425Y4005D01*
G01X11425Y4037D01*
G01X11130Y4037D01*
G01X11130Y3999D01*
G01X11137Y3977D01*
G01X11156Y3946D01*
G01X11184Y3909D01*
G01X11218Y3872D01*
G01X11306Y3784D01*
G01X11443Y3759D01*
G01X11580Y3733D01*
G01X11867Y3819D01*
G01X11927Y3934D01*
G01X11986Y4049D01*
G01X11971Y4264D01*
G01X11955Y4477D01*
G01X11884Y4557D01*
G01X11850Y4590D01*
G01X11812Y4622D01*
G01X11773Y4649D01*
G01X11738Y4667D01*
G01X11682Y4687D01*
G01X11627Y4700D01*
G01X11573Y4707D01*
G37*

%LPC*%
G36*
G01X11598Y4504D02*
G01X11554Y4517D01*
G01X11535Y4513D01*
G01X11512Y4504D01*
G01X11489Y4490D01*
G01X11469Y4473D01*
G01X11452Y4452D01*
G01X11438Y4428D01*
G01X11428Y4403D01*
G01X11425Y4381D01*
G01X11425Y4333D01*
G01X11684Y4333D01*
G01X11684Y4381D01*
G01X11671Y4427D01*
G01X11639Y4471D01*
G01X11598Y4504D01*
G37*

%LPD*%
G36*
G01X16484Y6716D02*
G01X16394Y6844D01*
G01X16363Y6814D01*
G01X16357Y6799D01*
G01X16350Y6772D01*
G01X16343Y6730D01*
G01X16336Y6679D01*
G01X16329Y6618D01*
G01X16323Y6550D01*
G01X16316Y6476D01*
G01X16311Y6398D01*
G01X16290Y6012D01*
G01X16148Y5442D01*
G01X16150Y5052D01*
G01X16225Y4886D01*
G01X16262Y4813D01*
G01X16307Y4738D01*
G01X16355Y4667D01*
G01X16399Y4613D01*
G01X16499Y4505D01*
G01X16319Y4603D01*
G01X16139Y4702D01*
G01X16164Y4545D01*
G01X16180Y4469D01*
G01X16206Y4380D01*
G01X16238Y4287D01*
G01X16273Y4204D01*
G01X16358Y4019D01*
G01X16683Y3694D01*
G01X16886Y3604D01*
G01X17089Y3513D01*
G01X17717Y3411D01*
G01X18141Y3201D01*
G01X18141Y3244D01*
G01X18135Y3269D01*
G01X18116Y3299D01*
G01X18084Y3335D01*
G01X18040Y3375D01*
G01X17982Y3421D01*
G01X17911Y3472D01*
G01X17826Y3529D01*
G01X17727Y3592D01*
G01X17480Y3747D01*
G01X17126Y4134D01*
G01X17065Y4326D01*
G01X17042Y4400D01*
G01X17026Y4461D01*
G01X17018Y4502D01*
G01X17019Y4517D01*
G01X17043Y4509D01*
G01X17100Y4489D01*
G01X17180Y4458D01*
G01X17275Y4421D01*
G01X17515Y4324D01*
G01X17553Y4253D01*
G01X17591Y4183D01*
G01X17657Y4223D01*
G01X17582Y4437D01*
G01X17360Y4649D01*
G01X17314Y4694D01*
G01X17267Y4742D01*
G01X17221Y4790D01*
G01X17178Y4838D01*
G01X17137Y4883D01*
G01X17102Y4925D01*
G01X17072Y4963D01*
G01X17051Y4994D01*
G01X16963Y5126D01*
G01X16913Y5550D01*
G01X16941Y5550D01*
G01X16967Y5546D01*
G01X16998Y5535D01*
G01X17033Y5517D01*
G01X17070Y5492D01*
G01X17110Y5462D01*
G01X17152Y5426D01*
G01X17196Y5387D01*
G01X17240Y5343D01*
G01X17284Y5296D01*
G01X17328Y5247D01*
G01X17371Y5195D01*
G01X17412Y5142D01*
G01X17451Y5088D01*
G01X17487Y5034D01*
G01X17519Y4980D01*
G01X17548Y4928D01*
G01X17574Y4879D01*
G01X17595Y4841D01*
G01X17613Y4815D01*
G01X17628Y4802D01*
G01X17639Y4802D01*
G01X17648Y4817D01*
G01X17656Y4847D01*
G01X17661Y4893D01*
G01X17664Y4957D01*
G01X17666Y5039D01*
G01X17667Y5140D01*
G01X17667Y5261D01*
G01X17668Y5716D01*
G01X17571Y5970D01*
G01X17542Y6044D01*
G01X17511Y6117D01*
G01X17479Y6188D01*
G01X17447Y6256D01*
G01X17414Y6322D01*
G01X17381Y6385D01*
G01X17349Y6444D01*
G01X17316Y6499D01*
G01X17284Y6550D01*
G01X17254Y6595D01*
G01X17224Y6634D01*
G01X17197Y6668D01*
G01X17171Y6695D01*
G01X17148Y6715D01*
G01X17126Y6727D01*
G01X17108Y6731D01*
G01X17078Y6731D01*
G01X17126Y6537D01*
G01X17146Y6448D01*
G01X17166Y6348D01*
G01X17184Y6250D01*
G01X17196Y6166D01*
G01X17218Y5987D01*
G01X16897Y6287D01*
G01X16830Y6350D01*
G01X16765Y6414D01*
G01X16702Y6477D01*
G01X16643Y6537D01*
G01X16590Y6593D01*
G01X16545Y6643D01*
G01X16509Y6684D01*
G01X16484Y6716D01*
G37*

%LPD*%
G54D48*
G01X26950Y1552D02*
G01X26950Y824D01*
G01X26995Y688D01*
G01X27040Y642D01*
G01X27131Y597D01*
G01X27268Y597D01*
G01X27359Y642D01*
G01X26950Y1415D02*
G01X27040Y1506D01*
G01X27131Y1552D01*
G01X27268Y1552D01*
G01X27359Y1506D01*
G01X27450Y1415D01*
G01X27495Y1279D01*
G01X27495Y1188D01*
G01X27450Y1052D01*
G01X27359Y961D01*
G01X27268Y915D01*
G01X27131Y915D01*
G01X27040Y961D01*
G01X26950Y1052D01*
G01X26650Y1870D02*
G01X26604Y1824D01*
G01X26559Y1870D01*
G01X26604Y1915D01*
G01X26650Y1870D01*
G01X26604Y1552D02*
G01X26604Y915D01*
G01X26122Y1870D02*
G01X26122Y1097D01*
G01X26077Y961D01*
G01X25986Y915D01*
G01X25895Y915D01*
G01X26259Y1552D02*
G01X25940Y1552D01*
G01X25595Y1870D02*
G01X25595Y915D01*
G01X25595Y1370D02*
G01X25459Y1506D01*
G01X25368Y1552D01*
G01X25231Y1552D01*
G01X25140Y1506D01*
G01X25095Y1370D01*
G01X25095Y915D01*
G01X24795Y1552D02*
G01X24795Y1097D01*
G01X24750Y961D01*
G01X24659Y915D01*
G01X24522Y915D01*
G01X24431Y961D01*
G01X24295Y1097D01*
G01X24295Y1552D02*
G01X24295Y915D01*
G01X23995Y1870D02*
G01X23995Y915D01*
G01X23995Y1415D02*
G01X23904Y1506D01*
G01X23813Y1552D01*
G01X23677Y1552D01*
G01X23586Y1506D01*
G01X23495Y1415D01*
G01X23450Y1279D01*
G01X23450Y1188D01*
G01X23495Y1052D01*
G01X23586Y961D01*
G01X23677Y915D01*
G01X23813Y915D01*
G01X23904Y961D01*
G01X23995Y1052D01*
G01X23104Y1142D02*
G01X23150Y1097D01*
G01X23104Y1052D01*
G01X23059Y1097D01*
G01X23104Y1142D01*
G01X22213Y1415D02*
G01X22304Y1506D01*
G01X22395Y1552D01*
G01X22531Y1552D01*
G01X22622Y1506D01*
G01X22713Y1415D01*
G01X22759Y1279D01*
G01X22759Y1188D01*
G01X22713Y1052D01*
G01X22622Y961D01*
G01X22531Y915D01*
G01X22395Y915D01*
G01X22304Y961D01*
G01X22213Y1052D01*
G01X21686Y1552D02*
G01X21777Y1506D01*
G01X21868Y1415D01*
G01X21913Y1279D01*
G01X21913Y1188D01*
G01X21868Y1052D01*
G01X21777Y961D01*
G01X21686Y915D01*
G01X21550Y915D01*
G01X21459Y961D01*
G01X21368Y1052D01*
G01X21322Y1188D01*
G01X21322Y1279D01*
G01X21368Y1415D01*
G01X21459Y1506D01*
G01X21550Y1552D01*
G01X21686Y1552D01*
G01X21022Y1552D02*
G01X21022Y915D01*
G01X21022Y1370D02*
G01X20886Y1506D01*
G01X20795Y1552D01*
G01X20659Y1552D01*
G01X20568Y1506D01*
G01X20522Y1370D01*
G01X20522Y915D01*
G01X20522Y1370D02*
G01X20386Y1506D01*
G01X20295Y1552D01*
G01X20159Y1552D01*
G01X20068Y1506D01*
G01X20022Y1370D01*
G01X20022Y915D01*
G01X18904Y2052D02*
G01X19722Y597D01*
G01X18604Y1870D02*
G01X18604Y1188D01*
G01X18559Y1052D01*
G01X18468Y961D01*
G01X18331Y915D01*
G01X18240Y915D01*
G01X18104Y961D01*
G01X18013Y1052D01*
G01X17968Y1188D01*
G01X17968Y1870D01*
G01X17668Y1552D02*
G01X17668Y915D01*
G01X17668Y1370D02*
G01X17531Y1506D01*
G01X17440Y1552D01*
G01X17304Y1552D01*
G01X17213Y1506D01*
G01X17168Y1370D01*
G01X17168Y915D01*
G01X16868Y1870D02*
G01X16822Y1824D01*
G01X16777Y1870D01*
G01X16822Y1915D01*
G01X16868Y1870D01*
G01X16822Y1552D02*
G01X16822Y915D01*
G01X15931Y1415D02*
G01X16022Y1506D01*
G01X16113Y1552D01*
G01X16250Y1552D01*
G01X16340Y1506D01*
G01X16431Y1415D01*
G01X16477Y1279D01*
G01X16477Y1188D01*
G01X16431Y1052D01*
G01X16340Y961D01*
G01X16250Y915D01*
G01X16113Y915D01*
G01X16022Y961D01*
G01X15931Y1052D01*
G01X15404Y1552D02*
G01X15495Y1506D01*
G01X15586Y1415D01*
G01X15631Y1279D01*
G01X15631Y1188D01*
G01X15586Y1052D01*
G01X15495Y961D01*
G01X15404Y915D01*
G01X15268Y915D01*
G01X15177Y961D01*
G01X15086Y1052D01*
G01X15040Y1188D01*
G01X15040Y1279D01*
G01X15086Y1415D01*
G01X15177Y1506D01*
G01X15268Y1552D01*
G01X15404Y1552D01*
G01X14740Y1552D02*
G01X14740Y915D01*
G01X14740Y1279D02*
G01X14695Y1415D01*
G01X14604Y1506D01*
G01X14513Y1552D01*
G01X14377Y1552D01*
G01X14077Y1552D02*
G01X14077Y915D01*
G01X14077Y1370D02*
G01X13940Y1506D01*
G01X13850Y1552D01*
G01X13713Y1552D01*
G01X13622Y1506D01*
G01X13577Y1370D01*
G01X13577Y915D01*
G01X12959Y1870D02*
G01X12959Y915D01*
G01X13277Y1870D02*
G01X12640Y1870D01*
G01X12340Y1279D02*
G01X11795Y1279D01*
G01X11795Y1370D01*
G01X11840Y1461D01*
G01X11886Y1506D01*
G01X11977Y1552D01*
G01X12113Y1552D01*
G01X12204Y1506D01*
G01X12295Y1415D01*
G01X12340Y1279D01*
G01X12340Y1188D01*
G01X12295Y1052D01*
G01X12204Y961D01*
G01X12113Y915D01*
G01X11977Y915D01*
G01X11886Y961D01*
G01X11795Y1052D01*
G01X10950Y1552D02*
G01X10950Y915D01*
G01X10950Y1415D02*
G01X11040Y1506D01*
G01X11131Y1552D01*
G01X11268Y1552D01*
G01X11359Y1506D01*
G01X11450Y1415D01*
G01X11495Y1279D01*
G01X11495Y1188D01*
G01X11450Y1052D01*
G01X11359Y961D01*
G01X11268Y915D01*
G01X11131Y915D01*
G01X11040Y961D01*
G01X10950Y1052D01*
G01X10650Y1552D02*
G01X10650Y915D01*
G01X10650Y1370D02*
G01X10513Y1506D01*
G01X10422Y1552D01*
G01X10286Y1552D01*
G01X10195Y1506D01*
G01X10150Y1370D01*
G01X10150Y915D01*
G01X10150Y1370D02*
G01X10013Y1506D01*
G01X9922Y1552D01*
G01X9786Y1552D01*
G01X9695Y1506D01*
G01X9650Y1370D01*
G01X9650Y915D01*
G01X8531Y2052D02*
G01X9350Y597D01*
G01X8231Y1870D02*
G01X8231Y915D01*
G01X8231Y1370D02*
G01X8095Y1506D01*
G01X8004Y1552D01*
G01X7868Y1552D01*
G01X7777Y1506D01*
G01X7731Y1370D01*
G01X7731Y915D01*
G01X6886Y1552D02*
G01X6886Y915D01*
G01X6886Y1415D02*
G01X6977Y1506D01*
G01X7068Y1552D01*
G01X7204Y1552D01*
G01X7295Y1506D01*
G01X7386Y1415D01*
G01X7431Y1279D01*
G01X7431Y1188D01*
G01X7386Y1052D01*
G01X7295Y961D01*
G01X7204Y915D01*
G01X7068Y915D01*
G01X6977Y961D01*
G01X6886Y1052D01*
G01X6040Y1415D02*
G01X6131Y1506D01*
G01X6222Y1552D01*
G01X6359Y1552D01*
G01X6450Y1506D01*
G01X6540Y1415D01*
G01X6586Y1279D01*
G01X6586Y1188D01*
G01X6540Y1052D01*
G01X6450Y961D01*
G01X6359Y915D01*
G01X6222Y915D01*
G01X6131Y961D01*
G01X6040Y1052D01*
G01X5740Y1870D02*
G01X5740Y915D01*
G01X5286Y1552D02*
G01X5740Y1097D01*
G01X5559Y1279D02*
G01X5240Y915D01*
G01X4395Y1415D02*
G01X4486Y1506D01*
G01X4577Y1552D01*
G01X4713Y1552D01*
G01X4804Y1506D01*
G01X4895Y1415D01*
G01X4940Y1279D01*
G01X4940Y1188D01*
G01X4895Y1052D01*
G01X4804Y961D01*
G01X4713Y915D01*
G01X4577Y915D01*
G01X4486Y961D01*
G01X4395Y1052D01*
G01X4095Y1552D02*
G01X4095Y1097D01*
G01X4050Y961D01*
G01X3959Y915D01*
G01X3822Y915D01*
G01X3731Y961D01*
G01X3595Y1097D01*
G01X3595Y1552D02*
G01X3595Y915D01*
G01X3295Y1870D02*
G01X3295Y915D01*
G01X3295Y1415D02*
G01X3204Y1506D01*
G01X3113Y1552D01*
G01X2977Y1552D01*
G01X2886Y1506D01*
G01X2795Y1415D01*
G01X2750Y1279D01*
G01X2750Y1188D01*
G01X2795Y1052D01*
G01X2886Y961D01*
G01X2977Y915D01*
G01X3113Y915D01*
G01X3204Y961D01*
G01X3295Y1052D01*
G01X2450Y1279D02*
G01X1904Y1279D01*
G01X1904Y1370D01*
G01X1950Y1461D01*
G01X1995Y1506D01*
G01X2086Y1552D01*
G01X2222Y1552D01*
G01X2313Y1506D01*
G01X2404Y1415D01*
G01X2450Y1279D01*
G01X2450Y1188D01*
G01X2404Y1052D01*
G01X2313Y961D01*
G01X2222Y915D01*
G01X2086Y915D01*
G01X1995Y961D01*
G01X1904Y1052D01*

%LPD*%
G36*
G01X59393Y5466D02*
G01X59354Y5490D01*
G01X59323Y5485D01*
G01X59301Y5471D01*
G01X59288Y5447D01*
G01X59283Y5414D01*
G01X59285Y5397D01*
G01X59289Y5379D01*
G01X59297Y5358D01*
G01X59309Y5335D01*
G01X59352Y5238D01*
G01X59388Y5130D01*
G01X59415Y5009D01*
G01X59435Y4877D01*
G01X59447Y4732D01*
G01X59451Y4575D01*
G01X59414Y4408D01*
G01X59303Y4324D01*
G01X59293Y4313D01*
G01X59286Y4302D01*
G01X59282Y4291D01*
G01X59281Y4281D01*
G01X59285Y4263D01*
G01X59297Y4250D01*
G01X59318Y4243D01*
G01X59347Y4240D01*
G01X59443Y4281D01*
G01X59519Y4403D01*
G01X59559Y4529D01*
G01X59573Y4649D01*
G01X59569Y4735D01*
G01X59557Y4842D01*
G01X59537Y4968D01*
G01X59509Y5114D01*
G01X59471Y5279D01*
G01X59432Y5396D01*
G01X59393Y5466D01*
G37*

%LPD*%
G36*
G01X53819Y5148D02*
G01X53771Y5162D01*
G01X53670Y5118D01*
G01X53609Y4984D01*
G01X53596Y4849D01*
G01X53583Y4713D01*
G01X53573Y4614D01*
G01X53565Y4539D01*
G01X53559Y4488D01*
G01X53555Y4461D01*
G01X53515Y4311D01*
G01X53459Y4261D01*
G01X53444Y4264D01*
G01X53426Y4273D01*
G01X53407Y4289D01*
G01X53385Y4311D01*
G01X53332Y4294D01*
G01X53334Y4267D01*
G01X53343Y4243D01*
G01X53358Y4221D01*
G01X53380Y4202D01*
G01X53399Y4190D01*
G01X53417Y4181D01*
G01X53434Y4176D01*
G01X53451Y4174D01*
G01X53515Y4187D01*
G01X53571Y4226D01*
G01X53617Y4290D01*
G01X53655Y4381D01*
G01X53685Y4497D01*
G01X53705Y4639D01*
G01X53718Y4769D01*
G01X53736Y4941D01*
G01X53744Y4993D01*
G01X53754Y5029D01*
G01X53764Y5051D01*
G01X53776Y5058D01*
G01X53809Y5039D01*
G01X53860Y4982D01*
G01X53929Y4888D01*
G01X54015Y4756D01*
G01X54104Y4609D01*
G01X54178Y4467D01*
G01X54238Y4332D01*
G01X54284Y4202D01*
G01X54297Y4172D01*
G01X54312Y4151D01*
G01X54332Y4138D01*
G01X54356Y4134D01*
G01X54383Y4138D01*
G01X54402Y4149D01*
G01X54412Y4169D01*
G01X54414Y4197D01*
G01X54407Y4244D01*
G01X54390Y4360D01*
G01X54322Y4804D01*
G01X54319Y4843D01*
G01X54316Y4890D01*
G01X54312Y4944D01*
G01X54307Y5005D01*
G01X54298Y5056D01*
G01X54281Y5092D01*
G01X54255Y5114D01*
G01X54221Y5122D01*
G01X54201Y5120D01*
G01X54185Y5114D01*
G01X54172Y5104D01*
G01X54162Y5091D01*
G01X54159Y5075D01*
G01X54155Y5058D01*
G01X54151Y5042D01*
G01X54147Y5025D01*
G01X54231Y4601D01*
G01X54206Y4644D01*
G01X54108Y4803D01*
G01X54021Y4932D01*
G01X53944Y5033D01*
G01X53876Y5105D01*
G01X53819Y5148D01*
G37*

%LPD*%
G36*
G01X60924Y5148D02*
G01X60876Y5162D01*
G01X60775Y5118D01*
G01X60716Y4984D01*
G01X60702Y4849D01*
G01X60688Y4713D01*
G01X60678Y4614D01*
G01X60669Y4539D01*
G01X60663Y4488D01*
G01X60660Y4461D01*
G01X60620Y4311D01*
G01X60566Y4261D01*
G01X60551Y4264D01*
G01X60533Y4273D01*
G01X60512Y4289D01*
G01X60490Y4311D01*
G01X60436Y4294D01*
G01X60438Y4267D01*
G01X60448Y4243D01*
G01X60464Y4221D01*
G01X60487Y4202D01*
G01X60506Y4190D01*
G01X60524Y4181D01*
G01X60541Y4176D01*
G01X60558Y4174D01*
G01X60622Y4187D01*
G01X60678Y4226D01*
G01X60725Y4290D01*
G01X60762Y4381D01*
G01X60792Y4497D01*
G01X60812Y4639D01*
G01X60824Y4769D01*
G01X60843Y4941D01*
G01X60851Y4993D01*
G01X60860Y5029D01*
G01X60870Y5051D01*
G01X60881Y5058D01*
G01X60915Y5039D01*
G01X60967Y4982D01*
G01X61036Y4888D01*
G01X61122Y4756D01*
G01X61210Y4609D01*
G01X61285Y4467D01*
G01X61345Y4332D01*
G01X61391Y4202D01*
G01X61403Y4172D01*
G01X61419Y4151D01*
G01X61438Y4138D01*
G01X61460Y4134D01*
G01X61487Y4138D01*
G01X61506Y4149D01*
G01X61517Y4169D01*
G01X61518Y4197D01*
G01X61513Y4244D01*
G01X61495Y4360D01*
G01X61467Y4547D01*
G01X61427Y4804D01*
G01X61425Y4843D01*
G01X61422Y4890D01*
G01X61419Y4944D01*
G01X61414Y5005D01*
G01X61404Y5056D01*
G01X61386Y5092D01*
G01X61361Y5114D01*
G01X61328Y5122D01*
G01X61308Y5120D01*
G01X61292Y5114D01*
G01X61279Y5104D01*
G01X61269Y5091D01*
G01X61264Y5075D01*
G01X61260Y5058D01*
G01X61256Y5042D01*
G01X61252Y5025D01*
G01X61335Y4601D01*
G01X61313Y4644D01*
G01X61215Y4803D01*
G01X61128Y4932D01*
G01X61050Y5033D01*
G01X60982Y5105D01*
G01X60924Y5148D01*
G37*

%LPD*%
G36*
G01X64245Y5340D02*
G01X64178Y5353D01*
G01X64071Y5322D01*
G01X64020Y5231D01*
G01X64019Y5199D01*
G01X64026Y5175D01*
G01X64043Y5162D01*
G01X64068Y5157D01*
G01X64078Y5158D01*
G01X64086Y5161D01*
G01X64092Y5166D01*
G01X64096Y5172D01*
G01X64100Y5179D01*
G01X64104Y5188D01*
G01X64107Y5197D01*
G01X64109Y5208D01*
G01X64112Y5226D01*
G01X64116Y5238D01*
G01X64124Y5247D01*
G01X64135Y5252D01*
G01X64150Y5254D01*
G01X64228Y5216D01*
G01X64328Y5104D01*
G01X64436Y4936D01*
G01X64505Y4784D01*
G01X64546Y4619D01*
G01X64559Y4431D01*
G01X64558Y4413D01*
G01X64556Y4368D01*
G01X64553Y4297D01*
G01X64549Y4197D01*
G01X64550Y4184D01*
G01X64556Y4172D01*
G01X64564Y4159D01*
G01X64576Y4146D01*
G01X64590Y4136D01*
G01X64604Y4129D01*
G01X64617Y4125D01*
G01X64630Y4123D01*
G01X64665Y4131D01*
G01X64688Y4154D01*
G01X64700Y4193D01*
G01X64701Y4248D01*
G01X64690Y4386D01*
G01X64682Y4512D01*
G01X64677Y4626D01*
G01X64676Y4728D01*
G01X64677Y4830D01*
G01X64682Y4939D01*
G01X64690Y5055D01*
G01X64701Y5177D01*
G01X64700Y5192D01*
G01X64696Y5206D01*
G01X64688Y5221D01*
G01X64676Y5236D01*
G01X64662Y5248D01*
G01X64649Y5257D01*
G01X64634Y5262D01*
G01X64620Y5264D01*
G01X64598Y5261D01*
G01X64580Y5252D01*
G01X64564Y5238D01*
G01X64551Y5218D01*
G01X64545Y5201D01*
G01X64541Y5185D01*
G01X64540Y5169D01*
G01X64541Y5155D01*
G01X64549Y5082D01*
G01X64554Y5015D01*
G01X64558Y4956D01*
G01X64559Y4903D01*
G01X64499Y5040D01*
G01X64437Y5153D01*
G01X64375Y5240D01*
G01X64310Y5303D01*
G01X64245Y5340D01*
G37*

%LPD*%
G36*
G01X51393Y5306D02*
G01X51295Y5327D01*
G01X51265Y5324D01*
G01X51238Y5313D01*
G01X51215Y5294D01*
G01X51196Y5269D01*
G01X51185Y5246D01*
G01X51177Y5223D01*
G01X51172Y5199D01*
G01X51170Y5175D01*
G01X51200Y5025D01*
G01X51290Y4852D01*
G01X51362Y4757D01*
G01X51440Y4688D01*
G01X51522Y4648D01*
G01X51610Y4634D01*
G01X51650Y4636D01*
G01X51686Y4644D01*
G01X51716Y4655D01*
G01X51742Y4672D01*
G01X51747Y4677D01*
G01X51760Y4660D01*
G01X51774Y4631D01*
G01X51788Y4590D01*
G01X51803Y4537D01*
G01X51815Y4482D01*
G01X51824Y4430D01*
G01X51829Y4381D01*
G01X51831Y4337D01*
G01X51794Y4253D01*
G01X51683Y4225D01*
G01X51610Y4235D01*
G01X51531Y4266D01*
G01X51445Y4318D01*
G01X51353Y4390D01*
G01X51268Y4471D01*
G01X51196Y4553D01*
G01X51139Y4636D01*
G01X51097Y4720D01*
G01X51051Y4720D01*
G01X51040Y4707D01*
G01X51034Y4693D01*
G01X51032Y4681D01*
G01X51033Y4669D01*
G01X51082Y4555D01*
G01X51144Y4450D01*
G01X51220Y4355D01*
G01X51310Y4271D01*
G01X51403Y4204D01*
G01X51495Y4156D01*
G01X51588Y4128D01*
G01X51681Y4118D01*
G01X51745Y4124D01*
G01X51801Y4142D01*
G01X51848Y4171D01*
G01X51887Y4212D01*
G01X51936Y4319D01*
G01X51948Y4456D01*
G01X51929Y4569D01*
G01X51884Y4695D01*
G01X51814Y4835D01*
G01X51719Y4987D01*
G01X51605Y5136D01*
G01X51496Y5242D01*
G01X51393Y5306D01*
G37*

%LPC*%
G36*
G01X51313Y5228D02*
G01X51294Y5229D01*
G01X51280Y5223D01*
G01X51272Y5208D01*
G01X51269Y5185D01*
G01X51302Y5049D01*
G01X51399Y4896D01*
G01X51526Y4773D01*
G01X51643Y4735D01*
G01X51671Y4739D01*
G01X51691Y4743D01*
G01X51702Y4749D01*
G01X51706Y4756D01*
G01X51687Y4803D01*
G01X51632Y4886D01*
G01X51539Y5006D01*
G01X51409Y5162D01*
G01X51387Y5187D01*
G01X51363Y5205D01*
G01X51338Y5220D01*
G01X51313Y5228D01*
G37*

%LPD*%
G36*
G01X61855Y5394D02*
G01X61833Y5396D01*
G01X61734Y5353D01*
G01X61661Y5226D01*
G01X61627Y5095D01*
G01X61615Y4956D01*
G01X61621Y4883D01*
G01X61640Y4797D01*
G01X61671Y4700D01*
G01X61714Y4591D01*
G01X61774Y4466D01*
G01X61838Y4377D01*
G01X61906Y4324D01*
G01X61978Y4306D01*
G01X62047Y4320D01*
G01X62115Y4362D01*
G01X62182Y4432D01*
G01X62250Y4530D01*
G01X62292Y4608D01*
G01X62331Y4694D01*
G01X62368Y4787D01*
G01X62402Y4888D01*
G01X62433Y4810D01*
G01X62473Y4714D01*
G01X62521Y4599D01*
G01X62577Y4466D01*
G01X62659Y4308D01*
G01X62735Y4195D01*
G01X62804Y4128D01*
G01X62867Y4106D01*
G01X62907Y4115D01*
G01X62941Y4145D01*
G01X62970Y4194D01*
G01X62992Y4263D01*
G01X63002Y4315D01*
G01X63009Y4365D01*
G01X63012Y4411D01*
G01X63012Y4456D01*
G01X63007Y4540D01*
G01X62999Y4639D01*
G01X62989Y4755D01*
G01X62976Y4885D01*
G01X62935Y5059D01*
G01X62872Y5116D01*
G01X62843Y5111D01*
G01X62823Y5096D01*
G01X62810Y5069D01*
G01X62806Y5033D01*
G01X62808Y5021D01*
G01X62809Y5014D01*
G01X62811Y5007D01*
G01X62851Y4814D01*
G01X62880Y4649D01*
G01X62897Y4514D01*
G01X62903Y4408D01*
G01X62906Y4331D01*
G01X62904Y4276D01*
G01X62896Y4244D01*
G01X62882Y4233D01*
G01X62838Y4251D01*
G01X62786Y4306D01*
G01X62726Y4398D01*
G01X62659Y4527D01*
G01X62614Y4623D01*
G01X62572Y4718D01*
G01X62535Y4811D01*
G01X62501Y4903D01*
G01X62492Y4937D01*
G01X62480Y4977D01*
G01X62467Y5023D01*
G01X62453Y5076D01*
G01X62437Y5120D01*
G01X62419Y5152D01*
G01X62400Y5171D01*
G01X62379Y5177D01*
G01X62369Y5176D01*
G01X62357Y5173D01*
G01X62331Y5160D01*
G01X62316Y5147D01*
G01X62305Y5134D01*
G01X62299Y5120D01*
G01X62298Y5104D01*
G01X62299Y5035D01*
G01X62287Y4949D01*
G01X62263Y4847D01*
G01X62227Y4728D01*
G01X62173Y4592D01*
G01X62112Y4495D01*
G01X62045Y4437D01*
G01X61970Y4418D01*
G01X61896Y4470D01*
G01X61821Y4626D01*
G01X61787Y4731D01*
G01X61764Y4834D01*
G01X61749Y4935D01*
G01X61744Y5035D01*
G01X61745Y5058D01*
G01X61746Y5079D01*
G01X61747Y5101D01*
G01X61749Y5122D01*
G01X61786Y5262D01*
G01X61851Y5310D01*
G01X61855Y5309D01*
G01X61861Y5307D01*
G01X61870Y5305D01*
G01X61882Y5302D01*
G01X61892Y5298D01*
G01X61901Y5296D01*
G01X61907Y5295D01*
G01X61912Y5294D01*
G01X61940Y5296D01*
G01X61960Y5300D01*
G01X61971Y5307D01*
G01X61976Y5317D01*
G01X61972Y5329D01*
G01X61963Y5341D01*
G01X61947Y5354D01*
G01X61925Y5368D01*
G01X61901Y5380D01*
G01X61878Y5389D01*
G01X61855Y5394D01*
G37*

%LPD*%
G36*
G01X63515Y5318D02*
G01X63433Y5332D01*
G01X63367Y5312D01*
G01X63344Y5290D01*
G01X63327Y5258D01*
G01X63318Y5217D01*
G01X63314Y5167D01*
G01X63320Y5109D01*
G01X63336Y5066D01*
G01X63364Y5039D01*
G01X63403Y5028D01*
G01X63431Y5029D01*
G01X63451Y5036D01*
G01X63462Y5050D01*
G01X63466Y5071D01*
G01X63466Y5078D01*
G01X63464Y5086D01*
G01X63452Y5118D01*
G01X63444Y5149D01*
G01X63439Y5178D01*
G01X63439Y5219D01*
G01X63440Y5228D01*
G01X63442Y5234D01*
G01X63444Y5236D01*
G01X63496Y5216D01*
G01X63558Y5175D01*
G01X63630Y5112D01*
G01X63711Y5029D01*
G01X63802Y4924D01*
G01X63903Y4799D01*
G01X63999Y4669D01*
G01X64078Y4553D01*
G01X64140Y4452D01*
G01X64183Y4364D01*
G01X64210Y4291D01*
G01X64218Y4233D01*
G01X64215Y4208D01*
G01X64206Y4190D01*
G01X64191Y4180D01*
G01X64170Y4177D01*
G01X64099Y4197D01*
G01X64011Y4257D01*
G01X63905Y4358D01*
G01X63781Y4499D01*
G01X63638Y4672D01*
G01X63578Y4746D01*
G01X63542Y4802D01*
G01X63515Y4855D01*
G01X63496Y4906D01*
G01X63487Y4954D01*
G01X63480Y4982D01*
G01X63466Y5002D01*
G01X63445Y5013D01*
G01X63418Y5017D01*
G01X63381Y5012D01*
G01X63356Y4997D01*
G01X63345Y4970D01*
G01X63347Y4934D01*
G01X63378Y4767D01*
G01X63400Y4637D01*
G01X63414Y4544D01*
G01X63418Y4487D01*
G01X63414Y4421D01*
G01X63402Y4372D01*
G01X63381Y4340D01*
G01X63352Y4324D01*
G01X63340Y4321D01*
G01X63329Y4322D01*
G01X63317Y4326D01*
G01X63304Y4332D01*
G01X63295Y4338D01*
G01X63288Y4344D01*
G01X63284Y4350D01*
G01X63271Y4383D01*
G01X63256Y4403D01*
G01X63235Y4414D01*
G01X63210Y4418D01*
G01X63194Y4416D01*
G01X63184Y4409D01*
G01X63176Y4398D01*
G01X63174Y4382D01*
G01X63175Y4374D01*
G01X63176Y4365D01*
G01X63178Y4355D01*
G01X63182Y4344D01*
G01X63209Y4296D01*
G01X63245Y4261D01*
G01X63289Y4240D01*
G01X63342Y4233D01*
G01X63359Y4234D01*
G01X63375Y4236D01*
G01X63392Y4240D01*
G01X63408Y4245D01*
G01X63467Y4283D01*
G01X63509Y4349D01*
G01X63534Y4442D01*
G01X63543Y4563D01*
G01X63543Y4621D01*
G01X63614Y4528D01*
G01X63690Y4439D01*
G01X63769Y4355D01*
G01X63853Y4276D01*
G01X63956Y4188D01*
G01X64048Y4125D01*
G01X64129Y4088D01*
G01X64198Y4075D01*
G01X64218Y4077D01*
G01X64236Y4081D01*
G01X64253Y4088D01*
G01X64269Y4098D01*
G01X64291Y4121D01*
G01X64307Y4150D01*
G01X64317Y4185D01*
G01X64320Y4225D01*
G01X64308Y4321D01*
G01X64272Y4434D01*
G01X64213Y4562D01*
G01X64129Y4705D01*
G01X64034Y4844D01*
G01X63935Y4970D01*
G01X63831Y5083D01*
G01X63723Y5183D01*
G01X63611Y5268D01*
G01X63515Y5318D01*
G37*

%LPD*%
G36*
G01X50702Y5880D02*
G01X50673Y5906D01*
G01X50640Y5901D01*
G01X50617Y5886D01*
G01X50603Y5861D01*
G01X50599Y5825D01*
G01X50600Y5817D01*
G01X50602Y5806D01*
G01X50604Y5792D01*
G01X50606Y5774D01*
G01X50624Y5673D01*
G01X50637Y5602D01*
G01X50648Y5540D01*
G01X50656Y5486D01*
G01X50662Y5442D01*
G01X50675Y5326D01*
G01X50685Y5204D01*
G01X50693Y5078D01*
G01X50698Y4947D01*
G01X50702Y4811D01*
G01X50703Y4669D01*
G01X50698Y4510D01*
G01X50683Y4380D01*
G01X50657Y4279D01*
G01X50622Y4207D01*
G01X50576Y4163D01*
G01X50520Y4149D01*
G01X50504Y4150D01*
G01X50491Y4155D01*
G01X50479Y4163D01*
G01X50469Y4174D01*
G01X50436Y4174D01*
G01X50411Y4149D01*
G01X50411Y4151D01*
G01X50408Y4146D01*
G01X50407Y4141D01*
G01X50406Y4134D01*
G01X50406Y4118D01*
G01X50432Y4091D01*
G01X50461Y4073D01*
G01X50493Y4061D01*
G01X50528Y4057D01*
G01X50631Y4089D01*
G01X50718Y4184D01*
G01X50760Y4264D01*
G01X50791Y4360D01*
G01X50812Y4470D01*
G01X50822Y4596D01*
G01X50823Y4627D01*
G01X50824Y4659D01*
G01X50825Y4693D01*
G01X50825Y4728D01*
G01X50824Y4852D01*
G01X50820Y4978D01*
G01X50814Y5103D01*
G01X50806Y5229D01*
G01X50795Y5355D01*
G01X50782Y5482D01*
G01X50757Y5668D01*
G01X50730Y5800D01*
G01X50702Y5880D01*
G37*

%LPD*%
G36*
G01X65816Y5758D02*
G01X65699Y5762D01*
G01X65551Y5750D01*
G01X65412Y5716D01*
G01X65282Y5660D01*
G01X65161Y5581D01*
G01X65049Y5477D01*
G01X64970Y5360D01*
G01X64922Y5229D01*
G01X64907Y5086D01*
G01X64914Y4966D01*
G01X64938Y4848D01*
G01X64977Y4731D01*
G01X65032Y4617D01*
G01X65102Y4503D01*
G01X65189Y4393D01*
G01X65288Y4287D01*
G01X65391Y4201D01*
G01X65499Y4134D01*
G01X65611Y4086D01*
G01X65727Y4057D01*
G01X65846Y4047D01*
G01X65913Y4050D01*
G01X65968Y4059D01*
G01X66014Y4074D01*
G01X66050Y4095D01*
G01X66055Y4100D01*
G01X66058Y4105D01*
G01X66076Y4083D01*
G01X66105Y4062D01*
G01X66131Y4055D01*
G01X66199Y4073D01*
G01X66259Y4126D01*
G01X66311Y4216D01*
G01X66354Y4342D01*
G01X66378Y4442D01*
G01X66395Y4541D01*
G01X66404Y4640D01*
G01X66408Y4738D01*
G01X66408Y4931D01*
G01X66399Y5056D01*
G01X66372Y5226D01*
G01X66326Y5405D01*
G01X66276Y5464D01*
G01X66242Y5459D01*
G01X66219Y5443D01*
G01X66204Y5416D01*
G01X66200Y5378D01*
G01X66201Y5356D01*
G01X66204Y5332D01*
G01X66210Y5304D01*
G01X66217Y5274D01*
G01X66227Y5234D01*
G01X66240Y5184D01*
G01X66243Y5172D01*
G01X66260Y5063D01*
G01X66273Y4959D01*
G01X66281Y4860D01*
G01X66283Y4766D01*
G01X66277Y4581D01*
G01X66260Y4429D01*
G01X66231Y4311D01*
G01X66190Y4226D01*
G01X66137Y4176D01*
G01X66073Y4159D01*
G01X66058Y4159D01*
G01X66044Y4161D01*
G01X66029Y4164D01*
G01X66028Y4165D01*
G01X66024Y4167D01*
G01X66022Y4167D01*
G01X66014Y4169D01*
G01X66015Y4168D01*
G01X66014Y4168D01*
G01X66004Y4167D01*
G01X65961Y4159D01*
G01X65930Y4153D01*
G01X65911Y4150D01*
G01X65905Y4149D01*
G01X65802Y4157D01*
G01X65700Y4183D01*
G01X65600Y4227D01*
G01X65501Y4287D01*
G01X65403Y4366D01*
G01X65308Y4461D01*
G01X65223Y4564D01*
G01X65153Y4666D01*
G01X65099Y4770D01*
G01X65060Y4873D01*
G01X65036Y4977D01*
G01X65029Y5081D01*
G01X65042Y5204D01*
G01X65081Y5315D01*
G01X65146Y5412D01*
G01X65237Y5497D01*
G01X65338Y5561D01*
G01X65450Y5606D01*
G01X65572Y5633D01*
G01X65704Y5642D01*
G01X65800Y5638D01*
G01X65897Y5627D01*
G01X65998Y5608D01*
G01X66100Y5581D01*
G01X66204Y5548D01*
G01X66299Y5511D01*
G01X66384Y5469D01*
G01X66461Y5421D01*
G01X66527Y5377D01*
G01X66576Y5345D01*
G01X66609Y5326D01*
G01X66626Y5320D01*
G01X66663Y5325D01*
G01X66689Y5339D01*
G01X66705Y5364D01*
G01X66710Y5398D01*
G01X66702Y5424D01*
G01X66678Y5453D01*
G01X66637Y5485D01*
G01X66581Y5520D01*
G01X66477Y5577D01*
G01X66372Y5626D01*
G01X66265Y5667D01*
G01X66156Y5701D01*
G01X66045Y5728D01*
G01X65931Y5746D01*
G01X65816Y5758D01*
G37*

%LPD*%
G36*
G01X58869Y5837D02*
G01X58762Y5843D01*
G01X58640Y5835D01*
G01X58541Y5812D01*
G01X58463Y5774D01*
G01X58408Y5721D01*
G01X58375Y5652D01*
G01X58364Y5569D01*
G01X58385Y5470D01*
G01X58449Y5358D01*
G01X58555Y5235D01*
G01X58704Y5099D01*
G01X58650Y5106D01*
G01X58596Y5112D01*
G01X58541Y5115D01*
G01X58486Y5116D01*
G01X58353Y5102D01*
G01X58229Y5061D01*
G01X58113Y4969D01*
G01X58074Y4847D01*
G01X58085Y4767D01*
G01X58116Y4684D01*
G01X58168Y4600D01*
G01X58241Y4514D01*
G01X58335Y4427D01*
G01X58450Y4337D01*
G01X58560Y4262D01*
G01X58666Y4198D01*
G01X58767Y4146D01*
G01X58865Y4105D01*
G01X58956Y4077D01*
G01X59044Y4060D01*
G01X59290Y4027D01*
G01X59405Y4017D01*
G01X59532Y4029D01*
G01X59622Y4065D01*
G01X59676Y4127D01*
G01X59695Y4212D01*
G01X59688Y4269D01*
G01X59670Y4319D01*
G01X59639Y4361D01*
G01X59596Y4395D01*
G01X59576Y4395D01*
G01X59562Y4394D01*
G01X59552Y4392D01*
G01X59547Y4390D01*
G01X59544Y4385D01*
G01X59540Y4375D01*
G01X59529Y4339D01*
G01X59557Y4305D01*
G01X59577Y4272D01*
G01X59589Y4241D01*
G01X59593Y4212D01*
G01X59545Y4162D01*
G01X59402Y4146D01*
G01X59307Y4150D01*
G01X59208Y4162D01*
G01X59107Y4181D01*
G01X59003Y4208D01*
G01X58895Y4243D01*
G01X58785Y4286D01*
G01X58701Y4327D01*
G01X58613Y4380D01*
G01X58519Y4447D01*
G01X58420Y4527D01*
G01X58317Y4621D01*
G01X58244Y4705D01*
G01X58201Y4779D01*
G01X58186Y4842D01*
G01X58204Y4907D01*
G01X58258Y4952D01*
G01X58349Y4980D01*
G01X58475Y4989D01*
G01X58583Y4984D01*
G01X58690Y4970D01*
G01X58798Y4945D01*
G01X58907Y4911D01*
G01X58922Y4905D01*
G01X58956Y4890D01*
G01X59010Y4867D01*
G01X59082Y4835D01*
G01X59142Y4809D01*
G01X59189Y4791D01*
G01X59222Y4780D01*
G01X59242Y4776D01*
G01X59279Y4778D01*
G01X59305Y4784D01*
G01X59321Y4793D01*
G01X59326Y4807D01*
G01X59318Y4829D01*
G01X59293Y4856D01*
G01X59252Y4887D01*
G01X59194Y4923D01*
G01X59033Y5019D01*
G01X58893Y5112D01*
G01X58775Y5202D01*
G01X58678Y5288D01*
G01X58603Y5370D01*
G01X58549Y5450D01*
G01X58517Y5526D01*
G01X58506Y5599D01*
G01X58510Y5632D01*
G01X58525Y5661D01*
G01X58549Y5686D01*
G01X58582Y5708D01*
G01X58618Y5723D01*
G01X58658Y5733D01*
G01X58700Y5739D01*
G01X58747Y5741D01*
G01X58850Y5734D01*
G01X58955Y5713D01*
G01X59063Y5678D01*
G01X59173Y5630D01*
G01X59286Y5567D01*
G01X59401Y5490D01*
G01X59519Y5399D01*
G01X59639Y5294D01*
G01X59683Y5253D01*
G01X59719Y5224D01*
G01X59744Y5206D01*
G01X59761Y5200D01*
G01X59791Y5205D01*
G01X59812Y5219D01*
G01X59825Y5243D01*
G01X59829Y5277D01*
G01X59786Y5353D01*
G01X59656Y5470D01*
G01X59540Y5557D01*
G01X59424Y5633D01*
G01X59311Y5697D01*
G01X59198Y5749D01*
G01X59087Y5791D01*
G01X58977Y5820D01*
G01X58869Y5837D01*
G37*

%LPD*%
G36*
G01X55314Y5847D02*
G01X55232Y5868D01*
G01X55195Y5862D01*
G01X55161Y5843D01*
G01X55129Y5812D01*
G01X55100Y5769D01*
G01X55082Y5737D01*
G01X55067Y5704D01*
G01X55056Y5671D01*
G01X55046Y5637D01*
G01X55033Y5566D01*
G01X55020Y5480D01*
G01X55008Y5379D01*
G01X54996Y5262D01*
G01X54984Y5131D01*
G01X54973Y4984D01*
G01X54850Y4963D01*
G01X54763Y4923D01*
G01X54711Y4865D01*
G01X54693Y4789D01*
G01X54696Y4759D01*
G01X54706Y4735D01*
G01X54722Y4715D01*
G01X54744Y4700D01*
G01X54772Y4691D01*
G01X54792Y4695D01*
G01X54804Y4713D01*
G01X54808Y4743D01*
G01X54807Y4748D01*
G01X54804Y4757D01*
G01X54799Y4771D01*
G01X54792Y4789D01*
G01X54839Y4846D01*
G01X54978Y4865D01*
G01X54971Y4863D01*
G01X54965Y4857D01*
G01X54959Y4846D01*
G01X54955Y4832D01*
G01X54924Y4634D01*
G01X54892Y4472D01*
G01X54859Y4346D01*
G01X54825Y4256D01*
G01X54790Y4202D01*
G01X54754Y4184D01*
G01X54743Y4185D01*
G01X54732Y4188D01*
G01X54721Y4193D01*
G01X54711Y4200D01*
G01X54697Y4210D01*
G01X54686Y4218D01*
G01X54677Y4224D01*
G01X54670Y4227D01*
G01X54664Y4230D01*
G01X54654Y4232D01*
G01X54650Y4233D01*
G01X54627Y4230D01*
G01X54610Y4219D01*
G01X54600Y4201D01*
G01X54597Y4174D01*
G01X54601Y4155D01*
G01X54613Y4137D01*
G01X54632Y4120D01*
G01X54660Y4106D01*
G01X54685Y4096D01*
G01X54709Y4089D01*
G01X54731Y4086D01*
G01X54752Y4085D01*
G01X54814Y4097D01*
G01X54870Y4134D01*
G01X54921Y4194D01*
G01X54966Y4279D01*
G01X55005Y4389D01*
G01X55039Y4523D01*
G01X55067Y4680D01*
G01X55090Y4862D01*
G01X55104Y4863D01*
G01X55120Y4865D01*
G01X55156Y4865D01*
G01X55229Y4861D01*
G01X55320Y4850D01*
G01X55428Y4830D01*
G01X55554Y4804D01*
G01X55741Y4758D01*
G01X55808Y4730D01*
G01X55836Y4663D01*
G01X55871Y4581D01*
G01X55912Y4482D01*
G01X55961Y4370D01*
G01X56011Y4240D01*
G01X56075Y4075D01*
G01X56104Y4015D01*
G01X56134Y3972D01*
G01X56164Y3947D01*
G01X56197Y3938D01*
G01X56229Y3943D01*
G01X56252Y3959D01*
G01X56266Y3985D01*
G01X56271Y4022D01*
G01X56257Y4065D01*
G01X56215Y4159D01*
G01X56145Y4304D01*
G01X56047Y4499D01*
G01X56020Y4552D01*
G01X55998Y4598D01*
G01X55980Y4637D01*
G01X55966Y4669D01*
G01X56003Y4654D01*
G01X56037Y4637D01*
G01X56069Y4620D01*
G01X56098Y4601D01*
G01X56111Y4594D01*
G01X56125Y4590D01*
G01X56140Y4587D01*
G01X56156Y4586D01*
G01X56187Y4590D01*
G01X56210Y4603D01*
G01X56223Y4626D01*
G01X56227Y4657D01*
G01X56219Y4681D01*
G01X56192Y4706D01*
G01X56149Y4732D01*
G01X56088Y4758D01*
G01X55994Y4789D01*
G01X55902Y4819D01*
G01X55884Y4858D01*
G01X55864Y4900D01*
G01X55843Y4944D01*
G01X55821Y4992D01*
G01X55775Y5095D01*
G01X55717Y5219D01*
G01X55648Y5365D01*
G01X55567Y5533D01*
G01X55481Y5680D01*
G01X55397Y5785D01*
G01X55314Y5847D01*
G37*

%LPC*%
G36*
G01X55305Y5727D02*
G01X55262Y5751D01*
G01X55228Y5732D01*
G01X55197Y5674D01*
G01X55168Y5577D01*
G01X55143Y5442D01*
G01X55128Y5299D01*
G01X55115Y5177D01*
G01X55106Y5076D01*
G01X55100Y4995D01*
G01X55198Y4985D01*
G01X55299Y4972D01*
G01X55402Y4954D01*
G01X55510Y4933D01*
G01X55619Y4906D01*
G01X55732Y4875D01*
G01X55666Y5032D01*
G01X55609Y5163D01*
G01X55561Y5269D01*
G01X55524Y5350D01*
G01X55436Y5526D01*
G01X55363Y5651D01*
G01X55305Y5727D01*
G37*

%LPD*%
G36*
G01X57294Y5382D02*
G01X57259Y5388D01*
G01X57225Y5379D01*
G01X57198Y5352D01*
G01X57179Y5307D01*
G01X57167Y5243D01*
G01X57165Y5226D01*
G01X57146Y5081D01*
G01X57127Y4967D01*
G01X57107Y4883D01*
G01X57086Y4829D01*
G01X57075Y4790D01*
G01X57067Y4711D01*
G01X57062Y4593D01*
G01X57061Y4436D01*
G01X57065Y4328D01*
G01X57076Y4220D01*
G01X57096Y4113D01*
G01X57124Y4004D01*
G01X57159Y3896D01*
G01X57203Y3788D01*
G01X57272Y3652D01*
G01X57351Y3541D01*
G01X57438Y3455D01*
G01X57534Y3393D01*
G01X57638Y3356D01*
G01X57751Y3344D01*
G01X57852Y3355D01*
G01X57947Y3387D01*
G01X58037Y3442D01*
G01X58122Y3519D01*
G01X58231Y3664D01*
G01X58267Y3796D01*
G01X58264Y3821D01*
G01X58254Y3839D01*
G01X58239Y3851D01*
G01X58216Y3854D01*
G01X58204Y3852D01*
G01X58193Y3843D01*
G01X58184Y3830D01*
G01X58176Y3811D01*
G01X58172Y3796D01*
G01X58168Y3780D01*
G01X58163Y3764D01*
G01X58158Y3747D01*
G01X58135Y3691D01*
G01X58105Y3639D01*
G01X58068Y3592D01*
G01X58026Y3552D01*
G01X57976Y3516D01*
G01X57924Y3488D01*
G01X57868Y3470D01*
G01X57810Y3460D01*
G01X57712Y3462D01*
G01X57621Y3486D01*
G01X57538Y3532D01*
G01X57461Y3598D01*
G01X57392Y3686D01*
G01X57330Y3796D01*
G01X57286Y3895D01*
G01X57250Y3997D01*
G01X57221Y4104D01*
G01X57201Y4213D01*
G01X57189Y4327D01*
G01X57185Y4443D01*
G01X57190Y4572D01*
G01X57203Y4716D01*
G01X57225Y4875D01*
G01X57256Y5048D01*
G01X57315Y4902D01*
G01X57367Y4776D01*
G01X57415Y4669D01*
G01X57457Y4583D01*
G01X57538Y4445D01*
G01X57617Y4340D01*
G01X57697Y4268D01*
G01X57774Y4227D01*
G01X57788Y4223D01*
G01X57801Y4220D01*
G01X57813Y4218D01*
G01X57825Y4217D01*
G01X57928Y4270D01*
G01X57962Y4428D01*
G01X57956Y4536D01*
G01X57937Y4663D01*
G01X57905Y4810D01*
G01X57861Y4977D01*
G01X57809Y5139D01*
G01X57761Y5257D01*
G01X57716Y5329D01*
G01X57675Y5355D01*
G01X57661Y5355D01*
G01X57646Y5351D01*
G01X57631Y5345D01*
G01X57614Y5335D01*
G01X57601Y5322D01*
G01X57591Y5310D01*
G01X57586Y5298D01*
G01X57584Y5287D01*
G01X57584Y5281D01*
G01X57586Y5274D01*
G01X57669Y5127D01*
G01X57744Y4946D01*
G01X57789Y4811D01*
G01X57820Y4682D01*
G01X57839Y4558D01*
G01X57845Y4441D01*
G01X57843Y4388D01*
G01X57837Y4349D01*
G01X57826Y4327D01*
G01X57810Y4319D01*
G01X57785Y4329D01*
G01X57752Y4357D01*
G01X57712Y4405D01*
G01X57665Y4471D01*
G01X57641Y4508D01*
G01X57617Y4548D01*
G01X57593Y4589D01*
G01X57569Y4634D01*
G01X57478Y4786D01*
G01X57408Y4924D01*
G01X57359Y5049D01*
G01X57332Y5160D01*
G01X57328Y5196D01*
G01X57327Y5229D01*
G01X57327Y5262D01*
G01X57330Y5292D01*
G01X57329Y5334D01*
G01X57317Y5364D01*
G01X57294Y5382D01*
G37*

%LPD*%
G36*
G01X52455Y5390D02*
G01X52387Y5401D01*
G01X52348Y5395D01*
G01X52315Y5379D01*
G01X52285Y5352D01*
G01X52260Y5315D01*
G01X52244Y5282D01*
G01X52233Y5248D01*
G01X52226Y5214D01*
G01X52224Y5180D01*
G01X52229Y5127D01*
G01X52240Y5089D01*
G01X52260Y5066D01*
G01X52288Y5058D01*
G01X52322Y5067D01*
G01X52346Y5094D01*
G01X52357Y5139D01*
G01X52357Y5243D01*
G01X52362Y5271D01*
G01X52373Y5289D01*
G01X52390Y5294D01*
G01X52447Y5281D01*
G01X52515Y5242D01*
G01X52591Y5177D01*
G01X52677Y5086D01*
G01X52796Y4939D01*
G01X52887Y4804D01*
G01X52917Y4766D01*
G01X52946Y4721D01*
G01X52976Y4670D01*
G01X53007Y4611D01*
G01X53039Y4541D01*
G01X53062Y4479D01*
G01X53076Y4425D01*
G01X53080Y4377D01*
G01X53079Y4350D01*
G01X53075Y4332D01*
G01X53069Y4320D01*
G01X53060Y4316D01*
G01X52939Y4362D01*
G01X52788Y4497D01*
G01X52747Y4542D01*
G01X52688Y4613D01*
G01X52610Y4709D01*
G01X52514Y4829D01*
G01X52399Y4965D01*
G01X52331Y5010D01*
G01X52287Y4992D01*
G01X52248Y4939D01*
G01X52214Y4850D01*
G01X52186Y4725D01*
G01X52161Y4537D01*
G01X52153Y4352D01*
G01X52158Y4204D01*
G01X52173Y4064D01*
G01X52199Y3931D01*
G01X52234Y3805D01*
G01X52279Y3687D01*
G01X52334Y3577D01*
G01X52428Y3439D01*
G01X52531Y3339D01*
G01X52643Y3280D01*
G01X52763Y3260D01*
G01X52850Y3270D01*
G01X52934Y3300D01*
G01X53014Y3351D01*
G01X53091Y3422D01*
G01X53155Y3506D01*
G01X53201Y3592D01*
G01X53229Y3680D01*
G01X53238Y3770D01*
G01X53234Y3807D01*
G01X53224Y3833D01*
G01X53206Y3849D01*
G01X53182Y3854D01*
G01X53164Y3851D01*
G01X53152Y3842D01*
G01X53144Y3827D01*
G01X53141Y3806D01*
G01X53118Y3650D01*
G01X53035Y3511D01*
G01X52917Y3414D01*
G01X52786Y3382D01*
G01X52696Y3393D01*
G01X52614Y3428D01*
G01X52540Y3486D01*
G01X52474Y3567D01*
G01X52416Y3671D01*
G01X52367Y3798D01*
G01X52329Y3932D01*
G01X52302Y4066D01*
G01X52286Y4199D01*
G01X52280Y4332D01*
G01X52286Y4564D01*
G01X52304Y4730D01*
G01X52333Y4829D01*
G01X52374Y4862D01*
G01X52380Y4857D01*
G01X52394Y4840D01*
G01X52413Y4811D01*
G01X52440Y4771D01*
G01X52523Y4648D01*
G01X52591Y4550D01*
G01X52646Y4474D01*
G01X52687Y4423D01*
G01X52776Y4330D01*
G01X52862Y4263D01*
G01X52944Y4223D01*
G01X53022Y4210D01*
G01X53062Y4213D01*
G01X53096Y4225D01*
G01X53126Y4244D01*
G01X53152Y4271D01*
G01X53168Y4299D01*
G01X53180Y4330D01*
G01X53187Y4364D01*
G01X53190Y4400D01*
G01X53181Y4484D01*
G01X53156Y4575D01*
G01X53113Y4675D01*
G01X53054Y4782D01*
G01X52978Y4897D01*
G01X52885Y5020D01*
G01X52786Y5136D01*
G01X52694Y5232D01*
G01X52608Y5305D01*
G01X52528Y5359D01*
G01X52455Y5390D01*
G37*

%LPD*%

%LPD*%
G36*
G01X49268Y2616D02*
G01X49253Y2617D01*
G01X49219Y2612D01*
G01X49196Y2597D01*
G01X49181Y2571D01*
G01X49176Y2536D01*
G01X49182Y2500D01*
G01X49196Y2475D01*
G01X49221Y2460D01*
G01X49255Y2455D01*
G01X49270Y2456D01*
G01X49284Y2461D01*
G01X49297Y2469D01*
G01X49309Y2480D01*
G01X49319Y2494D01*
G01X49326Y2507D01*
G01X49330Y2521D01*
G01X49331Y2533D01*
G01X49330Y2548D01*
G01X49326Y2561D01*
G01X49319Y2575D01*
G01X49309Y2589D01*
G01X49296Y2601D01*
G01X49283Y2610D01*
G01X49268Y2616D01*
G37*

%LPD*%
G36*
G01X63605Y2461D02*
G01X63578Y2465D01*
G01X63542Y2461D01*
G01X63515Y2452D01*
G01X63500Y2435D01*
G01X63494Y2411D01*
G01X63498Y2379D01*
G01X63511Y2356D01*
G01X63532Y2342D01*
G01X63560Y2338D01*
G01X63595Y2342D01*
G01X63619Y2355D01*
G01X63634Y2376D01*
G01X63639Y2406D01*
G01X63636Y2432D01*
G01X63624Y2450D01*
G01X63605Y2461D01*
G37*

%LPD*%
G36*
G01X65784Y3026D02*
G01X65633Y3031D01*
G01X65508Y3023D01*
G01X65397Y2996D01*
G01X65301Y2951D01*
G01X65219Y2889D01*
G01X65154Y2814D01*
G01X65108Y2727D01*
G01X65081Y2629D01*
G01X65074Y2521D01*
G01X65089Y2413D01*
G01X65130Y2302D01*
G01X65200Y2189D01*
G01X65298Y2074D01*
G01X65401Y1976D01*
G01X65507Y1896D01*
G01X65614Y1835D01*
G01X65722Y1792D01*
G01X65909Y1740D01*
G01X66037Y1723D01*
G01X66074Y1726D01*
G01X66109Y1733D01*
G01X66143Y1744D01*
G01X66177Y1761D01*
G01X66213Y1788D01*
G01X66240Y1818D01*
G01X66255Y1852D01*
G01X66260Y1891D01*
G01X66258Y1912D01*
G01X66253Y1931D01*
G01X66243Y1950D01*
G01X66230Y1967D01*
G01X66164Y1967D01*
G01X66160Y1915D01*
G01X66143Y1877D01*
G01X66113Y1855D01*
G01X66070Y1848D01*
G01X65975Y1854D01*
G01X65880Y1873D01*
G01X65784Y1905D01*
G01X65688Y1950D01*
G01X65592Y2008D01*
G01X65496Y2079D01*
G01X65403Y2159D01*
G01X65328Y2241D01*
G01X65269Y2325D01*
G01X65227Y2410D01*
G01X65202Y2498D01*
G01X65194Y2587D01*
G01X65233Y2739D01*
G01X65351Y2848D01*
G01X65501Y2906D01*
G01X65684Y2924D01*
G01X65815Y2915D01*
G01X65947Y2887D01*
G01X66079Y2840D01*
G01X66212Y2775D01*
G01X66303Y2720D01*
G01X66408Y2648D01*
G01X66528Y2559D01*
G01X66662Y2452D01*
G01X66686Y2433D01*
G01X66705Y2420D01*
G01X66720Y2411D01*
G01X66730Y2409D01*
G01X66746Y2410D01*
G01X66761Y2415D01*
G01X66776Y2423D01*
G01X66791Y2434D01*
G01X66804Y2448D01*
G01X66812Y2463D01*
G01X66818Y2477D01*
G01X66819Y2493D01*
G01X66814Y2508D01*
G01X66799Y2530D01*
G01X66775Y2557D01*
G01X66741Y2589D01*
G01X66711Y2617D01*
G01X66684Y2640D01*
G01X66659Y2660D01*
G01X66636Y2676D01*
G01X66493Y2767D01*
G01X66369Y2842D01*
G01X66262Y2900D01*
G01X66174Y2940D01*
G01X66055Y2980D01*
G01X65925Y3008D01*
G01X65784Y3026D01*
G37*

%LPD*%
G36*
G01X51659Y2462D02*
G01X51536Y2475D01*
G01X51376Y2447D01*
G01X51226Y2366D01*
G01X51154Y2301D01*
G01X51097Y2227D01*
G01X51056Y2144D01*
G01X51031Y2051D01*
G01X51027Y2005D01*
G01X51026Y1982D01*
G01X51026Y1959D01*
G01X51051Y1782D01*
G01X51127Y1637D01*
G01X51251Y1546D01*
G01X51396Y1553D01*
G01X51463Y1622D01*
G01X51485Y1764D01*
G01X51604Y1627D01*
G01X51710Y1529D01*
G01X51802Y1471D01*
G01X51882Y1451D01*
G01X51917Y1457D01*
G01X51943Y1476D01*
G01X51958Y1506D01*
G01X51963Y1548D01*
G01X51948Y1646D01*
G01X51902Y1756D01*
G01X51826Y1880D01*
G01X51719Y2015D01*
G01X51606Y2136D01*
G01X51509Y2211D01*
G01X51427Y2241D01*
G01X51361Y2226D01*
G01X51345Y2210D01*
G01X51334Y2189D01*
G01X51327Y2162D01*
G01X51325Y2129D01*
G01X51329Y2090D01*
G01X51341Y2061D01*
G01X51360Y2042D01*
G01X51366Y2040D01*
G01X51352Y2030D01*
G01X51344Y2012D01*
G01X51346Y1985D01*
G01X51380Y1800D01*
G01X51391Y1708D01*
G01X51389Y1673D01*
G01X51383Y1646D01*
G01X51372Y1628D01*
G01X51356Y1619D01*
G01X51348Y1618D01*
G01X51334Y1616D01*
G01X51328Y1616D01*
G01X51283Y1625D01*
G01X51242Y1651D01*
G01X51205Y1694D01*
G01X51173Y1754D01*
G01X51134Y1893D01*
G01X51142Y2043D01*
G01X51196Y2192D01*
G01X51290Y2305D01*
G01X51405Y2371D01*
G01X51536Y2394D01*
G01X51641Y2382D01*
G01X51742Y2348D01*
G01X51840Y2291D01*
G01X51935Y2211D01*
G01X52015Y2118D01*
G01X52072Y2020D01*
G01X52107Y1918D01*
G01X52118Y1809D01*
G01X52106Y1695D01*
G01X52069Y1591D01*
G01X52008Y1497D01*
G01X51922Y1413D01*
G01X51827Y1350D01*
G01X51724Y1304D01*
G01X51612Y1278D01*
G01X51493Y1268D01*
G01X51309Y1295D01*
G01X51158Y1375D01*
G01X51055Y1495D01*
G01X51020Y1642D01*
G01X51022Y1670D01*
G01X51026Y1698D01*
G01X51032Y1727D01*
G01X51041Y1756D01*
G01X51043Y1766D01*
G01X51043Y1774D01*
G01X51042Y1788D01*
G01X51037Y1798D01*
G01X51029Y1805D01*
G01X51018Y1809D01*
G01X51006Y1809D01*
G01X50996Y1805D01*
G01X50987Y1796D01*
G01X50980Y1781D01*
G01X50960Y1735D01*
G01X50946Y1689D01*
G01X50937Y1643D01*
G01X50934Y1599D01*
G01X50945Y1510D01*
G01X50979Y1430D01*
G01X51034Y1359D01*
G01X51112Y1296D01*
G01X51198Y1248D01*
G01X51290Y1213D01*
G01X51388Y1192D01*
G01X51493Y1185D01*
G01X51627Y1195D01*
G01X51752Y1225D01*
G01X51870Y1276D01*
G01X51981Y1347D01*
G01X52085Y1445D01*
G01X52160Y1554D01*
G01X52205Y1676D01*
G01X52219Y1809D01*
G01X52206Y1934D01*
G01X52165Y2053D01*
G01X52096Y2166D01*
G01X52001Y2272D01*
G01X51891Y2361D01*
G01X51777Y2424D01*
G01X51659Y2462D01*
G37*

%LPC*%
G36*
G01X51462Y2138D02*
G01X51418Y2158D01*
G01X51419Y2156D01*
G01X51419Y2152D01*
G01X51420Y2137D01*
G01X51423Y2120D01*
G01X51428Y2103D01*
G01X51435Y2084D01*
G01X51437Y2074D01*
G01X51437Y2065D01*
G01X51435Y2056D01*
G01X51429Y2048D01*
G01X51421Y2041D01*
G01X51434Y2034D01*
G01X51445Y2020D01*
G01X51450Y2000D01*
G01X51457Y1967D01*
G01X51472Y1931D01*
G01X51492Y1893D01*
G01X51521Y1853D01*
G01X51548Y1821D01*
G01X51574Y1789D01*
G01X51601Y1758D01*
G01X51628Y1726D01*
G01X51767Y1577D01*
G01X51854Y1527D01*
G01X51866Y1529D01*
G01X51874Y1535D01*
G01X51880Y1545D01*
G01X51882Y1558D01*
G01X51869Y1613D01*
G01X51833Y1688D01*
G01X51773Y1782D01*
G01X51689Y1896D01*
G01X51599Y2005D01*
G01X51523Y2086D01*
G01X51462Y2138D01*
G37*

%LPD*%
G36*
G01X56390Y2100D02*
G01X56342Y2114D01*
G01X56240Y2070D01*
G01X56179Y1936D01*
G01X56167Y1801D01*
G01X56154Y1665D01*
G01X56144Y1566D01*
G01X56136Y1491D01*
G01X56129Y1440D01*
G01X56126Y1413D01*
G01X56085Y1263D01*
G01X56029Y1213D01*
G01X56015Y1216D01*
G01X55998Y1225D01*
G01X55979Y1241D01*
G01X55956Y1263D01*
G01X55902Y1246D01*
G01X55904Y1219D01*
G01X55913Y1195D01*
G01X55929Y1173D01*
G01X55951Y1154D01*
G01X55970Y1142D01*
G01X55989Y1133D01*
G01X56008Y1128D01*
G01X56024Y1126D01*
G01X56088Y1139D01*
G01X56144Y1178D01*
G01X56191Y1242D01*
G01X56228Y1333D01*
G01X56258Y1449D01*
G01X56278Y1591D01*
G01X56289Y1721D01*
G01X56306Y1893D01*
G01X56315Y1945D01*
G01X56326Y1981D01*
G01X56336Y2003D01*
G01X56347Y2010D01*
G01X56380Y1991D01*
G01X56431Y1934D01*
G01X56499Y1840D01*
G01X56586Y1708D01*
G01X56674Y1561D01*
G01X56748Y1420D01*
G01X56809Y1284D01*
G01X56855Y1154D01*
G01X56867Y1124D01*
G01X56883Y1103D01*
G01X56903Y1090D01*
G01X56926Y1086D01*
G01X56953Y1090D01*
G01X56972Y1101D01*
G01X56983Y1121D01*
G01X56984Y1149D01*
G01X56978Y1196D01*
G01X56961Y1312D01*
G01X56893Y1756D01*
G01X56890Y1795D01*
G01X56887Y1842D01*
G01X56882Y1896D01*
G01X56878Y1957D01*
G01X56869Y2008D01*
G01X56852Y2045D01*
G01X56827Y2066D01*
G01X56794Y2074D01*
G01X56774Y2072D01*
G01X56758Y2066D01*
G01X56745Y2056D01*
G01X56735Y2043D01*
G01X56730Y2027D01*
G01X56726Y2010D01*
G01X56722Y1994D01*
G01X56718Y1977D01*
G01X56802Y1553D01*
G01X56776Y1596D01*
G01X56680Y1755D01*
G01X56592Y1884D01*
G01X56515Y1985D01*
G01X56447Y2057D01*
G01X56390Y2100D01*
G37*

%LPD*%
G36*
G01X48398Y2292D02*
G01X48331Y2305D01*
G01X48224Y2274D01*
G01X48173Y2183D01*
G01X48172Y2151D01*
G01X48179Y2127D01*
G01X48195Y2114D01*
G01X48221Y2109D01*
G01X48231Y2110D01*
G01X48239Y2113D01*
G01X48245Y2118D01*
G01X48249Y2124D01*
G01X48253Y2131D01*
G01X48256Y2140D01*
G01X48260Y2149D01*
G01X48262Y2160D01*
G01X48265Y2178D01*
G01X48269Y2190D01*
G01X48277Y2199D01*
G01X48288Y2204D01*
G01X48303Y2206D01*
G01X48381Y2168D01*
G01X48480Y2056D01*
G01X48589Y1888D01*
G01X48658Y1736D01*
G01X48699Y1571D01*
G01X48709Y1383D01*
G01X48709Y1365D01*
G01X48707Y1321D01*
G01X48703Y1249D01*
G01X48699Y1149D01*
G01X48700Y1136D01*
G01X48706Y1124D01*
G01X48715Y1111D01*
G01X48727Y1098D01*
G01X48741Y1088D01*
G01X48755Y1081D01*
G01X48769Y1077D01*
G01X48783Y1075D01*
G01X48818Y1083D01*
G01X48841Y1106D01*
G01X48853Y1145D01*
G01X48854Y1200D01*
G01X48843Y1338D01*
G01X48835Y1464D01*
G01X48830Y1578D01*
G01X48828Y1680D01*
G01X48830Y1782D01*
G01X48835Y1891D01*
G01X48843Y2007D01*
G01X48854Y2129D01*
G01X48853Y2144D01*
G01X48849Y2158D01*
G01X48841Y2173D01*
G01X48828Y2188D01*
G01X48815Y2200D01*
G01X48801Y2209D01*
G01X48787Y2214D01*
G01X48773Y2216D01*
G01X48751Y2213D01*
G01X48732Y2205D01*
G01X48717Y2190D01*
G01X48704Y2170D01*
G01X48698Y2153D01*
G01X48694Y2137D01*
G01X48693Y2121D01*
G01X48694Y2107D01*
G01X48701Y2034D01*
G01X48707Y1967D01*
G01X48709Y1908D01*
G01X48709Y1855D01*
G01X48650Y1992D01*
G01X48589Y2105D01*
G01X48527Y2192D01*
G01X48463Y2255D01*
G01X48398Y2292D01*
G37*

%LPD*%
G36*
G01X53374Y2292D02*
G01X53306Y2305D01*
G01X53200Y2274D01*
G01X53149Y2183D01*
G01X53147Y2151D01*
G01X53155Y2127D01*
G01X53171Y2114D01*
G01X53197Y2109D01*
G01X53206Y2110D01*
G01X53215Y2113D01*
G01X53221Y2118D01*
G01X53225Y2124D01*
G01X53229Y2131D01*
G01X53235Y2149D01*
G01X53238Y2160D01*
G01X53240Y2178D01*
G01X53245Y2190D01*
G01X53253Y2199D01*
G01X53264Y2204D01*
G01X53279Y2206D01*
G01X53357Y2168D01*
G01X53456Y2056D01*
G01X53565Y1888D01*
G01X53634Y1736D01*
G01X53675Y1571D01*
G01X53685Y1383D01*
G01X53684Y1365D01*
G01X53682Y1321D01*
G01X53679Y1249D01*
G01X53675Y1149D01*
G01X53676Y1136D01*
G01X53682Y1124D01*
G01X53691Y1111D01*
G01X53703Y1098D01*
G01X53717Y1088D01*
G01X53731Y1081D01*
G01X53745Y1077D01*
G01X53759Y1075D01*
G01X53794Y1083D01*
G01X53817Y1106D01*
G01X53829Y1145D01*
G01X53830Y1200D01*
G01X53818Y1338D01*
G01X53809Y1464D01*
G01X53803Y1578D01*
G01X53802Y1680D01*
G01X53803Y1782D01*
G01X53809Y1891D01*
G01X53818Y2007D01*
G01X53830Y2129D01*
G01X53829Y2144D01*
G01X53825Y2158D01*
G01X53817Y2173D01*
G01X53804Y2188D01*
G01X53791Y2200D01*
G01X53776Y2209D01*
G01X53763Y2214D01*
G01X53748Y2216D01*
G01X53727Y2213D01*
G01X53708Y2205D01*
G01X53693Y2190D01*
G01X53680Y2170D01*
G01X53674Y2153D01*
G01X53670Y2137D01*
G01X53669Y2121D01*
G01X53670Y2107D01*
G01X53677Y2034D01*
G01X53682Y1967D01*
G01X53685Y1908D01*
G01X53685Y1855D01*
G01X53626Y1992D01*
G01X53565Y2105D01*
G01X53503Y2192D01*
G01X53439Y2255D01*
G01X53374Y2292D01*
G37*

%LPD*%
G36*
G01X64654Y2292D02*
G01X64587Y2305D01*
G01X64480Y2274D01*
G01X64429Y2183D01*
G01X64428Y2151D01*
G01X64436Y2127D01*
G01X64453Y2114D01*
G01X64480Y2109D01*
G01X64489Y2110D01*
G01X64496Y2113D01*
G01X64502Y2118D01*
G01X64508Y2124D01*
G01X64510Y2131D01*
G01X64516Y2149D01*
G01X64518Y2160D01*
G01X64521Y2178D01*
G01X64526Y2190D01*
G01X64534Y2199D01*
G01X64545Y2204D01*
G01X64559Y2206D01*
G01X64639Y2168D01*
G01X64736Y2056D01*
G01X64845Y1888D01*
G01X64917Y1736D01*
G01X64956Y1571D01*
G01X64968Y1383D01*
G01X64967Y1365D01*
G01X64965Y1321D01*
G01X64962Y1249D01*
G01X64957Y1149D01*
G01X64959Y1136D01*
G01X64965Y1124D01*
G01X64973Y1111D01*
G01X64985Y1098D01*
G01X65000Y1088D01*
G01X65013Y1081D01*
G01X65028Y1077D01*
G01X65041Y1075D01*
G01X65075Y1083D01*
G01X65098Y1106D01*
G01X65109Y1145D01*
G01X65110Y1200D01*
G01X65099Y1338D01*
G01X65091Y1464D01*
G01X65086Y1578D01*
G01X65084Y1680D01*
G01X65086Y1782D01*
G01X65091Y1891D01*
G01X65099Y2007D01*
G01X65110Y2129D01*
G01X65109Y2144D01*
G01X65105Y2158D01*
G01X65098Y2173D01*
G01X65087Y2188D01*
G01X65073Y2200D01*
G01X65059Y2209D01*
G01X65045Y2214D01*
G01X65031Y2216D01*
G01X65009Y2213D01*
G01X64990Y2205D01*
G01X64974Y2190D01*
G01X64963Y2170D01*
G01X64955Y2153D01*
G01X64950Y2137D01*
G01X64949Y2121D01*
G01X64950Y2107D01*
G01X64957Y2034D01*
G01X64963Y1967D01*
G01X64967Y1908D01*
G01X64968Y1855D01*
G01X64908Y1992D01*
G01X64846Y2105D01*
G01X64784Y2192D01*
G01X64719Y2255D01*
G01X64654Y2292D01*
G37*

%LPD*%
G36*
G01X45865Y2231D02*
G01X45841Y2234D01*
G01X45739Y2211D01*
G01X45664Y2145D01*
G01X45618Y2033D01*
G01X45600Y1878D01*
G01X45608Y1783D01*
G01X45636Y1676D01*
G01X45684Y1555D01*
G01X45753Y1421D01*
G01X45846Y1275D01*
G01X45944Y1169D01*
G01X46046Y1101D01*
G01X46151Y1073D01*
G01X46210Y1074D01*
G01X46263Y1089D01*
G01X46309Y1116D01*
G01X46349Y1157D01*
G01X46379Y1202D01*
G01X46401Y1254D01*
G01X46414Y1311D01*
G01X46418Y1373D01*
G01X46411Y1485D01*
G01X46392Y1603D01*
G01X46360Y1724D01*
G01X46314Y1850D01*
G01X46213Y2043D01*
G01X46118Y2107D01*
G01X46082Y2102D01*
G01X46070Y2096D01*
G01X46064Y2118D01*
G01X46045Y2143D01*
G01X46013Y2168D01*
G01X45968Y2193D01*
G01X45928Y2211D01*
G01X45894Y2223D01*
G01X45865Y2231D01*
G37*

%LPC*%
G36*
G01X45886Y2136D02*
G01X45841Y2142D01*
G01X45754Y2084D01*
G01X45725Y1908D01*
G01X45734Y1821D01*
G01X45760Y1721D01*
G01X45805Y1608D01*
G01X45867Y1482D01*
G01X45948Y1347D01*
G01X46029Y1251D01*
G01X46113Y1194D01*
G01X46197Y1174D01*
G01X46279Y1230D01*
G01X46306Y1398D01*
G01X46293Y1529D01*
G01X46250Y1665D01*
G01X46181Y1806D01*
G01X46083Y1952D01*
G01X46061Y1981D01*
G01X46047Y2004D01*
G01X46038Y2023D01*
G01X46034Y2035D01*
G01X46037Y2051D01*
G01X46029Y2046D01*
G01X45980Y2088D01*
G01X45932Y2118D01*
G01X45886Y2136D01*
G37*

%LPD*%
G36*
G01X54298Y2231D02*
G01X54274Y2234D01*
G01X54172Y2211D01*
G01X54097Y2145D01*
G01X54051Y2033D01*
G01X54033Y1878D01*
G01X54041Y1783D01*
G01X54068Y1676D01*
G01X54117Y1555D01*
G01X54185Y1421D01*
G01X54279Y1275D01*
G01X54376Y1169D01*
G01X54478Y1101D01*
G01X54584Y1073D01*
G01X54643Y1074D01*
G01X54696Y1089D01*
G01X54742Y1116D01*
G01X54782Y1157D01*
G01X54812Y1202D01*
G01X54834Y1254D01*
G01X54847Y1311D01*
G01X54851Y1373D01*
G01X54844Y1485D01*
G01X54825Y1603D01*
G01X54792Y1724D01*
G01X54747Y1850D01*
G01X54646Y2043D01*
G01X54551Y2107D01*
G01X54515Y2102D01*
G01X54502Y2096D01*
G01X54497Y2118D01*
G01X54477Y2143D01*
G01X54446Y2168D01*
G01X54401Y2193D01*
G01X54361Y2211D01*
G01X54327Y2223D01*
G01X54298Y2231D01*
G37*

%LPC*%
G36*
G01X54318Y2136D02*
G01X54274Y2142D01*
G01X54187Y2084D01*
G01X54157Y1908D01*
G01X54167Y1821D01*
G01X54193Y1721D01*
G01X54238Y1608D01*
G01X54300Y1482D01*
G01X54380Y1347D01*
G01X54462Y1251D01*
G01X54545Y1194D01*
G01X54630Y1174D01*
G01X54712Y1230D01*
G01X54739Y1398D01*
G01X54725Y1529D01*
G01X54683Y1665D01*
G01X54614Y1806D01*
G01X54516Y1952D01*
G01X54494Y1981D01*
G01X54479Y2004D01*
G01X54470Y2023D01*
G01X54467Y2035D01*
G01X54470Y2051D01*
G01X54462Y2046D01*
G01X54412Y2088D01*
G01X54365Y2118D01*
G01X54318Y2136D01*
G37*

%LPD*%
G36*
G01X57376Y2231D02*
G01X57353Y2234D01*
G01X57250Y2211D01*
G01X57175Y2145D01*
G01X57129Y2033D01*
G01X57111Y1878D01*
G01X57119Y1783D01*
G01X57147Y1676D01*
G01X57195Y1555D01*
G01X57264Y1421D01*
G01X57357Y1275D01*
G01X57455Y1169D01*
G01X57557Y1101D01*
G01X57663Y1073D01*
G01X57722Y1074D01*
G01X57774Y1089D01*
G01X57821Y1116D01*
G01X57861Y1157D01*
G01X57891Y1202D01*
G01X57912Y1254D01*
G01X57925Y1311D01*
G01X57929Y1373D01*
G01X57923Y1485D01*
G01X57903Y1603D01*
G01X57871Y1724D01*
G01X57825Y1850D01*
G01X57724Y2043D01*
G01X57630Y2107D01*
G01X57593Y2102D01*
G01X57581Y2096D01*
G01X57575Y2118D01*
G01X57556Y2143D01*
G01X57524Y2168D01*
G01X57480Y2193D01*
G01X57440Y2211D01*
G01X57405Y2223D01*
G01X57376Y2231D01*
G37*

%LPC*%
G36*
G01X57397Y2136D02*
G01X57353Y2142D01*
G01X57265Y2084D01*
G01X57236Y1908D01*
G01X57245Y1821D01*
G01X57271Y1721D01*
G01X57316Y1608D01*
G01X57378Y1482D01*
G01X57459Y1347D01*
G01X57541Y1251D01*
G01X57624Y1194D01*
G01X57708Y1174D01*
G01X57790Y1230D01*
G01X57818Y1398D01*
G01X57804Y1529D01*
G01X57762Y1665D01*
G01X57692Y1806D01*
G01X57594Y1952D01*
G01X57573Y1981D01*
G01X57558Y2004D01*
G01X57549Y2023D01*
G01X57546Y2035D01*
G01X57548Y2051D01*
G01X57541Y2046D01*
G01X57491Y2088D01*
G01X57443Y2118D01*
G01X57397Y2136D01*
G37*

%LPD*%
G36*
G01X61646Y2252D02*
G01X61567Y2262D01*
G01X61543Y2259D01*
G01X61515Y2253D01*
G01X61482Y2242D01*
G01X61445Y2226D01*
G01X61399Y2202D01*
G01X61365Y2175D01*
G01X61344Y2146D01*
G01X61335Y2114D01*
G01X61336Y2101D01*
G01X61340Y2089D01*
G01X61347Y2078D01*
G01X61358Y2068D01*
G01X61370Y2062D01*
G01X61382Y2057D01*
G01X61392Y2054D01*
G01X61401Y2053D01*
G01X61419Y2056D01*
G01X61439Y2066D01*
G01X61459Y2082D01*
G01X61507Y2126D01*
G01X61531Y2142D01*
G01X61555Y2152D01*
G01X61579Y2155D01*
G01X61669Y2135D01*
G01X61759Y2074D01*
G01X61849Y1973D01*
G01X61940Y1832D01*
G01X62010Y1696D01*
G01X62060Y1575D01*
G01X62090Y1471D01*
G01X62100Y1383D01*
G01X62062Y1248D01*
G01X61948Y1202D01*
G01X61798Y1227D01*
G01X61650Y1301D01*
G01X61525Y1408D01*
G01X61419Y1543D01*
G01X61414Y1549D01*
G01X61409Y1554D01*
G01X61402Y1557D01*
G01X61396Y1558D01*
G01X61388Y1556D01*
G01X61379Y1552D01*
G01X61371Y1545D01*
G01X61363Y1535D01*
G01X61357Y1524D01*
G01X61353Y1514D01*
G01X61351Y1505D01*
G01X61351Y1497D01*
G01X61397Y1426D01*
G01X61511Y1306D01*
G01X61573Y1248D01*
G01X61621Y1204D01*
G01X61656Y1174D01*
G01X61678Y1159D01*
G01X61742Y1125D01*
G01X61792Y1100D01*
G01X61829Y1086D01*
G01X61854Y1080D01*
G01X61866Y1080D01*
G01X61877Y1079D01*
G01X61892Y1078D01*
G01X61906Y1076D01*
G01X61924Y1073D01*
G01X61927Y1073D01*
G01X62058Y1100D01*
G01X62151Y1182D01*
G01X62179Y1228D01*
G01X62199Y1281D01*
G01X62210Y1338D01*
G01X62214Y1403D01*
G01X62203Y1513D01*
G01X62168Y1635D01*
G01X62109Y1768D01*
G01X62026Y1914D01*
G01X61953Y2020D01*
G01X61878Y2107D01*
G01X61802Y2175D01*
G01X61725Y2223D01*
G01X61646Y2252D01*
G37*

%LPD*%
G36*
G01X64018Y2231D02*
G01X63995Y2234D01*
G01X63893Y2211D01*
G01X63819Y2145D01*
G01X63772Y2033D01*
G01X63754Y1878D01*
G01X63762Y1783D01*
G01X63791Y1676D01*
G01X63840Y1555D01*
G01X63908Y1421D01*
G01X64002Y1275D01*
G01X64099Y1169D01*
G01X64200Y1101D01*
G01X64305Y1073D01*
G01X64364Y1074D01*
G01X64417Y1089D01*
G01X64464Y1116D01*
G01X64505Y1157D01*
G01X64535Y1202D01*
G01X64557Y1254D01*
G01X64570Y1311D01*
G01X64574Y1373D01*
G01X64567Y1485D01*
G01X64548Y1603D01*
G01X64514Y1724D01*
G01X64467Y1850D01*
G01X64366Y2043D01*
G01X64272Y2107D01*
G01X64235Y2102D01*
G01X64223Y2096D01*
G01X64217Y2118D01*
G01X64198Y2143D01*
G01X64167Y2168D01*
G01X64122Y2193D01*
G01X64082Y2211D01*
G01X64047Y2223D01*
G01X64018Y2231D01*
G37*

%LPC*%
G36*
G01X64040Y2136D02*
G01X63995Y2142D01*
G01X63907Y2084D01*
G01X63878Y1908D01*
G01X63887Y1821D01*
G01X63914Y1721D01*
G01X63958Y1608D01*
G01X64020Y1482D01*
G01X64102Y1347D01*
G01X64184Y1251D01*
G01X64267Y1194D01*
G01X64350Y1174D01*
G01X64434Y1230D01*
G01X64462Y1398D01*
G01X64448Y1529D01*
G01X64406Y1665D01*
G01X64335Y1806D01*
G01X64236Y1952D01*
G01X64215Y1981D01*
G01X64200Y2004D01*
G01X64191Y2023D01*
G01X64188Y2035D01*
G01X64190Y2051D01*
G01X64183Y2046D01*
G01X64134Y2088D01*
G01X64086Y2118D01*
G01X64040Y2136D01*
G37*

%LPD*%
G36*
G01X47781Y2258D02*
G01X47683Y2279D01*
G01X47653Y2276D01*
G01X47627Y2265D01*
G01X47603Y2246D01*
G01X47584Y2221D01*
G01X47573Y2198D01*
G01X47565Y2175D01*
G01X47560Y2151D01*
G01X47558Y2127D01*
G01X47588Y1977D01*
G01X47678Y1804D01*
G01X47750Y1709D01*
G01X47828Y1641D01*
G01X47911Y1600D01*
G01X47998Y1586D01*
G01X48039Y1588D01*
G01X48074Y1596D01*
G01X48105Y1607D01*
G01X48130Y1624D01*
G01X48135Y1629D01*
G01X48148Y1612D01*
G01X48162Y1583D01*
G01X48176Y1542D01*
G01X48191Y1489D01*
G01X48204Y1434D01*
G01X48214Y1382D01*
G01X48219Y1333D01*
G01X48221Y1289D01*
G01X48185Y1205D01*
G01X48074Y1177D01*
G01X48000Y1187D01*
G01X47920Y1218D01*
G01X47834Y1270D01*
G01X47741Y1342D01*
G01X47657Y1423D01*
G01X47586Y1505D01*
G01X47528Y1588D01*
G01X47485Y1672D01*
G01X47439Y1672D01*
G01X47428Y1659D01*
G01X47422Y1646D01*
G01X47420Y1633D01*
G01X47421Y1621D01*
G01X47470Y1507D01*
G01X47533Y1402D01*
G01X47608Y1307D01*
G01X47698Y1223D01*
G01X47791Y1156D01*
G01X47884Y1108D01*
G01X47977Y1080D01*
G01X48069Y1070D01*
G01X48134Y1076D01*
G01X48189Y1094D01*
G01X48236Y1123D01*
G01X48275Y1164D01*
G01X48325Y1271D01*
G01X48336Y1408D01*
G01X48317Y1521D01*
G01X48274Y1647D01*
G01X48203Y1787D01*
G01X48107Y1939D01*
G01X47993Y2088D01*
G01X47884Y2194D01*
G01X47781Y2258D01*
G37*

%LPC*%
G36*
G01X47701Y2180D02*
G01X47682Y2181D01*
G01X47668Y2175D01*
G01X47660Y2160D01*
G01X47658Y2137D01*
G01X47690Y2001D01*
G01X47787Y1848D01*
G01X47914Y1725D01*
G01X48031Y1687D01*
G01X48060Y1691D01*
G01X48081Y1695D01*
G01X48093Y1701D01*
G01X48097Y1708D01*
G01X48078Y1755D01*
G01X48023Y1839D01*
G01X47930Y1958D01*
G01X47800Y2114D01*
G01X47776Y2139D01*
G01X47752Y2157D01*
G01X47727Y2172D01*
G01X47701Y2180D01*
G37*

%LPD*%
G36*
G01X62730Y2258D02*
G01X62631Y2279D01*
G01X62601Y2276D01*
G01X62575Y2265D01*
G01X62553Y2246D01*
G01X62534Y2221D01*
G01X62522Y2198D01*
G01X62513Y2175D01*
G01X62508Y2151D01*
G01X62506Y2127D01*
G01X62536Y1977D01*
G01X62626Y1804D01*
G01X62698Y1709D01*
G01X62776Y1641D01*
G01X62859Y1600D01*
G01X62948Y1586D01*
G01X62988Y1588D01*
G01X63022Y1596D01*
G01X63052Y1607D01*
G01X63078Y1624D01*
G01X63085Y1629D01*
G01X63098Y1612D01*
G01X63111Y1583D01*
G01X63125Y1542D01*
G01X63139Y1489D01*
G01X63152Y1434D01*
G01X63162Y1382D01*
G01X63167Y1333D01*
G01X63169Y1289D01*
G01X63133Y1205D01*
G01X63022Y1177D01*
G01X62948Y1187D01*
G01X62868Y1218D01*
G01X62782Y1270D01*
G01X62689Y1342D01*
G01X62605Y1423D01*
G01X62534Y1505D01*
G01X62478Y1588D01*
G01X62435Y1672D01*
G01X62390Y1672D01*
G01X62378Y1659D01*
G01X62371Y1646D01*
G01X62368Y1633D01*
G01X62369Y1621D01*
G01X62418Y1507D01*
G01X62481Y1402D01*
G01X62558Y1307D01*
G01X62649Y1223D01*
G01X62740Y1156D01*
G01X62832Y1108D01*
G01X62924Y1080D01*
G01X63017Y1070D01*
G01X63138Y1094D01*
G01X63225Y1164D01*
G01X63274Y1271D01*
G01X63284Y1408D01*
G01X63265Y1521D01*
G01X63222Y1647D01*
G01X63151Y1787D01*
G01X63055Y1939D01*
G01X62942Y2088D01*
G01X62834Y2194D01*
G01X62730Y2258D01*
G37*

%LPC*%
G36*
G01X62649Y2180D02*
G01X62631Y2181D01*
G01X62618Y2175D01*
G01X62611Y2160D01*
G01X62608Y2137D01*
G01X62640Y2001D01*
G01X62735Y1848D01*
G01X62862Y1725D01*
G01X62979Y1687D01*
G01X63008Y1691D01*
G01X63029Y1695D01*
G01X63041Y1701D01*
G01X63045Y1708D01*
G01X63026Y1755D01*
G01X62971Y1839D01*
G01X62878Y1958D01*
G01X62748Y2114D01*
G01X62724Y2139D01*
G01X62700Y2157D01*
G01X62675Y2172D01*
G01X62649Y2180D01*
G37*

%LPD*%
G36*
G01X55268Y2268D02*
G01X55186Y2282D01*
G01X55164Y2280D01*
G01X55140Y2274D01*
G01X55112Y2263D01*
G01X55082Y2249D01*
G01X55051Y2229D01*
G01X55029Y2208D01*
G01X55015Y2184D01*
G01X55011Y2160D01*
G01X55014Y2134D01*
G01X55023Y2114D01*
G01X55038Y2103D01*
G01X55059Y2099D01*
G01X55067Y2100D01*
G01X55079Y2106D01*
G01X55096Y2113D01*
G01X55118Y2124D01*
G01X55139Y2137D01*
G01X55158Y2145D01*
G01X55175Y2151D01*
G01X55189Y2152D01*
G01X55305Y2121D01*
G01X55460Y2010D01*
G01X55596Y1868D01*
G01X55641Y1746D01*
G01X55589Y1702D01*
G01X55432Y1687D01*
G01X55256Y1674D01*
G01X55130Y1632D01*
G01X55054Y1562D01*
G01X55029Y1464D01*
G01X55073Y1314D01*
G01X55206Y1179D01*
G01X55369Y1094D01*
G01X55532Y1065D01*
G01X55567Y1068D01*
G01X55600Y1076D01*
G01X55633Y1090D01*
G01X55664Y1108D01*
G01X55695Y1136D01*
G01X55717Y1167D01*
G01X55730Y1202D01*
G01X55735Y1240D01*
G01X55733Y1258D01*
G01X55728Y1276D01*
G01X55719Y1296D01*
G01X55707Y1317D01*
G01X55690Y1339D01*
G01X55673Y1355D01*
G01X55656Y1364D01*
G01X55638Y1367D01*
G01X55628Y1367D01*
G01X55618Y1365D01*
G01X55621Y1341D01*
G01X55625Y1320D01*
G01X55630Y1301D01*
G01X55636Y1286D01*
G01X55639Y1279D01*
G01X55641Y1270D01*
G01X55643Y1262D01*
G01X55643Y1253D01*
G01X55639Y1225D01*
G01X55624Y1205D01*
G01X55601Y1194D01*
G01X55567Y1190D01*
G01X55440Y1209D01*
G01X55295Y1266D01*
G01X55168Y1354D01*
G01X55125Y1446D01*
G01X55129Y1474D01*
G01X55140Y1500D01*
G01X55158Y1522D01*
G01X55184Y1543D01*
G01X55208Y1557D01*
G01X55234Y1568D01*
G01X55262Y1575D01*
G01X55290Y1578D01*
G01X55565Y1588D01*
G01X55599Y1591D01*
G01X55632Y1597D01*
G01X55665Y1605D01*
G01X55697Y1616D01*
G01X55736Y1636D01*
G01X55763Y1657D01*
G01X55780Y1681D01*
G01X55786Y1708D01*
G01X55772Y1783D01*
G01X55730Y1868D01*
G01X55660Y1963D01*
G01X55562Y2066D01*
G01X55456Y2160D01*
G01X55358Y2228D01*
G01X55268Y2268D01*
G37*

%LPD*%
G36*
G01X59412Y2268D02*
G01X59331Y2282D01*
G01X59309Y2280D01*
G01X59284Y2274D01*
G01X59257Y2263D01*
G01X59227Y2249D01*
G01X59195Y2229D01*
G01X59172Y2208D01*
G01X59158Y2184D01*
G01X59154Y2160D01*
G01X59157Y2134D01*
G01X59166Y2114D01*
G01X59182Y2103D01*
G01X59204Y2099D01*
G01X59211Y2100D01*
G01X59239Y2113D01*
G01X59260Y2124D01*
G01X59283Y2137D01*
G01X59303Y2145D01*
G01X59320Y2151D01*
G01X59334Y2152D01*
G01X59450Y2121D01*
G01X59606Y2010D01*
G01X59739Y1868D01*
G01X59783Y1746D01*
G01X59732Y1702D01*
G01X59575Y1687D01*
G01X59399Y1674D01*
G01X59274Y1632D01*
G01X59199Y1562D01*
G01X59174Y1464D01*
G01X59219Y1314D01*
G01X59352Y1179D01*
G01X59514Y1094D01*
G01X59677Y1065D01*
G01X59712Y1068D01*
G01X59745Y1076D01*
G01X59778Y1090D01*
G01X59809Y1108D01*
G01X59840Y1136D01*
G01X59862Y1167D01*
G01X59875Y1202D01*
G01X59880Y1240D01*
G01X59878Y1258D01*
G01X59873Y1276D01*
G01X59864Y1296D01*
G01X59852Y1317D01*
G01X59835Y1339D01*
G01X59818Y1355D01*
G01X59800Y1364D01*
G01X59781Y1367D01*
G01X59771Y1367D01*
G01X59761Y1365D01*
G01X59765Y1341D01*
G01X59770Y1320D01*
G01X59775Y1301D01*
G01X59781Y1286D01*
G01X59784Y1279D01*
G01X59787Y1270D01*
G01X59788Y1262D01*
G01X59789Y1253D01*
G01X59783Y1225D01*
G01X59769Y1205D01*
G01X59744Y1194D01*
G01X59710Y1190D01*
G01X59582Y1209D01*
G01X59438Y1266D01*
G01X59311Y1354D01*
G01X59268Y1446D01*
G01X59271Y1474D01*
G01X59283Y1500D01*
G01X59301Y1522D01*
G01X59326Y1543D01*
G01X59352Y1557D01*
G01X59379Y1568D01*
G01X59407Y1575D01*
G01X59436Y1578D01*
G01X59710Y1588D01*
G01X59744Y1591D01*
G01X59777Y1597D01*
G01X59810Y1605D01*
G01X59842Y1616D01*
G01X59879Y1636D01*
G01X59907Y1657D01*
G01X59923Y1681D01*
G01X59928Y1708D01*
G01X59915Y1783D01*
G01X59873Y1868D01*
G01X59804Y1963D01*
G01X59707Y2066D01*
G01X59600Y2160D01*
G01X59502Y2228D01*
G01X59412Y2268D01*
G37*

%LPD*%
G36*
G01X61089Y2409D02*
G01X61028Y2457D01*
G01X61001Y2452D01*
G01X60981Y2437D01*
G01X60968Y2411D01*
G01X60962Y2376D01*
G01X61020Y2020D01*
G01X60987Y2028D01*
G01X60950Y2033D01*
G01X60910Y2037D01*
G01X60866Y2038D01*
G01X60844Y2036D01*
G01X60820Y2030D01*
G01X60794Y2021D01*
G01X60766Y2008D01*
G01X60735Y1986D01*
G01X60713Y1964D01*
G01X60700Y1939D01*
G01X60695Y1914D01*
G01X60695Y1908D01*
G01X60698Y1893D01*
G01X60700Y1891D01*
G01X60701Y1891D01*
G01X60702Y1889D01*
G01X60703Y1885D01*
G01X60706Y1878D01*
G01X60718Y1872D01*
G01X60718Y1870D01*
G01X60721Y1870D01*
G01X60725Y1869D01*
G01X60730Y1868D01*
G01X60741Y1868D01*
G01X60745Y1869D01*
G01X60751Y1872D01*
G01X60757Y1876D01*
G01X60764Y1883D01*
G01X60780Y1913D01*
G01X60802Y1934D01*
G01X60827Y1948D01*
G01X60858Y1952D01*
G01X60870Y1951D01*
G01X60882Y1949D01*
G01X60895Y1946D01*
G01X60909Y1941D01*
G01X60939Y1932D01*
G01X60970Y1921D01*
G01X61000Y1906D01*
G01X61031Y1888D01*
G01X61031Y1878D01*
G01X61032Y1872D01*
G01X61033Y1865D01*
G01X61045Y1706D01*
G01X61043Y1517D01*
G01X61027Y1352D01*
G01X60993Y1233D01*
G01X60942Y1163D01*
G01X60873Y1139D01*
G01X60852Y1142D01*
G01X60831Y1151D01*
G01X60811Y1165D01*
G01X60792Y1185D01*
G01X60775Y1204D01*
G01X60760Y1219D01*
G01X60749Y1227D01*
G01X60741Y1230D01*
G01X60721Y1228D01*
G01X60707Y1220D01*
G01X60698Y1206D01*
G01X60695Y1187D01*
G01X60700Y1162D01*
G01X60716Y1138D01*
G01X60743Y1114D01*
G01X60779Y1091D01*
G01X60811Y1074D01*
G01X60840Y1062D01*
G01X60863Y1055D01*
G01X60883Y1052D01*
G01X61000Y1088D01*
G01X61089Y1195D01*
G01X61114Y1247D01*
G01X61134Y1301D01*
G01X61148Y1359D01*
G01X61158Y1418D01*
G01X61166Y1526D01*
G01X61170Y1634D01*
G01X61168Y1741D01*
G01X61160Y1848D01*
G01X61203Y1830D01*
G01X61249Y1806D01*
G01X61299Y1774D01*
G01X61353Y1736D01*
G01X61361Y1731D01*
G01X61368Y1728D01*
G01X61375Y1726D01*
G01X61381Y1726D01*
G01X61398Y1731D01*
G01X61410Y1745D01*
G01X61417Y1770D01*
G01X61419Y1804D01*
G01X61360Y1870D01*
G01X61183Y1967D01*
G01X61175Y1968D01*
G01X61168Y1970D01*
G01X61162Y1972D01*
G01X61155Y1975D01*
G01X61142Y2095D01*
G01X61122Y2264D01*
G01X61089Y2409D01*
G37*

%LPD*%
G36*
G01X49338Y2052D02*
G01X49265Y2119D01*
G01X49237Y2115D01*
G01X49218Y2101D01*
G01X49206Y2078D01*
G01X49202Y2046D01*
G01X49204Y2024D01*
G01X49212Y1995D01*
G01X49225Y1959D01*
G01X49242Y1916D01*
G01X49278Y1778D01*
G01X49301Y1566D01*
G01X49300Y1513D01*
G01X49300Y1443D01*
G01X49301Y1426D01*
G01X49292Y1382D01*
G01X49283Y1337D01*
G01X49265Y1251D01*
G01X49244Y1198D01*
G01X49219Y1161D01*
G01X49188Y1139D01*
G01X49154Y1131D01*
G01X49146Y1132D01*
G01X49140Y1133D01*
G01X49135Y1135D01*
G01X49131Y1139D01*
G01X49120Y1151D01*
G01X49107Y1162D01*
G01X49092Y1173D01*
G01X49075Y1182D01*
G01X49063Y1169D01*
G01X49054Y1157D01*
G01X49048Y1145D01*
G01X49047Y1134D01*
G01X49050Y1115D01*
G01X49059Y1098D01*
G01X49074Y1082D01*
G01X49095Y1068D01*
G01X49115Y1057D01*
G01X49134Y1049D01*
G01X49152Y1044D01*
G01X49169Y1042D01*
G01X49288Y1095D01*
G01X49377Y1253D01*
G01X49413Y1398D01*
G01X49425Y1538D01*
G01X49418Y1679D01*
G01X49395Y1850D01*
G01X49338Y2052D01*
G37*

%LPD*%
G36*
G01X46632Y2867D02*
G01X46550Y2879D01*
G01X46506Y2873D01*
G01X46464Y2853D01*
G01X46425Y2822D01*
G01X46388Y2777D01*
G01X46361Y2731D01*
G01X46342Y2686D01*
G01X46331Y2640D01*
G01X46327Y2594D01*
G01X46330Y2545D01*
G01X46339Y2507D01*
G01X46353Y2480D01*
G01X46375Y2465D01*
G01X46389Y2472D01*
G01X46400Y2484D01*
G01X46408Y2500D01*
G01X46413Y2521D01*
G01X46415Y2538D01*
G01X46421Y2592D01*
G01X46427Y2622D01*
G01X46437Y2653D01*
G01X46452Y2683D01*
G01X46471Y2714D01*
G01X46496Y2745D01*
G01X46520Y2767D01*
G01X46545Y2780D01*
G01X46570Y2785D01*
G01X46641Y2762D01*
G01X46703Y2695D01*
G01X46757Y2582D01*
G01X46802Y2424D01*
G01X46821Y2321D01*
G01X46838Y2195D01*
G01X46852Y2044D01*
G01X46865Y1868D01*
G01X46854Y1870D01*
G01X46838Y1873D01*
G01X46815Y1879D01*
G01X46786Y1886D01*
G01X46763Y1890D01*
G01X46743Y1893D01*
G01X46724Y1895D01*
G01X46708Y1896D01*
G01X46650Y1890D01*
G01X46603Y1872D01*
G01X46567Y1843D01*
G01X46542Y1802D01*
G01X46539Y1793D01*
G01X46535Y1775D01*
G01X46535Y1766D01*
G01X46536Y1751D01*
G01X46540Y1740D01*
G01X46547Y1731D01*
G01X46555Y1726D01*
G01X46566Y1726D01*
G01X46579Y1731D01*
G01X46593Y1741D01*
G01X46609Y1756D01*
G01X46630Y1777D01*
G01X46654Y1792D01*
G01X46680Y1801D01*
G01X46708Y1804D01*
G01X46730Y1803D01*
G01X46755Y1799D01*
G01X46781Y1793D01*
G01X46809Y1784D01*
G01X46835Y1774D01*
G01X46855Y1763D01*
G01X46872Y1752D01*
G01X46883Y1741D01*
G01X46886Y1730D01*
G01X46888Y1713D01*
G01X46890Y1691D01*
G01X46890Y1662D01*
G01X46885Y1542D01*
G01X46870Y1352D01*
G01X46855Y1178D01*
G01X46850Y1098D01*
G01X46854Y1057D01*
G01X46869Y1028D01*
G01X46892Y1010D01*
G01X46926Y1004D01*
G01X46959Y1011D01*
G01X46981Y1030D01*
G01X46992Y1062D01*
G01X46992Y1126D01*
G01X46993Y1188D01*
G01X46995Y1304D01*
G01X46999Y1475D01*
G01X47005Y1700D01*
G01X47031Y1686D01*
G01X47065Y1668D01*
G01X47105Y1644D01*
G01X47152Y1616D01*
G01X47169Y1606D01*
G01X47184Y1599D01*
G01X47195Y1595D01*
G01X47203Y1594D01*
G01X47224Y1598D01*
G01X47239Y1611D01*
G01X47248Y1634D01*
G01X47251Y1665D01*
G01X47251Y1675D01*
G01X47249Y1684D01*
G01X47246Y1692D01*
G01X47241Y1698D01*
G01X47213Y1717D01*
G01X47167Y1743D01*
G01X47104Y1776D01*
G01X47023Y1814D01*
G01X46995Y1827D01*
G01X46973Y2048D01*
G01X46953Y2226D01*
G01X46934Y2361D01*
G01X46916Y2452D01*
G01X46876Y2583D01*
G01X46828Y2689D01*
G01X46771Y2772D01*
G01X46706Y2831D01*
G01X46632Y2867D01*
G37*

%LPD*%
G36*
G01X44646Y2430D02*
G01X44610Y2447D01*
G01X44596Y2445D01*
G01X44584Y2439D01*
G01X44573Y2430D01*
G01X44564Y2416D01*
G01X44557Y2403D01*
G01X44553Y2390D01*
G01X44550Y2377D01*
G01X44549Y2366D01*
G01X44603Y2281D01*
G01X44767Y2089D01*
G01X44933Y1894D01*
G01X44988Y1807D01*
G01X44940Y1736D01*
G01X44797Y1594D01*
G01X44644Y1455D01*
G01X44564Y1400D01*
G01X44549Y1395D01*
G01X44537Y1389D01*
G01X44521Y1383D01*
G01X44508Y1378D01*
G01X44497Y1375D01*
G01X44487Y1373D01*
G01X44477Y1373D01*
G01X44456Y1376D01*
G01X44434Y1385D01*
G01X44409Y1399D01*
G01X44383Y1421D01*
G01X44361Y1420D01*
G01X44345Y1413D01*
G01X44336Y1400D01*
G01X44333Y1380D01*
G01X44338Y1362D01*
G01X44352Y1344D01*
G01X44377Y1325D01*
G01X44411Y1306D01*
G01X44442Y1293D01*
G01X44467Y1284D01*
G01X44488Y1278D01*
G01X44503Y1276D01*
G01X44570Y1288D01*
G01X44647Y1323D01*
G01X44734Y1382D01*
G01X44832Y1464D01*
G01X44939Y1571D01*
G01X45057Y1700D01*
G01X45145Y1588D01*
G01X45250Y1421D01*
G01X45341Y1233D01*
G01X45372Y1106D01*
G01X45370Y1089D01*
G01X45365Y1068D01*
G01X45357Y1043D01*
G01X45346Y1014D01*
G01X45402Y997D01*
G01X45414Y1008D01*
G01X45426Y1025D01*
G01X45439Y1046D01*
G01X45453Y1073D01*
G01X45465Y1099D01*
G01X45474Y1121D01*
G01X45479Y1139D01*
G01X45481Y1154D01*
G01X45471Y1227D01*
G01X45440Y1316D01*
G01X45388Y1420D01*
G01X45316Y1540D01*
G01X45190Y1728D01*
G01X45148Y1781D01*
G01X45189Y1832D01*
G01X45313Y1985D01*
G01X45437Y2151D01*
G01X45478Y2249D01*
G01X45477Y2259D01*
G01X45474Y2270D01*
G01X45468Y2281D01*
G01X45460Y2292D01*
G01X45452Y2302D01*
G01X45444Y2309D01*
G01X45435Y2313D01*
G01X45425Y2315D01*
G01X45356Y2262D01*
G01X45229Y2104D01*
G01X45112Y1946D01*
G01X45064Y1893D01*
G01X45014Y1962D01*
G01X44864Y2170D01*
G01X44773Y2291D01*
G01X44700Y2378D01*
G01X44646Y2430D01*
G37*

%LPD*%
G36*
G01X40558Y2762D02*
G01X40549Y2763D01*
G01X40537Y2762D01*
G01X40524Y2759D01*
G01X40510Y2754D01*
G01X40492Y2745D01*
G01X40479Y2733D01*
G01X40472Y2720D01*
G01X40469Y2706D01*
G01X40473Y2688D01*
G01X40446Y2704D01*
G01X40411Y2719D01*
G01X40375Y2728D01*
G01X40340Y2731D01*
G01X40243Y2715D01*
G01X40156Y2663D01*
G01X40079Y2579D01*
G01X40012Y2460D01*
G01X39966Y2347D01*
G01X39934Y2233D01*
G01X39915Y2117D01*
G01X39908Y2000D01*
G01X39913Y1889D01*
G01X39926Y1779D01*
G01X39949Y1671D01*
G01X39980Y1564D01*
G01X40021Y1459D01*
G01X40071Y1355D01*
G01X40140Y1238D01*
G01X40217Y1143D01*
G01X40301Y1069D01*
G01X40391Y1016D01*
G01X40489Y984D01*
G01X40594Y974D01*
G01X40696Y991D01*
G01X40791Y1040D01*
G01X40878Y1124D01*
G01X40957Y1240D01*
G01X41010Y1345D01*
G01X41048Y1445D01*
G01X41073Y1541D01*
G01X41084Y1632D01*
G01X41084Y1745D01*
G01X41078Y1855D01*
G01X41068Y1961D01*
G01X41051Y2064D01*
G01X41030Y2163D01*
G01X41003Y2259D01*
G01X40954Y2384D01*
G01X40895Y2493D01*
G01X40825Y2586D01*
G01X40747Y2661D01*
G01X40657Y2720D01*
G01X40558Y2762D01*
G37*

%LPC*%
G36*
G01X40418Y2628D02*
G01X40378Y2637D01*
G01X40296Y2623D01*
G01X40224Y2581D01*
G01X40161Y2510D01*
G01X40109Y2411D01*
G01X40075Y2315D01*
G01X40052Y2211D01*
G01X40037Y2100D01*
G01X40032Y1982D01*
G01X40032Y1961D01*
G01X40033Y1940D01*
G01X40034Y1920D01*
G01X40035Y1901D01*
G01X40051Y1773D01*
G01X40080Y1647D01*
G01X40121Y1522D01*
G01X40175Y1398D01*
G01X40257Y1254D01*
G01X40348Y1151D01*
G01X40448Y1089D01*
G01X40558Y1068D01*
G01X40660Y1086D01*
G01X40749Y1139D01*
G01X40825Y1229D01*
G01X40888Y1355D01*
G01X40923Y1453D01*
G01X40947Y1552D01*
G01X40962Y1649D01*
G01X40967Y1746D01*
G01X40963Y1870D01*
G01X40949Y1987D01*
G01X40927Y2098D01*
G01X40896Y2203D01*
G01X40827Y2365D01*
G01X40751Y2488D01*
G01X40667Y2571D01*
G01X40576Y2615D01*
G01X40541Y2627D01*
G01X40550Y2618D01*
G01X40570Y2578D01*
G01X40584Y2533D01*
G01X40586Y2521D01*
G01X40586Y2508D01*
G01X40584Y2497D01*
G01X40579Y2485D01*
G01X40571Y2475D01*
G01X40563Y2468D01*
G01X40554Y2464D01*
G01X40546Y2462D01*
G01X40535Y2463D01*
G01X40526Y2467D01*
G01X40517Y2472D01*
G01X40507Y2480D01*
G01X40482Y2549D01*
G01X40452Y2598D01*
G01X40418Y2628D01*
G37*

%LPD*%
G36*
G01X41765Y2762D02*
G01X41755Y2763D01*
G01X41743Y2762D01*
G01X41730Y2759D01*
G01X41714Y2754D01*
G01X41697Y2745D01*
G01X41685Y2733D01*
G01X41678Y2720D01*
G01X41676Y2706D01*
G01X41680Y2688D01*
G01X41653Y2704D01*
G01X41617Y2719D01*
G01X41580Y2728D01*
G01X41544Y2731D01*
G01X41448Y2715D01*
G01X41361Y2663D01*
G01X41284Y2579D01*
G01X41216Y2460D01*
G01X41172Y2347D01*
G01X41140Y2233D01*
G01X41121Y2117D01*
G01X41114Y2000D01*
G01X41119Y1889D01*
G01X41133Y1779D01*
G01X41155Y1671D01*
G01X41187Y1564D01*
G01X41227Y1459D01*
G01X41277Y1355D01*
G01X41347Y1238D01*
G01X41423Y1143D01*
G01X41506Y1069D01*
G01X41597Y1016D01*
G01X41694Y984D01*
G01X41798Y974D01*
G01X41901Y991D01*
G01X41997Y1040D01*
G01X42084Y1124D01*
G01X42164Y1240D01*
G01X42216Y1345D01*
G01X42254Y1445D01*
G01X42278Y1541D01*
G01X42288Y1632D01*
G01X42288Y1745D01*
G01X42283Y1855D01*
G01X42273Y1961D01*
G01X42256Y2064D01*
G01X42234Y2163D01*
G01X42207Y2259D01*
G01X42158Y2384D01*
G01X42100Y2493D01*
G01X42031Y2586D01*
G01X41953Y2661D01*
G01X41864Y2720D01*
G01X41765Y2762D01*
G37*

%LPC*%
G36*
G01X41622Y2628D02*
G01X41582Y2637D01*
G01X41501Y2623D01*
G01X41429Y2581D01*
G01X41367Y2510D01*
G01X41315Y2411D01*
G01X41281Y2315D01*
G01X41256Y2211D01*
G01X41241Y2100D01*
G01X41236Y1982D01*
G01X41236Y1961D01*
G01X41237Y1940D01*
G01X41238Y1920D01*
G01X41239Y1901D01*
G01X41256Y1773D01*
G01X41285Y1647D01*
G01X41327Y1522D01*
G01X41381Y1398D01*
G01X41463Y1254D01*
G01X41554Y1151D01*
G01X41653Y1089D01*
G01X41762Y1068D01*
G01X41865Y1086D01*
G01X41955Y1139D01*
G01X42031Y1229D01*
G01X42095Y1355D01*
G01X42129Y1453D01*
G01X42154Y1552D01*
G01X42169Y1649D01*
G01X42174Y1746D01*
G01X42169Y1870D01*
G01X42156Y1987D01*
G01X42134Y2098D01*
G01X42103Y2203D01*
G01X42034Y2365D01*
G01X41958Y2488D01*
G01X41874Y2571D01*
G01X41783Y2615D01*
G01X41747Y2627D01*
G01X41756Y2618D01*
G01X41777Y2578D01*
G01X41790Y2533D01*
G01X41792Y2521D01*
G01X41791Y2508D01*
G01X41788Y2497D01*
G01X41783Y2485D01*
G01X41776Y2475D01*
G01X41768Y2468D01*
G01X41759Y2464D01*
G01X41749Y2462D01*
G01X41741Y2463D01*
G01X41732Y2467D01*
G01X41723Y2472D01*
G01X41714Y2480D01*
G01X41689Y2549D01*
G01X41658Y2598D01*
G01X41622Y2628D01*
G37*

%LPD*%
G36*
G01X66435Y2595D02*
G01X66403Y2602D01*
G01X66368Y2597D01*
G01X66344Y2582D01*
G01X66329Y2558D01*
G01X66324Y2523D01*
G01X66325Y2497D01*
G01X66329Y2469D01*
G01X66334Y2436D01*
G01X66342Y2401D01*
G01X66351Y2358D01*
G01X66359Y2323D01*
G01X66364Y2298D01*
G01X66367Y2282D01*
G01X66383Y2154D01*
G01X66394Y2030D01*
G01X66401Y1910D01*
G01X66403Y1794D01*
G01X66399Y1624D01*
G01X66388Y1478D01*
G01X66370Y1353D01*
G01X66345Y1251D01*
G01X66312Y1172D01*
G01X66273Y1115D01*
G01X66226Y1081D01*
G01X66172Y1070D01*
G01X66167Y1070D01*
G01X66149Y1073D01*
G01X66106Y1030D01*
G01X66117Y1001D01*
G01X66133Y980D01*
G01X66154Y968D01*
G01X66179Y964D01*
G01X66268Y978D01*
G01X66343Y1023D01*
G01X66405Y1097D01*
G01X66454Y1200D01*
G01X66478Y1283D01*
G01X66496Y1374D01*
G01X66506Y1473D01*
G01X66509Y1581D01*
G01X66510Y1604D01*
G01X66511Y1632D01*
G01X66512Y1665D01*
G01X66514Y1703D01*
G01X66517Y1742D01*
G01X66519Y1776D01*
G01X66519Y1804D01*
G01X66520Y1827D01*
G01X66519Y1959D01*
G01X66516Y2082D01*
G01X66511Y2197D01*
G01X66505Y2303D01*
G01X66497Y2399D01*
G01X66487Y2488D01*
G01X66476Y2537D01*
G01X66459Y2573D01*
G01X66435Y2595D01*
G37*

%LPD*%
G36*
G01X43615Y2654D02*
G01X43510Y2660D01*
G01X43343Y2640D01*
G01X43213Y2579D01*
G01X43118Y2464D01*
G01X43086Y2302D01*
G01X43098Y2225D01*
G01X43134Y2143D01*
G01X43194Y2054D01*
G01X43279Y1959D01*
G01X43352Y1890D01*
G01X43444Y1811D01*
G01X43555Y1722D01*
G01X43685Y1624D01*
G01X43765Y1566D01*
G01X43859Y1496D01*
G01X43966Y1415D01*
G01X44086Y1322D01*
G01X44216Y1199D01*
G01X44259Y1113D01*
G01X44256Y1108D01*
G01X44249Y1104D01*
G01X44238Y1102D01*
G01X44221Y1101D01*
G01X44102Y1122D01*
G01X43888Y1185D01*
G01X43762Y1225D01*
G01X43653Y1253D01*
G01X43564Y1270D01*
G01X43492Y1276D01*
G01X43450Y1273D01*
G01X43408Y1265D01*
G01X43366Y1250D01*
G01X43324Y1230D01*
G01X43276Y1201D01*
G01X43240Y1168D01*
G01X43220Y1130D01*
G01X43213Y1088D01*
G01X43217Y1062D01*
G01X43228Y1036D01*
G01X43248Y1011D01*
G01X43276Y986D01*
G01X43350Y986D01*
G01X43332Y1027D01*
G01X43319Y1057D01*
G01X43312Y1075D01*
G01X43309Y1083D01*
G01X43361Y1136D01*
G01X43517Y1154D01*
G01X43656Y1139D01*
G01X43812Y1096D01*
G01X44091Y984D01*
G01X44135Y970D01*
G01X44173Y959D01*
G01X44207Y953D01*
G01X44236Y951D01*
G01X44264Y954D01*
G01X44290Y963D01*
G01X44316Y977D01*
G01X44340Y997D01*
G01X44362Y1021D01*
G01X44376Y1046D01*
G01X44385Y1072D01*
G01X44389Y1098D01*
G01X44340Y1222D01*
G01X44196Y1380D01*
G01X44141Y1426D01*
G01X44054Y1494D01*
G01X43936Y1586D01*
G01X43787Y1700D01*
G01X43658Y1802D01*
G01X43548Y1893D01*
G01X43457Y1973D01*
G01X43385Y2043D01*
G01X43309Y2131D01*
G01X43254Y2213D01*
G01X43221Y2287D01*
G01X43210Y2356D01*
G01X43224Y2443D01*
G01X43266Y2506D01*
G01X43336Y2543D01*
G01X43434Y2556D01*
G01X43549Y2549D01*
G01X43670Y2526D01*
G01X43797Y2489D01*
G01X43929Y2436D01*
G01X44067Y2369D01*
G01X44211Y2287D01*
G01X44250Y2264D01*
G01X44281Y2247D01*
G01X44303Y2237D01*
G01X44315Y2234D01*
G01X44349Y2238D01*
G01X44374Y2252D01*
G01X44389Y2275D01*
G01X44394Y2307D01*
G01X44391Y2331D01*
G01X44381Y2352D01*
G01X44365Y2372D01*
G01X44343Y2391D01*
G01X44320Y2403D01*
G01X44298Y2414D01*
G01X44276Y2426D01*
G01X44254Y2437D01*
G01X44111Y2505D01*
G01X43976Y2561D01*
G01X43848Y2604D01*
G01X43728Y2635D01*
G01X43615Y2654D01*
G37*

%LPD*%
G36*
G01X49742Y2829D02*
G01X49669Y2833D01*
G01X49618Y2831D01*
G01X49570Y2824D01*
G01X49524Y2813D01*
G01X49481Y2797D01*
G01X49432Y2768D01*
G01X49397Y2733D01*
G01X49377Y2693D01*
G01X49369Y2648D01*
G01X49374Y2609D01*
G01X49385Y2580D01*
G01X49405Y2560D01*
G01X49433Y2549D01*
G01X49450Y2561D01*
G01X49461Y2577D01*
G01X49469Y2598D01*
G01X49471Y2622D01*
G01X49528Y2685D01*
G01X49700Y2706D01*
G01X49834Y2692D01*
G01X50025Y2650D01*
G01X50206Y2599D01*
G01X50347Y2549D01*
G01X50366Y2538D01*
G01X50346Y2525D01*
G01X50334Y2502D01*
G01X50330Y2470D01*
G01X50331Y2460D01*
G01X50335Y2441D01*
G01X50341Y2415D01*
G01X50350Y2381D01*
G01X50372Y2291D01*
G01X50389Y2221D01*
G01X50401Y2172D01*
G01X50408Y2142D01*
G01X50421Y2076D01*
G01X50429Y2013D01*
G01X50435Y1954D01*
G01X50436Y1898D01*
G01X50420Y1901D01*
G01X50397Y1905D01*
G01X50367Y1912D01*
G01X50330Y1921D01*
G01X50282Y1932D01*
G01X50240Y1940D01*
G01X50201Y1945D01*
G01X50167Y1947D01*
G01X50133Y1945D01*
G01X50099Y1941D01*
G01X50065Y1934D01*
G01X50032Y1924D01*
G01X49991Y1906D01*
G01X49962Y1886D01*
G01X49945Y1861D01*
G01X49938Y1832D01*
G01X49974Y1792D01*
G01X49998Y1797D01*
G01X50023Y1804D01*
G01X50050Y1813D01*
G01X50078Y1825D01*
G01X50097Y1834D01*
G01X50116Y1840D01*
G01X50132Y1844D01*
G01X50147Y1845D01*
G01X50178Y1844D01*
G01X50215Y1840D01*
G01X50259Y1835D01*
G01X50309Y1827D01*
G01X50368Y1815D01*
G01X50410Y1804D01*
G01X50435Y1792D01*
G01X50444Y1779D01*
G01X50441Y1597D01*
G01X50433Y1440D01*
G01X50419Y1307D01*
G01X50400Y1201D01*
G01X50374Y1120D01*
G01X50344Y1064D01*
G01X50308Y1033D01*
G01X50266Y1027D01*
G01X50251Y1027D01*
G01X50224Y1024D01*
G01X50205Y1015D01*
G01X50194Y1000D01*
G01X50190Y979D01*
G01X50192Y968D01*
G01X50198Y957D01*
G01X50207Y947D01*
G01X50220Y938D01*
G01X50233Y932D01*
G01X50245Y927D01*
G01X50257Y924D01*
G01X50269Y923D01*
G01X50338Y935D01*
G01X50399Y972D01*
G01X50451Y1034D01*
G01X50493Y1120D01*
G01X50526Y1231D01*
G01X50550Y1366D01*
G01X50565Y1526D01*
G01X50571Y1710D01*
G01X50591Y1700D01*
G01X50628Y1680D01*
G01X50656Y1666D01*
G01X50683Y1654D01*
G01X50714Y1659D01*
G01X50736Y1670D01*
G01X50749Y1690D01*
G01X50754Y1718D01*
G01X50749Y1746D01*
G01X50736Y1771D01*
G01X50714Y1793D01*
G01X50683Y1812D01*
G01X50652Y1822D01*
G01X50622Y1833D01*
G01X50561Y1855D01*
G01X50554Y1901D01*
G01X50547Y1954D01*
G01X50541Y2013D01*
G01X50535Y2079D01*
G01X50518Y2272D01*
G01X50510Y2343D01*
G01X50468Y2481D01*
G01X50533Y2444D01*
G01X50661Y2374D01*
G01X50680Y2365D01*
G01X50695Y2358D01*
G01X50708Y2353D01*
G01X50738Y2358D01*
G01X50759Y2371D01*
G01X50773Y2395D01*
G01X50777Y2427D01*
G01X50767Y2463D01*
G01X50739Y2497D01*
G01X50692Y2529D01*
G01X50627Y2559D01*
G01X50461Y2623D01*
G01X50308Y2679D01*
G01X50168Y2726D01*
G01X50042Y2764D01*
G01X49929Y2794D01*
G01X49829Y2816D01*
G01X49742Y2829D01*
G37*

%LPD*%
G36*
G01X42628Y2712D02*
G01X42595Y2719D01*
G01X42575Y2717D01*
G01X42556Y2713D01*
G01X42537Y2704D01*
G01X42519Y2693D01*
G01X42502Y2677D01*
G01X42491Y2659D01*
G01X42484Y2639D01*
G01X42481Y2617D01*
G01X42499Y2527D01*
G01X42555Y2317D01*
G01X42594Y2165D01*
G01X42627Y2016D01*
G01X42652Y1871D01*
G01X42670Y1729D01*
G01X42681Y1591D01*
G01X42684Y1456D01*
G01X42659Y1253D01*
G01X42583Y1185D01*
G01X42461Y1185D01*
G01X42442Y1182D01*
G01X42420Y1174D01*
G01X42396Y1162D01*
G01X42369Y1144D01*
G01X42341Y1122D01*
G01X42321Y1100D01*
G01X42310Y1078D01*
G01X42306Y1058D01*
G01X42311Y1014D01*
G01X42334Y1019D01*
G01X42359Y1028D01*
G01X42383Y1041D01*
G01X42410Y1058D01*
G01X42428Y1068D01*
G01X42451Y1075D01*
G01X42476Y1079D01*
G01X42506Y1080D01*
G01X42579Y1072D01*
G01X42668Y1047D01*
G01X42774Y1006D01*
G01X42898Y948D01*
G01X42923Y936D01*
G01X42944Y928D01*
G01X42960Y922D01*
G01X42971Y920D01*
G01X42997Y924D01*
G01X43015Y936D01*
G01X43026Y955D01*
G01X43030Y981D01*
G01X43011Y1017D01*
G01X42955Y1060D01*
G01X42863Y1107D01*
G01X42732Y1162D01*
G01X42778Y1273D01*
G01X42793Y1406D01*
G01X42793Y1583D01*
G01X42791Y1693D01*
G01X42783Y1806D01*
G01X42770Y1924D01*
G01X42752Y2046D01*
G01X42728Y2172D01*
G01X42699Y2302D01*
G01X42663Y2474D01*
G01X42651Y2579D01*
G01X42673Y2568D01*
G01X42698Y2546D01*
G01X42726Y2512D01*
G01X42758Y2467D01*
G01X42789Y2426D01*
G01X42817Y2397D01*
G01X42841Y2379D01*
G01X42862Y2373D01*
G01X42891Y2377D01*
G01X42912Y2388D01*
G01X42924Y2406D01*
G01X42928Y2432D01*
G01X42919Y2465D01*
G01X42893Y2505D01*
G01X42849Y2552D01*
G01X42788Y2607D01*
G01X42725Y2656D01*
G01X42672Y2691D01*
G01X42628Y2712D01*
G37*

%LPD*%
G36*
G01X58884Y2182D02*
G01X58803Y2234D01*
G01X58775Y2230D01*
G01X58755Y2216D01*
G01X58744Y2195D01*
G01X58740Y2165D01*
G01X58740Y2147D01*
G01X58811Y1792D01*
G01X58714Y1921D01*
G01X58616Y2027D01*
G01X58519Y2110D01*
G01X58423Y2169D01*
G01X58326Y2204D01*
G01X58229Y2216D01*
G01X58146Y2199D01*
G01X58086Y2148D01*
G01X58050Y2063D01*
G01X58039Y1944D01*
G01X58051Y1829D01*
G01X58089Y1708D01*
G01X58151Y1580D01*
G01X58239Y1446D01*
G01X58341Y1323D01*
G01X58442Y1235D01*
G01X58540Y1182D01*
G01X58638Y1164D01*
G01X58747Y1201D01*
G01X58783Y1312D01*
G01X58781Y1336D01*
G01X58775Y1363D01*
G01X58765Y1393D01*
G01X58752Y1426D01*
G01X58691Y1426D01*
G01X58690Y1412D01*
G01X58691Y1397D01*
G01X58692Y1381D01*
G01X58694Y1365D01*
G01X58697Y1348D01*
G01X58699Y1332D01*
G01X58701Y1319D01*
G01X58701Y1306D01*
G01X58699Y1292D01*
G01X58691Y1282D01*
G01X58679Y1275D01*
G01X58661Y1273D01*
G01X58571Y1292D01*
G01X58484Y1346D01*
G01X58398Y1437D01*
G01X58313Y1563D01*
G01X58247Y1683D01*
G01X58201Y1792D01*
G01X58172Y1890D01*
G01X58163Y1977D01*
G01X58168Y2041D01*
G01X58182Y2086D01*
G01X58206Y2113D01*
G01X58239Y2122D01*
G01X58320Y2106D01*
G01X58407Y2058D01*
G01X58502Y1979D01*
G01X58602Y1868D01*
G01X58687Y1758D01*
G01X58751Y1657D01*
G01X58796Y1567D01*
G01X58821Y1487D01*
G01X58844Y1353D01*
G01X58861Y1209D01*
G01X58872Y1053D01*
G01X58877Y887D01*
G01X58870Y679D01*
G01X58844Y529D01*
G01X58800Y440D01*
G01X58737Y410D01*
G01X58736Y410D01*
G01X58733Y411D01*
G01X58728Y413D01*
G01X58713Y418D01*
G01X58698Y424D01*
G01X58677Y431D01*
G01X58651Y440D01*
G01X58651Y387D01*
G01X58654Y373D01*
G01X58662Y361D01*
G01X58677Y349D01*
G01X58696Y339D01*
G01X58713Y332D01*
G01X58727Y328D01*
G01X58740Y325D01*
G01X58750Y324D01*
G01X58856Y374D01*
G01X58935Y499D01*
G01X58975Y635D01*
G01X58991Y796D01*
G01X58993Y876D01*
G01X58994Y917D01*
G01X58994Y959D01*
G01X58993Y1042D01*
G01X58989Y1139D01*
G01X58984Y1252D01*
G01X58976Y1378D01*
G01X58967Y1518D01*
G01X58955Y1673D01*
G01X58941Y1842D01*
G01X58925Y2025D01*
G01X58884Y2182D01*
G37*

%LPD*%
G36*
G01X63613Y2167D02*
G01X63588Y2170D01*
G01X63555Y2152D01*
G01X63528Y2096D01*
G01X63507Y2004D01*
G01X63491Y1875D01*
G01X63482Y1710D01*
G01X63479Y1507D01*
G01X63482Y1312D01*
G01X63489Y1185D01*
G01X63505Y1064D01*
G01X63527Y947D01*
G01X63556Y835D01*
G01X63592Y726D01*
G01X63635Y622D01*
G01X63685Y522D01*
G01X63777Y376D01*
G01X63875Y272D01*
G01X63979Y210D01*
G01X64089Y189D01*
G01X64188Y198D01*
G01X64279Y224D01*
G01X64363Y268D01*
G01X64439Y329D01*
G01X64504Y403D01*
G01X64550Y486D01*
G01X64577Y576D01*
G01X64587Y677D01*
G01X64584Y707D01*
G01X64574Y728D01*
G01X64560Y741D01*
G01X64538Y745D01*
G01X64517Y742D01*
G01X64502Y731D01*
G01X64494Y714D01*
G01X64493Y689D01*
G01X64473Y550D01*
G01X64394Y423D01*
G01X64274Y331D01*
G01X64140Y301D01*
G01X64042Y314D01*
G01X63953Y353D01*
G01X63873Y420D01*
G01X63803Y512D01*
G01X63742Y630D01*
G01X63690Y776D01*
G01X63650Y926D01*
G01X63621Y1078D01*
G01X63604Y1232D01*
G01X63599Y1388D01*
G01X63601Y1515D01*
G01X63606Y1636D01*
G01X63616Y1749D01*
G01X63629Y1855D01*
G01X63646Y1954D01*
G01X63667Y2046D01*
G01X63670Y2061D01*
G01X63669Y2079D01*
G01X63666Y2097D01*
G01X63660Y2117D01*
G01X63648Y2140D01*
G01X63633Y2157D01*
G01X63613Y2167D01*
G37*

%LPD*%
M00*
M02*
