;Layer: Drill PTH
;EasyEDA v6.3.12, 2019-11-29T11:20:33+08:00
;20e9667cab1745c4bec6fbe7ec4c93c1,0d9194da949c4fdba41728a14849dae3,10
;Gerber Generator version 0.2
M48
METRIC,LZ,000.000
;Holesize 1 = 0.310 METRIC
T01C0.310
;Holesize 2 = 0.600 METRIC
T02C0.600
%
G05
G90
T01
X+004691Y+073171
X+012908Y+061812
X+012489Y+054804
X+051562Y+006775
X+046692Y+003603
X+009331Y+072980
X+014681Y+073122
X+019905Y+061164
X+036992Y+047113
X+031112Y+059711
X+025245Y+051230
X+019405Y+049391
X+056393Y+011436
X+017124Y+012879
X+030261Y+009252
X+036476Y+009394
X+038902Y+005010
X+042913Y+017794
X+052374Y+020303
X+053825Y+021756
X+039415Y+062223
X+018747Y+062223
X+018740Y+059409
X+024871Y+040516
X+051808Y+021812
X+037343Y+021477
X+050370Y+021441
X+048562Y+043867
X+015621Y+049259
X+031534Y+009676
X+033604Y+004735
X+032717Y+005442
X+030261Y+010235
X+026675Y+059528
X+015412Y+058919
X+015372Y+060468
X+038376Y+045477
X+026969Y+054573
X+049354Y+029008
X+062169Y+027123
X+040144Y+043178
X+030302Y+005172
X+059796Y+021939
X+032263Y+022556
X+045826Y+022452
X+015077Y+067380
X+020962Y+068220
X+025687Y+068220
X+016609Y+040516
X+008067Y+040516
X+018379Y+040516
X+052631Y+008342
X+040906Y+009219
X+041816Y+009475
X+056217Y+009475
X+039314Y+010798
X+049461Y+010798
X+042199Y+011670
X+050444Y+012071
X+016883Y+041423
X+057335Y+027578
X+017757Y+051563
X+012352Y+065622
X+058409Y+025724
X+049075Y+027763
X+039034Y+043295
X+031554Y+005243
X+039232Y+012571
X+041473Y+005208
X+025011Y+058479
X+033416Y+046407
T02
X+021559Y+073441G85X+021559Y+072241
X+027208Y+073441G85X+027208Y+072241
M30
