G04 Layer: TopSilkLayer*
G04 EasyEDA v6.3.12, 2019-11-29T11:20:33+08:00*
G04 20e9667cab1745c4bec6fbe7ec4c93c1,0d9194da949c4fdba41728a14849dae3,10*
G04 Gerber Generator version 0.2*
G04 Scale: 100 percent, Rotated: No, Reflected: No *
G04 Dimensions in millimeters *
G04 leading zeros omitted , absolute positions ,3 integer and 3 decimal *
%FSLAX33Y33*%
%MOMM*%
G90*
G71D02*

%ADD10C,0.254000*%
%ADD12C,0.200000*%
%ADD14C,0.152400*%
%ADD42C,0.100000*%
%ADD43C,0.119990*%
%ADD44C,0.150114*%
%ADD45C,0.269999*%
%ADD46C,0.228600*%
%ADD47C,0.299999*%
%ADD48C,0.203200*%

%LPD*%
G54D12*
G01X24737Y58404D02*
G01X25187Y58404D01*
G01X25187Y57954D01*
G01X17737Y57954D02*
G01X17737Y58404D01*
G01X18187Y58404D01*
G01X17737Y51404D02*
G01X17737Y50954D01*
G01X18187Y50954D01*
G01X24737Y50954D02*
G01X25187Y50954D01*
G01X25187Y51404D01*
G01X28105Y65332D02*
G01X28105Y64232D01*
G01X26504Y64232D01*
G01X26504Y65332D01*
G01X28105Y66132D02*
G01X28105Y67232D01*
G01X27105Y67232D01*
G01X26504Y67232D01*
G01X26504Y66132D01*
G01X4087Y49680D02*
G01X4087Y50780D01*
G01X5688Y50780D01*
G01X5688Y49680D01*
G01X4087Y48880D02*
G01X4087Y47780D01*
G01X5087Y47780D01*
G01X5688Y47780D01*
G01X5688Y48880D01*
G01X27223Y50069D02*
G01X26123Y50069D01*
G01X26123Y51670D01*
G01X27223Y51670D01*
G01X28023Y50069D02*
G01X29123Y50069D01*
G01X29123Y51069D01*
G01X29123Y51670D01*
G01X28023Y51670D01*
G01X6966Y49307D02*
G01X5866Y49307D01*
G01X5866Y50908D01*
G01X6966Y50908D01*
G01X7766Y49307D02*
G01X8866Y49307D01*
G01X8866Y50307D01*
G01X8866Y50908D01*
G01X7766Y50908D01*
G54D42*
G01X9906Y63973D02*
G01X9398Y63973D01*
G01X9652Y63592D02*
G01X9652Y63338D01*
G01X9652Y63973D02*
G01X9906Y63592D01*
G01X9398Y63592D01*
G01X9652Y63973D01*
G01X9652Y64227D01*
G54D43*
G01X10668Y65922D02*
G01X8636Y65922D01*
G01X10675Y62721D02*
G01X10675Y65922D01*
G01X8625Y65922D02*
G01X8625Y62721D01*
G54D10*
G01X29156Y59187D02*
G01X30206Y59187D01*
G01X29156Y61348D02*
G01X30206Y61348D01*
G01X28156Y59187D02*
G01X27106Y59187D01*
G01X28156Y61348D02*
G01X27106Y61348D01*
G01X30436Y59368D02*
G01X30436Y61168D01*
G01X26876Y59368D02*
G01X26876Y61168D01*
G01X27106Y59187D02*
G01X27056Y59187D01*
G01X26876Y59368D01*
G01X30206Y59187D02*
G01X30255Y59187D01*
G01X30436Y59368D01*
G01X27106Y61348D02*
G01X27056Y61348D01*
G01X26876Y61168D01*
G01X30206Y61348D02*
G01X30255Y61348D01*
G01X30436Y61168D01*
G54D12*
G01X14007Y61581D02*
G01X15107Y61581D01*
G01X15107Y59980D01*
G01X14007Y59980D01*
G01X13208Y61581D02*
G01X12107Y61581D01*
G01X12107Y60581D01*
G01X12107Y59980D01*
G01X13208Y59980D01*
G01X13837Y57534D02*
G01X13340Y57534D01*
G01X15288Y55635D02*
G01X15288Y54232D01*
G01X11889Y55635D02*
G01X11889Y54232D01*
G01X13837Y52333D02*
G01X13340Y52333D01*
G01X12954Y50201D02*
G01X11854Y50201D01*
G01X11854Y51802D01*
G01X12954Y51802D01*
G01X13754Y50201D02*
G01X14854Y50201D01*
G01X14854Y51201D01*
G01X14854Y51802D01*
G01X13754Y51802D01*
G01X13208Y58202D02*
G01X12108Y58202D01*
G01X12108Y59803D01*
G01X13208Y59803D01*
G01X14008Y58202D02*
G01X15108Y58202D01*
G01X15108Y59202D01*
G01X15108Y59803D01*
G01X14008Y59803D01*
G01X28302Y57308D02*
G01X27202Y57308D01*
G01X27202Y58909D01*
G01X28302Y58909D01*
G01X29102Y57308D02*
G01X30202Y57308D01*
G01X30202Y58308D01*
G01X30202Y58909D01*
G01X29102Y58909D01*
G01X22771Y65329D02*
G01X22771Y64229D01*
G01X21170Y64229D01*
G01X21170Y65329D01*
G01X22771Y66129D02*
G01X22771Y67229D01*
G01X21771Y67229D01*
G01X21170Y67229D01*
G01X21170Y66129D01*
G01X16082Y72879D02*
G01X17182Y72879D01*
G01X17182Y71278D01*
G01X16082Y71278D01*
G01X15282Y72879D02*
G01X14182Y72879D01*
G01X14182Y71879D01*
G01X14182Y71278D01*
G01X15282Y71278D01*
G01X11637Y73006D02*
G01X12737Y73006D01*
G01X12737Y71405D01*
G01X11637Y71405D01*
G01X10837Y73006D02*
G01X9737Y73006D01*
G01X9737Y72006D01*
G01X9737Y71405D01*
G01X10837Y71405D01*
G01X7446Y73006D02*
G01X8546Y73006D01*
G01X8546Y71405D01*
G01X7446Y71405D01*
G01X6646Y73006D02*
G01X5546Y73006D01*
G01X5546Y72006D01*
G01X5546Y71405D01*
G01X6646Y71405D01*
G01X28023Y49892D02*
G01X29123Y49892D01*
G01X29123Y48291D01*
G01X28023Y48291D01*
G01X27223Y49892D02*
G01X26123Y49892D01*
G01X26123Y48892D01*
G01X26123Y48291D01*
G01X27223Y48291D01*
G54D10*
G01X8623Y74974D02*
G01X7150Y74974D01*
G01X8623Y73247D02*
G01X7150Y73247D01*
G01X8623Y73247D02*
G01X8623Y74974D01*
G01X6565Y74974D02*
G01X5397Y74974D01*
G01X6540Y73247D02*
G01X5397Y73247D01*
G01X5397Y73247D02*
G01X5041Y73603D01*
G01X5041Y74619D01*
G01X5397Y74974D01*
G54D44*
G01X6997Y73730D02*
G01X6997Y74517D01*
G01X6743Y74263D01*
G01X6743Y73907D01*
G01X6997Y73653D01*
G01X6997Y73882D01*
G01X6870Y74339D02*
G01X6870Y73831D01*
G54D10*
G01X12979Y74974D02*
G01X11506Y74974D01*
G01X12979Y73247D02*
G01X11506Y73247D01*
G01X12979Y73247D02*
G01X12979Y74974D01*
G01X10922Y74974D02*
G01X9753Y74974D01*
G01X10896Y73247D02*
G01X9753Y73247D01*
G01X9753Y73247D02*
G01X9398Y73603D01*
G01X9398Y74619D01*
G01X9753Y74974D01*
G54D44*
G01X11353Y73730D02*
G01X11353Y74517D01*
G01X11099Y74263D01*
G01X11099Y73907D01*
G01X11353Y73653D01*
G01X11353Y73882D01*
G01X11226Y74339D02*
G01X11226Y73831D01*
G54D10*
G01X17297Y74974D02*
G01X15824Y74974D01*
G01X17297Y73247D02*
G01X15824Y73247D01*
G01X17297Y73247D02*
G01X17297Y74974D01*
G01X15240Y74974D02*
G01X14071Y74974D01*
G01X15214Y73247D02*
G01X14071Y73247D01*
G01X14071Y73247D02*
G01X13716Y73603D01*
G01X13716Y74619D01*
G01X14071Y74974D01*
G54D44*
G01X15671Y73730D02*
G01X15671Y74517D01*
G01X15417Y74263D01*
G01X15417Y73907D01*
G01X15671Y73653D01*
G01X15671Y73882D01*
G01X15544Y74339D02*
G01X15544Y73831D01*
G54D12*
G01X24726Y66131D02*
G01X24726Y67231D01*
G01X26327Y67231D01*
G01X26327Y66131D01*
G01X24726Y65332D02*
G01X24726Y64231D01*
G01X25726Y64231D01*
G01X26327Y64231D01*
G01X26327Y65332D01*
G01X22948Y66131D02*
G01X22948Y67231D01*
G01X24549Y67231D01*
G01X24549Y66131D01*
G01X22948Y65332D02*
G01X22948Y64231D01*
G01X23948Y64231D01*
G01X24549Y64231D01*
G01X24549Y65332D01*
G54D10*
G01X36449Y64529D02*
G01X36322Y64529D01*
G01X36322Y67323D01*
G01X36449Y67323D01*
G01X38481Y64529D02*
G01X38608Y64529D01*
G01X38608Y67323D01*
G01X38481Y67323D01*
G01X36703Y63767D02*
G01X38100Y63767D01*
G01X64491Y17018D02*
G01X64491Y16018D01*
G01X61492Y17018D02*
G01X64493Y17018D01*
G01X61490Y16017D02*
G01X61492Y17018D01*
G01X64493Y16017D02*
G01X61492Y16018D01*
G54D12*
G01X64977Y13635D02*
G01X66077Y13635D01*
G01X66077Y12034D01*
G01X64977Y12034D01*
G01X64177Y13635D02*
G01X63077Y13635D01*
G01X63077Y12635D01*
G01X63077Y12034D01*
G01X64177Y12034D01*
G01X62903Y11611D02*
G01X62903Y10511D01*
G01X61302Y10511D01*
G01X61302Y11611D01*
G01X62903Y12411D02*
G01X62903Y13511D01*
G01X61903Y13511D01*
G01X61302Y13511D01*
G01X61302Y12411D01*
G01X67455Y18777D02*
G01X68555Y18777D01*
G01X68555Y17176D01*
G01X67455Y17176D01*
G01X66655Y18777D02*
G01X65555Y18777D01*
G01X65555Y17777D01*
G01X65555Y17176D01*
G01X66655Y17176D01*
G54D45*
G01X67030Y12276D02*
G01X67030Y9406D01*
G01X70358Y9406D01*
G01X70358Y12276D01*
G01X70358Y12276D01*
G01X70358Y13190D02*
G01X70358Y13165D01*
G01X70358Y15984D01*
G01X67030Y15984D01*
G01X67030Y13114D01*
G54D10*
G01X9037Y9570D02*
G01X9037Y15969D01*
G01X9037Y9570D02*
G01X5237Y9570D01*
G01X5237Y15969D02*
G01X5237Y9570D01*
G01X5237Y15969D02*
G01X9037Y15969D01*
G54D12*
G01X14312Y12088D02*
G01X14312Y13188D01*
G01X15913Y13188D01*
G01X15913Y12088D01*
G01X14312Y11288D02*
G01X14312Y10188D01*
G01X15312Y10188D01*
G01X15913Y10188D01*
G01X15913Y11288D01*
G54D10*
G01X10160Y16707D02*
G01X10160Y16580D01*
G01X7366Y16580D01*
G01X7366Y16707D01*
G01X10160Y18739D02*
G01X10160Y18866D01*
G01X7366Y18866D01*
G01X7366Y18739D01*
G01X10922Y16961D02*
G01X10922Y18358D01*
G01X30357Y19501D02*
G01X30357Y44501D01*
G01X43057Y19501D02*
G01X43057Y44501D01*
G01X30357Y44520D02*
G01X43057Y44520D01*
G01X30357Y19501D02*
G01X31373Y19501D01*
G01X43057Y19501D02*
G01X42041Y19501D01*
G01X30357Y37281D02*
G01X43057Y37281D01*
G01X32262Y39821D02*
G01X32262Y43631D01*
G01X34802Y43631D01*
G01X34802Y39821D01*
G01X37342Y39821D01*
G01X37342Y43631D01*
G01X39882Y43631D01*
G01X39882Y38551D01*
G01X25008Y7276D02*
G01X47008Y7276D01*
G01X47008Y3627D01*
G01X25008Y3627D01*
G01X25008Y7276D01*
G54D46*
G01X13980Y13365D02*
G01X13980Y9965D01*
G01X12181Y9965D01*
G01X12181Y13365D01*
G01X13980Y13365D01*
G54D10*
G01X52781Y15741D02*
G01X52781Y7156D01*
G01X56565Y7156D01*
G01X56565Y15716D01*
G01X52781Y15741D02*
G01X53848Y15741D01*
G01X55499Y15716D02*
G01X56565Y15716D01*
G01X57696Y23494D02*
G01X70796Y23494D01*
G01X57696Y23494D02*
G01X57696Y42594D01*
G01X70796Y23494D02*
G01X70796Y42594D01*
G01X57696Y42614D02*
G01X70796Y42614D01*
G01X43726Y23494D02*
G01X56826Y23494D01*
G01X43726Y23494D02*
G01X43726Y42594D01*
G01X56826Y23494D02*
G01X56826Y42594D01*
G01X43726Y42614D02*
G01X56826Y42614D01*
G01X26698Y69992D02*
G01X26083Y69992D01*
G01X22676Y69992D02*
G01X22159Y69992D01*
G01X28067Y71317D02*
G01X28083Y74984D01*
G01X28083Y74984D02*
G01X20691Y74984D01*
G01X20683Y74976D01*
G01X20683Y74976D02*
G01X20701Y71317D01*
G54D48*
G01X42151Y64014D02*
G01X42059Y64197D01*
G01X41874Y64382D01*
G01X41691Y64474D01*
G01X41320Y64474D01*
G01X41135Y64382D01*
G01X40952Y64197D01*
G01X40858Y64014D01*
G01X40767Y63735D01*
G01X40767Y63275D01*
G01X40858Y62998D01*
G01X40952Y62813D01*
G01X41135Y62627D01*
G01X41320Y62536D01*
G01X41691Y62536D01*
G01X41874Y62627D01*
G01X42059Y62813D01*
G01X42151Y62998D01*
G01X42760Y64474D02*
G01X42760Y63089D01*
G01X42854Y62813D01*
G01X43040Y62627D01*
G01X43317Y62536D01*
G01X43500Y62536D01*
G01X43776Y62627D01*
G01X43962Y62813D01*
G01X44056Y63089D01*
G01X44056Y64474D01*
G01X44665Y64474D02*
G01X44665Y62536D01*
G01X44665Y64474D02*
G01X45496Y64474D01*
G01X45773Y64382D01*
G01X45864Y64291D01*
G01X45958Y64105D01*
G01X45958Y63920D01*
G01X45864Y63735D01*
G01X45773Y63643D01*
G01X45496Y63552D01*
G01X44665Y63552D02*
G01X45496Y63552D01*
G01X45773Y63458D01*
G01X45864Y63366D01*
G01X45958Y63181D01*
G01X45958Y62904D01*
G01X45864Y62719D01*
G01X45773Y62627D01*
G01X45496Y62536D01*
G01X44665Y62536D01*
G01X46568Y64474D02*
G01X46568Y62536D01*
G01X46568Y64474D02*
G01X47767Y64474D01*
G01X46568Y63552D02*
G01X47307Y63552D01*
G01X46568Y62536D02*
G01X47767Y62536D01*
G01X48376Y61888D02*
G01X50040Y61888D01*
G01X51389Y64474D02*
G01X50650Y62536D01*
G01X51389Y64474D02*
G01X52128Y62536D01*
G01X50927Y63181D02*
G01X51851Y63181D01*
G01X52738Y64474D02*
G01X52738Y62536D01*
G01X52738Y64474D02*
G01X53568Y64474D01*
G01X53845Y64382D01*
G01X53936Y64291D01*
G01X54030Y64105D01*
G01X54030Y63920D01*
G01X53936Y63735D01*
G01X53845Y63643D01*
G01X53568Y63552D01*
G01X52738Y63552D01*
G01X53383Y63552D02*
G01X54030Y62536D01*
G01X54640Y64474D02*
G01X54640Y62536D01*
G01X54640Y64474D02*
G01X55285Y64474D01*
G01X55562Y64382D01*
G01X55747Y64197D01*
G01X55841Y64014D01*
G01X55933Y63735D01*
G01X55933Y63275D01*
G01X55841Y62998D01*
G01X55747Y62813D01*
G01X55562Y62627D01*
G01X55285Y62536D01*
G01X54640Y62536D01*
G01X56542Y64474D02*
G01X56542Y63089D01*
G01X56634Y62813D01*
G01X56819Y62627D01*
G01X57096Y62536D01*
G01X57282Y62536D01*
G01X57558Y62627D01*
G01X57744Y62813D01*
G01X57835Y63089D01*
G01X57835Y64474D01*
G01X58445Y64474D02*
G01X58445Y62536D01*
G01X59055Y64474D02*
G01X59055Y62536D01*
G01X59055Y64474D02*
G01X60347Y62536D01*
G01X60347Y64474D02*
G01X60347Y62536D01*
G01X61511Y64474D02*
G01X61328Y64382D01*
G01X61142Y64197D01*
G01X61048Y64014D01*
G01X60957Y63735D01*
G01X60957Y63275D01*
G01X61048Y62998D01*
G01X61142Y62813D01*
G01X61328Y62627D01*
G01X61511Y62536D01*
G01X61882Y62536D01*
G01X62064Y62627D01*
G01X62250Y62813D01*
G01X62344Y62998D01*
G01X62435Y63275D01*
G01X62435Y63735D01*
G01X62344Y64014D01*
G01X62250Y64197D01*
G01X62064Y64382D01*
G01X61882Y64474D01*
G01X61511Y64474D01*
G01X63045Y61888D02*
G01X64706Y61888D01*
G01X65316Y64474D02*
G01X66055Y62536D01*
G01X66794Y64474D02*
G01X66055Y62536D01*
G01X67403Y64105D02*
G01X67589Y64197D01*
G01X67866Y64474D01*
G01X67866Y62536D01*
G01X68567Y62998D02*
G01X68475Y62904D01*
G01X68567Y62813D01*
G01X68661Y62904D01*
G01X68567Y62998D01*
G01X69456Y64474D02*
G01X70472Y64474D01*
G01X69916Y63735D01*
G01X70192Y63735D01*
G01X70378Y63643D01*
G01X70472Y63552D01*
G01X70563Y63275D01*
G01X70563Y63089D01*
G01X70472Y62813D01*
G01X70286Y62627D01*
G01X70010Y62536D01*
G01X69733Y62536D01*
G01X69456Y62627D01*
G01X69362Y62719D01*
G01X69270Y62904D01*

%LPD*%
G36*
G01X64335Y36244D02*
G01X64249Y36265D01*
G01X64236Y36254D01*
G01X64270Y36221D01*
G01X64302Y36182D01*
G01X64326Y36140D01*
G01X64340Y36097D01*
G01X64375Y36084D01*
G01X64405Y36090D01*
G01X64426Y36111D01*
G01X64433Y36142D01*
G01X64423Y36177D01*
G01X64391Y36213D01*
G01X64335Y36244D01*
G37*

%LPD*%
G36*
G01X64850Y36121D02*
G01X64808Y36153D01*
G01X64742Y36074D01*
G01X63779Y36074D01*
G01X63792Y36036D01*
G01X64894Y36036D01*
G01X64906Y36037D01*
G01X64916Y36041D01*
G01X64923Y36048D01*
G01X64927Y36056D01*
G01X64889Y36090D01*
G01X64850Y36121D01*
G37*

%LPD*%
G36*
G01X64159Y35990D02*
G01X64099Y36021D01*
G01X64089Y36013D01*
G01X64115Y35963D01*
G01X64140Y35906D01*
G01X64160Y35847D01*
G01X64170Y35790D01*
G01X64193Y35774D01*
G01X64216Y35769D01*
G01X64237Y35773D01*
G01X64254Y35785D01*
G01X64266Y35804D01*
G01X64272Y35829D01*
G01X64270Y35858D01*
G01X64259Y35890D01*
G01X64238Y35923D01*
G01X64205Y35957D01*
G01X64159Y35990D01*
G37*

%LPD*%
G36*
G01X65991Y36143D02*
G01X65877Y36229D01*
G01X65824Y36171D01*
G01X65412Y36171D01*
G01X65303Y36216D01*
G01X65303Y35701D01*
G01X65316Y35701D01*
G01X65347Y35705D01*
G01X65375Y35714D01*
G01X65394Y35726D01*
G01X65402Y35734D01*
G01X65402Y35802D01*
G01X65836Y35802D01*
G01X65836Y35708D01*
G01X65854Y35708D01*
G01X65881Y35712D01*
G01X65908Y35721D01*
G01X65929Y35732D01*
G01X65938Y35741D01*
G01X65938Y36117D01*
G01X65956Y36122D01*
G01X65971Y36128D01*
G01X65983Y36135D01*
G01X65991Y36143D01*
G37*

%LPC*%
G36*
G01X65836Y36132D02*
G01X65402Y36132D01*
G01X65402Y35840D01*
G01X65836Y35840D01*
G01X65836Y36132D01*
G37*

%LPD*%
G36*
G01X65595Y35586D02*
G01X65483Y35673D01*
G01X65430Y35614D01*
G01X65204Y35614D01*
G01X65100Y35657D01*
G01X65100Y35088D01*
G01X65115Y35088D01*
G01X65146Y35092D01*
G01X65173Y35101D01*
G01X65192Y35112D01*
G01X65199Y35122D01*
G01X65199Y35205D01*
G01X65443Y35205D01*
G01X65443Y35111D01*
G01X65458Y35111D01*
G01X65486Y35115D01*
G01X65513Y35124D01*
G01X65534Y35134D01*
G01X65542Y35142D01*
G01X65542Y35561D01*
G01X65559Y35565D01*
G01X65575Y35572D01*
G01X65587Y35579D01*
G01X65595Y35586D01*
G37*

%LPC*%
G36*
G01X65443Y35576D02*
G01X65199Y35576D01*
G01X65199Y35243D01*
G01X65443Y35243D01*
G01X65443Y35576D01*
G37*

%LPD*%
G36*
G01X66194Y35586D02*
G01X66080Y35673D01*
G01X66029Y35614D01*
G01X65793Y35614D01*
G01X65689Y35657D01*
G01X65689Y35086D01*
G01X65704Y35086D01*
G01X65736Y35089D01*
G01X65762Y35099D01*
G01X65781Y35109D01*
G01X65788Y35119D01*
G01X65788Y35205D01*
G01X66042Y35205D01*
G01X66042Y35104D01*
G01X66057Y35104D01*
G01X66084Y35107D01*
G01X66112Y35115D01*
G01X66132Y35124D01*
G01X66141Y35132D01*
G01X66141Y35558D01*
G01X66160Y35564D01*
G01X66175Y35572D01*
G01X66187Y35579D01*
G01X66194Y35586D01*
G37*

%LPC*%
G36*
G01X66042Y35576D02*
G01X65788Y35576D01*
G01X65788Y35243D01*
G01X66042Y35243D01*
G01X66042Y35576D01*
G37*

%LPD*%
G36*
G01X63179Y36237D02*
G01X63025Y36254D01*
G01X63025Y35967D01*
G01X62532Y35967D01*
G01X62544Y35932D01*
G01X62951Y35932D01*
G01X62927Y35871D01*
G01X62901Y35810D01*
G01X62872Y35749D01*
G01X62839Y35689D01*
G01X62804Y35631D01*
G01X62766Y35573D01*
G01X62725Y35518D01*
G01X62682Y35464D01*
G01X62635Y35412D01*
G01X62587Y35363D01*
G01X62536Y35317D01*
G01X62484Y35274D01*
G01X62499Y35259D01*
G01X62557Y35294D01*
G01X62612Y35332D01*
G01X62665Y35371D01*
G01X62715Y35413D01*
G01X62763Y35456D01*
G01X62808Y35502D01*
G01X62851Y35549D01*
G01X62891Y35598D01*
G01X62929Y35649D01*
G01X62963Y35701D01*
G01X62995Y35754D01*
G01X63025Y35810D01*
G01X63025Y35401D01*
G01X62755Y35401D01*
G01X62765Y35365D01*
G01X63025Y35365D01*
G01X63025Y35081D01*
G01X63045Y35081D01*
G01X63075Y35084D01*
G01X63101Y35093D01*
G01X63119Y35104D01*
G01X63126Y35116D01*
G01X63126Y35365D01*
G01X63370Y35365D01*
G01X63382Y35366D01*
G01X63392Y35370D01*
G01X63399Y35376D01*
G01X63403Y35386D01*
G01X63366Y35420D01*
G01X63328Y35454D01*
G01X63298Y35480D01*
G01X63286Y35490D01*
G01X63220Y35401D01*
G01X63126Y35401D01*
G01X63126Y35927D01*
G01X63151Y35859D01*
G01X63177Y35793D01*
G01X63207Y35730D01*
G01X63239Y35670D01*
G01X63273Y35612D01*
G01X63310Y35558D01*
G01X63348Y35507D01*
G01X63388Y35459D01*
G01X63429Y35414D01*
G01X63473Y35373D01*
G01X63517Y35335D01*
G01X63563Y35302D01*
G01X63580Y35335D01*
G01X63603Y35361D01*
G01X63632Y35381D01*
G01X63665Y35391D01*
G01X63665Y35401D01*
G01X63615Y35427D01*
G01X63567Y35457D01*
G01X63518Y35492D01*
G01X63470Y35529D01*
G01X63423Y35571D01*
G01X63378Y35615D01*
G01X63334Y35662D01*
G01X63293Y35712D01*
G01X63254Y35764D01*
G01X63217Y35818D01*
G01X63184Y35874D01*
G01X63154Y35932D01*
G01X63599Y35932D01*
G01X63609Y35933D01*
G01X63619Y35936D01*
G01X63627Y35942D01*
G01X63632Y35952D01*
G01X63589Y35989D01*
G01X63546Y36024D01*
G01X63513Y36051D01*
G01X63500Y36061D01*
G01X63431Y35967D01*
G01X63126Y35967D01*
G01X63126Y36198D01*
G01X63150Y36204D01*
G01X63165Y36212D01*
G01X63174Y36223D01*
G01X63179Y36237D01*
G37*

%LPD*%
G36*
G01X64686Y35985D02*
G01X64541Y36016D01*
G01X64523Y35952D01*
G01X64500Y35883D01*
G01X64475Y35813D01*
G01X64449Y35746D01*
G01X64025Y35746D01*
G01X63908Y35795D01*
G01X63908Y35599D01*
G01X63907Y35536D01*
G01X63903Y35472D01*
G01X63896Y35406D01*
G01X63883Y35340D01*
G01X63863Y35274D01*
G01X63835Y35210D01*
G01X63800Y35148D01*
G01X63754Y35088D01*
G01X63769Y35073D01*
G01X63819Y35112D01*
G01X63862Y35153D01*
G01X63898Y35197D01*
G01X63928Y35242D01*
G01X63952Y35288D01*
G01X63970Y35335D01*
G01X63984Y35382D01*
G01X63994Y35429D01*
G01X64001Y35475D01*
G01X64005Y35518D01*
G01X64007Y35560D01*
G01X64008Y35599D01*
G01X64008Y35711D01*
G01X64858Y35711D01*
G01X64870Y35712D01*
G01X64880Y35716D01*
G01X64887Y35722D01*
G01X64891Y35731D01*
G01X64852Y35764D01*
G01X64811Y35796D01*
G01X64780Y35821D01*
G01X64767Y35830D01*
G01X64701Y35746D01*
G01X64485Y35746D01*
G01X64529Y35799D01*
G01X64571Y35854D01*
G01X64609Y35907D01*
G01X64640Y35957D01*
G01X64658Y35959D01*
G01X64671Y35964D01*
G01X64680Y35973D01*
G01X64686Y35985D01*
G37*

%LPD*%

%LPD*%
G36*
G01X64246Y34908D02*
G01X64162Y34923D01*
G01X64150Y34913D01*
G01X64182Y34884D01*
G01X64211Y34848D01*
G01X64234Y34808D01*
G01X64246Y34768D01*
G01X64283Y34756D01*
G01X64314Y34763D01*
G01X64335Y34784D01*
G01X64342Y34815D01*
G01X64333Y34849D01*
G01X64302Y34882D01*
G01X64246Y34908D01*
G37*

%LPD*%
G36*
G01X65425Y34890D02*
G01X65351Y34918D01*
G01X65338Y34908D01*
G01X65385Y34856D01*
G01X65430Y34795D01*
G01X65466Y34729D01*
G01X65486Y34664D01*
G01X65512Y34651D01*
G01X65537Y34649D01*
G01X65557Y34657D01*
G01X65572Y34672D01*
G01X65581Y34695D01*
G01X65582Y34724D01*
G01X65574Y34756D01*
G01X65556Y34790D01*
G01X65526Y34825D01*
G01X65483Y34859D01*
G01X65425Y34890D01*
G37*

%LPD*%
G36*
G01X61275Y34863D02*
G01X61206Y34898D01*
G01X61191Y34890D01*
G01X61234Y34832D01*
G01X61275Y34765D01*
G01X61311Y34695D01*
G01X61335Y34629D01*
G01X61360Y34616D01*
G01X61383Y34613D01*
G01X61401Y34620D01*
G01X61415Y34635D01*
G01X61423Y34657D01*
G01X61424Y34684D01*
G01X61416Y34716D01*
G01X61398Y34751D01*
G01X61370Y34788D01*
G01X61329Y34826D01*
G01X61275Y34863D01*
G37*

%LPD*%
G36*
G01X60665Y34880D02*
G01X60510Y34918D01*
G01X60497Y34837D01*
G01X60481Y34757D01*
G01X60462Y34678D01*
G01X60441Y34600D01*
G01X60417Y34526D01*
G01X60392Y34456D01*
G01X60365Y34391D01*
G01X60337Y34332D01*
G01X60352Y34321D01*
G01X60406Y34387D01*
G01X60455Y34461D01*
G01X60501Y34541D01*
G01X60543Y34626D01*
G01X60886Y34626D01*
G01X60871Y34570D01*
G01X60852Y34509D01*
G01X60833Y34450D01*
G01X60815Y34400D01*
G01X60830Y34390D01*
G01X60875Y34439D01*
G01X60922Y34497D01*
G01X60967Y34556D01*
G01X61003Y34606D01*
G01X61019Y34608D01*
G01X61033Y34610D01*
G01X61043Y34615D01*
G01X61051Y34621D01*
G01X60942Y34728D01*
G01X60881Y34664D01*
G01X60556Y34664D01*
G01X60574Y34709D01*
G01X60590Y34755D01*
G01X60605Y34803D01*
G01X60619Y34852D01*
G01X60637Y34855D01*
G01X60651Y34861D01*
G01X60659Y34870D01*
G01X60665Y34880D01*
G37*

%LPD*%
G36*
G01X59396Y34416D02*
G01X59301Y34451D01*
G01X59288Y34438D01*
G01X59340Y34401D01*
G01X59395Y34358D01*
G01X59452Y34312D01*
G01X59507Y34263D01*
G01X59559Y34213D01*
G01X59606Y34162D01*
G01X59645Y34112D01*
G01X59674Y34065D01*
G01X59698Y34056D01*
G01X59719Y34055D01*
G01X59736Y34060D01*
G01X59749Y34071D01*
G01X59756Y34088D01*
G01X59758Y34110D01*
G01X59753Y34136D01*
G01X59741Y34165D01*
G01X59721Y34198D01*
G01X59692Y34233D01*
G01X59654Y34269D01*
G01X59606Y34306D01*
G01X59548Y34343D01*
G01X59478Y34380D01*
G01X59396Y34416D01*
G37*

%LPD*%
G36*
G01X61887Y34845D02*
G01X61765Y34918D01*
G01X61738Y34891D01*
G01X61707Y34862D01*
G01X61673Y34831D01*
G01X61638Y34801D01*
G01X61544Y34819D01*
G01X61544Y34220D01*
G01X61542Y34205D01*
G01X61537Y34192D01*
G01X61524Y34181D01*
G01X61503Y34169D01*
G01X61561Y34045D01*
G01X61571Y34051D01*
G01X61581Y34061D01*
G01X61591Y34073D01*
G01X61600Y34090D01*
G01X61669Y34136D01*
G01X61732Y34179D01*
G01X61784Y34217D01*
G01X61826Y34245D01*
G01X61821Y34263D01*
G01X61772Y34246D01*
G01X61724Y34230D01*
G01X61678Y34216D01*
G01X61635Y34202D01*
G01X61635Y34751D01*
G01X61692Y34771D01*
G01X61747Y34793D01*
G01X61799Y34814D01*
G01X61841Y34832D01*
G01X61858Y34830D01*
G01X61871Y34831D01*
G01X61881Y34837D01*
G01X61887Y34845D01*
G37*

%LPD*%
G36*
G01X62290Y34753D02*
G01X62179Y34840D01*
G01X62130Y34781D01*
G01X61963Y34781D01*
G01X61859Y34824D01*
G01X61859Y33925D01*
G01X61874Y33925D01*
G01X61906Y33929D01*
G01X61931Y33937D01*
G01X61947Y33948D01*
G01X61953Y33956D01*
G01X61953Y34743D01*
G01X62143Y34743D01*
G01X62143Y34235D01*
G01X62142Y34225D01*
G01X62138Y34217D01*
G01X62130Y34212D01*
G01X62118Y34210D01*
G01X62091Y34211D01*
G01X62052Y34215D01*
G01X62001Y34220D01*
G01X62001Y34199D01*
G01X62031Y34193D01*
G01X62056Y34186D01*
G01X62074Y34177D01*
G01X62087Y34166D01*
G01X62095Y34154D01*
G01X62101Y34138D01*
G01X62105Y34119D01*
G01X62108Y34098D01*
G01X62177Y34112D01*
G01X62216Y34138D01*
G01X62233Y34176D01*
G01X62237Y34225D01*
G01X62237Y34728D01*
G01X62256Y34732D01*
G01X62272Y34738D01*
G01X62283Y34746D01*
G01X62290Y34753D01*
G37*

%LPD*%
G36*
G01X66677Y34784D02*
G01X66570Y34870D01*
G01X66520Y34812D01*
G01X66354Y34812D01*
G01X66258Y34857D01*
G01X66258Y33816D01*
G01X66276Y33816D01*
G01X66305Y33820D01*
G01X66329Y33830D01*
G01X66346Y33843D01*
G01X66352Y33854D01*
G01X66352Y33971D01*
G01X66532Y33971D01*
G01X66532Y33874D01*
G01X66545Y33874D01*
G01X66571Y33878D01*
G01X66597Y33888D01*
G01X66616Y33899D01*
G01X66624Y33907D01*
G01X66624Y34758D01*
G01X66641Y34763D01*
G01X66657Y34769D01*
G01X66669Y34776D01*
G01X66677Y34784D01*
G37*

%LPC*%
G36*
G01X66532Y34245D02*
G01X66352Y34245D01*
G01X66352Y34006D01*
G01X66532Y34006D01*
G01X66532Y34245D01*
G37*
G36*
G01X66532Y34514D02*
G01X66352Y34514D01*
G01X66352Y34283D01*
G01X66532Y34283D01*
G01X66532Y34514D01*
G37*
G36*
G01X66532Y34776D02*
G01X66352Y34776D01*
G01X66352Y34553D01*
G01X66532Y34553D01*
G01X66532Y34776D01*
G37*

%LPD*%
G36*
G01X60403Y34700D02*
G01X60299Y34796D01*
G01X60246Y34733D01*
G01X59875Y34733D01*
G01X59885Y34697D01*
G01X60253Y34697D01*
G01X60239Y34614D01*
G01X60222Y34530D01*
G01X60203Y34446D01*
G01X60180Y34362D01*
G01X60126Y34409D01*
G01X60066Y34458D01*
G01X60000Y34508D01*
G01X59926Y34558D01*
G01X59905Y34547D01*
G01X59964Y34486D01*
G01X60026Y34416D01*
G01X60088Y34342D01*
G01X60147Y34263D01*
G01X60121Y34197D01*
G01X60092Y34132D01*
G01X60061Y34069D01*
G01X60027Y34008D01*
G01X59990Y33949D01*
G01X59950Y33893D01*
G01X59906Y33840D01*
G01X59860Y33791D01*
G01X59875Y33775D01*
G01X59929Y33818D01*
G01X59979Y33863D01*
G01X60025Y33911D01*
G01X60067Y33961D01*
G01X60106Y34014D01*
G01X60142Y34068D01*
G01X60174Y34124D01*
G01X60203Y34182D01*
G01X60238Y34125D01*
G01X60268Y34068D01*
G01X60292Y34014D01*
G01X60309Y33961D01*
G01X60342Y33945D01*
G01X60368Y33950D01*
G01X60385Y33972D01*
G01X60390Y34010D01*
G01X60382Y34062D01*
G01X60357Y34127D01*
G01X60313Y34202D01*
G01X60248Y34286D01*
G01X60267Y34335D01*
G01X60283Y34384D01*
G01X60298Y34434D01*
G01X60312Y34483D01*
G01X60324Y34533D01*
G01X60335Y34583D01*
G01X60344Y34631D01*
G01X60352Y34680D01*
G01X60372Y34684D01*
G01X60386Y34688D01*
G01X60396Y34693D01*
G01X60403Y34700D01*
G37*

%LPD*%
G36*
G01X66012Y34578D02*
G01X65907Y34674D01*
G01X65834Y34614D01*
G01X65006Y34614D01*
G01X65016Y34575D01*
G01X65824Y34575D01*
G01X65787Y34527D01*
G01X65745Y34478D01*
G01X65699Y34430D01*
G01X65650Y34381D01*
G01X65599Y34334D01*
G01X65544Y34287D01*
G01X65488Y34242D01*
G01X65429Y34199D01*
G01X65370Y34157D01*
G01X65310Y34118D01*
G01X65249Y34081D01*
G01X65189Y34047D01*
G01X65178Y34047D01*
G01X65139Y34029D01*
G01X65076Y33986D01*
G01X65003Y33933D01*
G01X64935Y33887D01*
G01X65021Y33765D01*
G01X65028Y33771D01*
G01X65032Y33778D01*
G01X65033Y33786D01*
G01X65031Y33796D01*
G01X65065Y33847D01*
G01X65102Y33901D01*
G01X65136Y33950D01*
G01X65163Y33989D01*
G01X65173Y33999D01*
G01X65183Y34004D01*
G01X65195Y34001D01*
G01X65209Y33989D01*
G01X65251Y33936D01*
G01X65295Y33894D01*
G01X65343Y33859D01*
G01X65395Y33832D01*
G01X65454Y33813D01*
G01X65520Y33800D01*
G01X65597Y33793D01*
G01X65684Y33791D01*
G01X66040Y33791D01*
G01X66048Y33823D01*
G01X66064Y33851D01*
G01X66087Y33872D01*
G01X66118Y33885D01*
G01X66118Y33902D01*
G01X66065Y33899D01*
G01X66015Y33896D01*
G01X65966Y33895D01*
G01X65918Y33893D01*
G01X65822Y33892D01*
G01X65719Y33892D01*
G01X65633Y33894D01*
G01X65555Y33898D01*
G01X65485Y33906D01*
G01X65423Y33919D01*
G01X65366Y33937D01*
G01X65316Y33961D01*
G01X65269Y33991D01*
G01X65227Y34029D01*
G01X65219Y34034D01*
G01X65276Y34058D01*
G01X65332Y34084D01*
G01X65387Y34111D01*
G01X65441Y34139D01*
G01X65493Y34169D01*
G01X65544Y34200D01*
G01X65593Y34232D01*
G01X65641Y34266D01*
G01X65687Y34300D01*
G01X65732Y34335D01*
G01X65774Y34371D01*
G01X65814Y34407D01*
G01X65853Y34444D01*
G01X65888Y34482D01*
G01X65922Y34520D01*
G01X65953Y34558D01*
G01X65976Y34560D01*
G01X65992Y34563D01*
G01X66003Y34569D01*
G01X66012Y34578D01*
G37*

%LPD*%
G36*
G01X61457Y34456D02*
G01X61338Y34553D01*
G01X61282Y34484D01*
G01X61127Y34484D01*
G01X61135Y34446D01*
G01X61302Y34446D01*
G01X61302Y34009D01*
G01X61257Y33977D01*
G01X61161Y33905D01*
G01X61117Y33874D01*
G01X61198Y33760D01*
G01X61204Y33768D01*
G01X61208Y33775D01*
G01X61209Y33783D01*
G01X61208Y33791D01*
G01X61243Y33842D01*
G01X61283Y33896D01*
G01X61319Y33946D01*
G01X61346Y33986D01*
G01X61356Y33995D01*
G01X61366Y33999D01*
G01X61378Y33997D01*
G01X61389Y33986D01*
G01X61433Y33934D01*
G01X61479Y33891D01*
G01X61528Y33856D01*
G01X61582Y33829D01*
G01X61642Y33809D01*
G01X61709Y33796D01*
G01X61787Y33788D01*
G01X61874Y33785D01*
G01X62242Y33785D01*
G01X62250Y33817D01*
G01X62265Y33843D01*
G01X62287Y33863D01*
G01X62316Y33874D01*
G01X62316Y33892D01*
G01X62263Y33889D01*
G01X62211Y33886D01*
G01X62161Y33885D01*
G01X62112Y33883D01*
G01X62062Y33882D01*
G01X61907Y33882D01*
G01X61819Y33884D01*
G01X61741Y33888D01*
G01X61670Y33896D01*
G01X61607Y33909D01*
G01X61550Y33928D01*
G01X61498Y33953D01*
G01X61452Y33985D01*
G01X61409Y34024D01*
G01X61406Y34028D01*
G01X61401Y34030D01*
G01X61397Y34032D01*
G01X61394Y34034D01*
G01X61394Y34431D01*
G01X61418Y34435D01*
G01X61436Y34441D01*
G01X61449Y34448D01*
G01X61457Y34456D01*
G37*

%LPD*%
G36*
G01X69865Y34796D02*
G01X69740Y34890D01*
G01X69687Y34827D01*
G01X69032Y34827D01*
G01X68912Y34875D01*
G01X68912Y34375D01*
G01X68910Y34315D01*
G01X68908Y34256D01*
G01X68903Y34197D01*
G01X68896Y34139D01*
G01X68886Y34081D01*
G01X68874Y34025D01*
G01X68858Y33970D01*
G01X68838Y33917D01*
G01X68814Y33864D01*
G01X68786Y33814D01*
G01X68752Y33765D01*
G01X68773Y33752D01*
G01X68824Y33799D01*
G01X68867Y33848D01*
G01X68903Y33901D01*
G01X68932Y33955D01*
G01X68956Y34012D01*
G01X68974Y34069D01*
G01X68988Y34128D01*
G01X68999Y34187D01*
G01X69293Y34187D01*
G01X69293Y33760D01*
G01X69314Y33760D01*
G01X69348Y33764D01*
G01X69375Y33774D01*
G01X69391Y33785D01*
G01X69397Y33793D01*
G01X69397Y34187D01*
G01X69702Y34187D01*
G01X69702Y33902D01*
G01X69701Y33891D01*
G01X69697Y33881D01*
G01X69687Y33876D01*
G01X69672Y33874D01*
G01X69636Y33876D01*
G01X69583Y33880D01*
G01X69535Y33885D01*
G01X69514Y33887D01*
G01X69514Y33864D01*
G01X69553Y33858D01*
G01X69584Y33849D01*
G01X69607Y33839D01*
G01X69623Y33829D01*
G01X69637Y33814D01*
G01X69645Y33798D01*
G01X69651Y33778D01*
G01X69654Y33755D01*
G01X69734Y33772D01*
G01X69779Y33801D01*
G01X69799Y33841D01*
G01X69804Y33892D01*
G01X69804Y34768D01*
G01X69825Y34773D01*
G01X69842Y34780D01*
G01X69855Y34788D01*
G01X69865Y34796D01*
G37*

%LPC*%
G36*
G01X69702Y34494D02*
G01X69397Y34494D01*
G01X69397Y34225D01*
G01X69702Y34225D01*
G01X69702Y34494D01*
G37*
G36*
G01X69293Y34494D02*
G01X69016Y34494D01*
G01X69016Y34386D01*
G01X69014Y34334D01*
G01X69011Y34280D01*
G01X69006Y34225D01*
G01X69293Y34225D01*
G01X69293Y34494D01*
G37*
G36*
G01X69293Y34791D02*
G01X69016Y34791D01*
G01X69016Y34530D01*
G01X69293Y34530D01*
G01X69293Y34791D01*
G37*
G36*
G01X69702Y34791D02*
G01X69397Y34791D01*
G01X69397Y34530D01*
G01X69702Y34530D01*
G01X69702Y34791D01*
G37*

%LPD*%
G36*
G01X63840Y34812D02*
G01X63820Y34812D01*
G01X63814Y34755D01*
G01X63795Y34704D01*
G01X63765Y34662D01*
G01X63728Y34634D01*
G01X63709Y34620D01*
G01X63695Y34602D01*
G01X63689Y34581D01*
G01X63693Y34558D01*
G01X63709Y34538D01*
G01X63735Y34531D01*
G01X63763Y34534D01*
G01X63792Y34547D01*
G01X63819Y34572D01*
G01X63842Y34609D01*
G01X63856Y34657D01*
G01X63858Y34715D01*
G01X64099Y34715D01*
G01X64063Y34651D01*
G01X64023Y34589D01*
G01X63980Y34531D01*
G01X63934Y34477D01*
G01X63887Y34427D01*
G01X63838Y34382D01*
G01X63789Y34342D01*
G01X63741Y34309D01*
G01X63756Y34288D01*
G01X63797Y34308D01*
G01X63838Y34329D01*
G01X63879Y34351D01*
G01X63920Y34377D01*
G01X63959Y34404D01*
G01X63998Y34433D01*
G01X64036Y34465D01*
G01X64074Y34499D01*
G01X64102Y34455D01*
G01X64136Y34413D01*
G01X64172Y34374D01*
G01X64211Y34337D01*
G01X64152Y34297D01*
G01X64090Y34258D01*
G01X64025Y34221D01*
G01X63958Y34187D01*
G01X63889Y34155D01*
G01X63819Y34126D01*
G01X63747Y34100D01*
G01X63675Y34078D01*
G01X63685Y34057D01*
G01X63751Y34073D01*
G01X63819Y34091D01*
G01X63886Y34112D01*
G01X63952Y34133D01*
G01X63952Y33752D01*
G01X63969Y33752D01*
G01X64004Y33757D01*
G01X64030Y33767D01*
G01X64047Y33779D01*
G01X64053Y33788D01*
G01X64053Y33834D01*
G01X64482Y33834D01*
G01X64482Y33760D01*
G01X64500Y33760D01*
G01X64527Y33763D01*
G01X64555Y33771D01*
G01X64575Y33780D01*
G01X64584Y33788D01*
G01X64584Y34083D01*
G01X64601Y34087D01*
G01X64615Y34093D01*
G01X64627Y34100D01*
G01X64635Y34108D01*
G01X64597Y34133D01*
G01X64639Y34122D01*
G01X64682Y34111D01*
G01X64726Y34100D01*
G01X64770Y34090D01*
G01X64781Y34125D01*
G01X64799Y34152D01*
G01X64824Y34172D01*
G01X64856Y34182D01*
G01X64858Y34197D01*
G01X64790Y34207D01*
G01X64722Y34218D01*
G01X64654Y34231D01*
G01X64588Y34246D01*
G01X64524Y34263D01*
G01X64461Y34284D01*
G01X64401Y34306D01*
G01X64343Y34332D01*
G01X64407Y34378D01*
G01X64466Y34427D01*
G01X64518Y34476D01*
G01X64564Y34527D01*
G01X64587Y34529D01*
G01X64605Y34532D01*
G01X64618Y34536D01*
G01X64627Y34542D01*
G01X64518Y34649D01*
G01X64444Y34586D01*
G01X64147Y34586D01*
G01X64157Y34597D01*
G01X64166Y34608D01*
G01X64175Y34620D01*
G01X64183Y34631D01*
G01X64202Y34630D01*
G01X64216Y34633D01*
G01X64227Y34640D01*
G01X64236Y34649D01*
G01X64104Y34715D01*
G01X64681Y34715D01*
G01X64672Y34675D01*
G01X64663Y34633D01*
G01X64654Y34593D01*
G01X64645Y34558D01*
G01X64658Y34550D01*
G01X64694Y34583D01*
G01X64731Y34620D01*
G01X64765Y34658D01*
G01X64792Y34695D01*
G01X64808Y34696D01*
G01X64821Y34698D01*
G01X64832Y34702D01*
G01X64841Y34707D01*
G01X64731Y34812D01*
G01X64673Y34753D01*
G01X63855Y34753D01*
G01X63853Y34767D01*
G01X63850Y34782D01*
G01X63845Y34796D01*
G01X63840Y34812D01*
G37*

%LPC*%
G36*
G01X64482Y34098D02*
G01X64053Y34098D01*
G01X64053Y33872D01*
G01X64482Y33872D01*
G01X64482Y34098D01*
G37*
G36*
G01X64326Y34254D02*
G01X64274Y34288D01*
G01X64212Y34253D01*
G01X64147Y34219D01*
G01X64081Y34187D01*
G01X64013Y34159D01*
G01X64066Y34136D01*
G01X64470Y34136D01*
G01X64500Y34166D01*
G01X64439Y34193D01*
G01X64380Y34222D01*
G01X64326Y34254D01*
G37*
G36*
G01X64437Y34547D02*
G01X64117Y34547D01*
G01X64098Y34528D01*
G01X64094Y34522D01*
G01X64129Y34480D01*
G01X64170Y34442D01*
G01X64215Y34408D01*
G01X64264Y34377D01*
G01X64314Y34418D01*
G01X64360Y34461D01*
G01X64401Y34504D01*
G01X64437Y34547D01*
G37*

%LPD*%
G36*
G01X68326Y34903D02*
G01X68181Y34918D01*
G01X68181Y34738D01*
G01X67840Y34738D01*
G01X67851Y34700D01*
G01X68181Y34700D01*
G01X68181Y34563D01*
G01X67985Y34563D01*
G01X67881Y34606D01*
G01X67881Y34182D01*
G01X67894Y34182D01*
G01X67925Y34185D01*
G01X67953Y34194D01*
G01X67972Y34205D01*
G01X67980Y34215D01*
G01X67980Y34255D01*
G01X68178Y34255D01*
G01X68171Y34191D01*
G01X68157Y34132D01*
G01X68138Y34078D01*
G01X68112Y34027D01*
G01X68072Y34061D01*
G01X68034Y34097D01*
G01X68000Y34138D01*
G01X67972Y34182D01*
G01X67955Y34172D01*
G01X67980Y34115D01*
G01X68010Y34064D01*
G01X68043Y34018D01*
G01X68079Y33976D01*
G01X68053Y33944D01*
G01X68022Y33915D01*
G01X67988Y33887D01*
G01X67951Y33861D01*
G01X67909Y33836D01*
G01X67863Y33813D01*
G01X67813Y33791D01*
G01X67759Y33770D01*
G01X67769Y33750D01*
G01X67829Y33766D01*
G01X67884Y33784D01*
G01X67935Y33803D01*
G01X67982Y33824D01*
G01X68025Y33847D01*
G01X68063Y33871D01*
G01X68098Y33897D01*
G01X68130Y33925D01*
G01X68175Y33893D01*
G01X68222Y33863D01*
G01X68274Y33837D01*
G01X68329Y33814D01*
G01X68388Y33794D01*
G01X68450Y33777D01*
G01X68517Y33764D01*
G01X68587Y33752D01*
G01X68599Y33786D01*
G01X68618Y33815D01*
G01X68643Y33836D01*
G01X68673Y33849D01*
G01X68673Y33864D01*
G01X68603Y33869D01*
G01X68535Y33876D01*
G01X68469Y33887D01*
G01X68406Y33900D01*
G01X68345Y33916D01*
G01X68288Y33935D01*
G01X68234Y33957D01*
G01X68183Y33981D01*
G01X68220Y34043D01*
G01X68247Y34109D01*
G01X68266Y34180D01*
G01X68277Y34255D01*
G01X68480Y34255D01*
G01X68480Y34189D01*
G01X68498Y34189D01*
G01X68524Y34193D01*
G01X68551Y34202D01*
G01X68572Y34212D01*
G01X68582Y34220D01*
G01X68582Y34509D01*
G01X68599Y34513D01*
G01X68615Y34519D01*
G01X68627Y34525D01*
G01X68635Y34532D01*
G01X68521Y34621D01*
G01X68468Y34563D01*
G01X68280Y34563D01*
G01X68280Y34700D01*
G01X68628Y34700D01*
G01X68640Y34701D01*
G01X68650Y34704D01*
G01X68657Y34711D01*
G01X68661Y34720D01*
G01X68622Y34754D01*
G01X68582Y34787D01*
G01X68550Y34812D01*
G01X68536Y34822D01*
G01X68468Y34738D01*
G01X68280Y34738D01*
G01X68280Y34868D01*
G01X68301Y34873D01*
G01X68314Y34881D01*
G01X68322Y34891D01*
G01X68326Y34903D01*
G37*

%LPC*%
G36*
G01X68181Y34527D02*
G01X67980Y34527D01*
G01X67980Y34293D01*
G01X68181Y34293D01*
G01X68181Y34527D01*
G37*
G36*
G01X68480Y34527D02*
G01X68280Y34527D01*
G01X68280Y34293D01*
G01X68480Y34293D01*
G01X68480Y34527D01*
G37*

%LPD*%
G36*
G01X67901Y34875D02*
G01X67749Y34921D01*
G01X67733Y34860D01*
G01X67715Y34799D01*
G01X67696Y34739D01*
G01X67674Y34680D01*
G01X67652Y34622D01*
G01X67629Y34565D01*
G01X67605Y34511D01*
G01X67580Y34459D01*
G01X67554Y34409D01*
G01X67528Y34362D01*
G01X67501Y34318D01*
G01X67475Y34278D01*
G01X67492Y34268D01*
G01X67533Y34307D01*
G01X67572Y34349D01*
G01X67609Y34395D01*
G01X67645Y34443D01*
G01X67645Y33750D01*
G01X67663Y33750D01*
G01X67693Y33754D01*
G01X67719Y33763D01*
G01X67738Y33773D01*
G01X67746Y33780D01*
G01X67746Y34537D01*
G01X67760Y34539D01*
G01X67771Y34543D01*
G01X67778Y34550D01*
G01X67782Y34558D01*
G01X67729Y34578D01*
G01X67764Y34641D01*
G01X67796Y34708D01*
G01X67826Y34777D01*
G01X67853Y34847D01*
G01X67872Y34848D01*
G01X67886Y34853D01*
G01X67896Y34863D01*
G01X67901Y34875D01*
G37*

%LPD*%
G36*
G01X63474Y34807D02*
G01X63367Y34890D01*
G01X63324Y34840D01*
G01X62816Y34840D01*
G01X62826Y34801D01*
G01X62961Y34801D01*
G01X62961Y34726D01*
G01X62960Y34651D01*
G01X62959Y34578D01*
G01X62957Y34506D01*
G01X62954Y34435D01*
G01X62950Y34366D01*
G01X62944Y34298D01*
G01X62935Y34232D01*
G01X62924Y34167D01*
G01X62911Y34104D01*
G01X62893Y34043D01*
G01X62873Y33984D01*
G01X62848Y33926D01*
G01X62819Y33870D01*
G01X62786Y33816D01*
G01X62748Y33765D01*
G01X62765Y33747D01*
G01X62814Y33794D01*
G01X62857Y33842D01*
G01X62895Y33893D01*
G01X62927Y33946D01*
G01X62955Y34001D01*
G01X62978Y34058D01*
G01X62998Y34117D01*
G01X63013Y34178D01*
G01X63026Y34241D01*
G01X63036Y34306D01*
G01X63044Y34372D01*
G01X63050Y34441D01*
G01X63063Y34378D01*
G01X63078Y34318D01*
G01X63095Y34261D01*
G01X63114Y34206D01*
G01X63135Y34154D01*
G01X63158Y34104D01*
G01X63183Y34057D01*
G01X63210Y34012D01*
G01X63176Y33975D01*
G01X63141Y33940D01*
G01X63103Y33907D01*
G01X63062Y33875D01*
G01X63019Y33845D01*
G01X62973Y33816D01*
G01X62924Y33790D01*
G01X62872Y33765D01*
G01X62885Y33747D01*
G01X62941Y33767D01*
G01X62994Y33789D01*
G01X63044Y33813D01*
G01X63091Y33838D01*
G01X63134Y33865D01*
G01X63175Y33894D01*
G01X63214Y33924D01*
G01X63251Y33956D01*
G01X63305Y33895D01*
G01X63366Y33841D01*
G01X63434Y33794D01*
G01X63510Y33752D01*
G01X63524Y33784D01*
G01X63544Y33809D01*
G01X63567Y33828D01*
G01X63591Y33839D01*
G01X63596Y33852D01*
G01X63516Y33882D01*
G01X63444Y33922D01*
G01X63379Y33969D01*
G01X63319Y34024D01*
G01X63355Y34068D01*
G01X63387Y34114D01*
G01X63417Y34162D01*
G01X63444Y34212D01*
G01X63468Y34263D01*
G01X63489Y34316D01*
G01X63509Y34370D01*
G01X63525Y34426D01*
G01X63545Y34429D01*
G01X63559Y34433D01*
G01X63570Y34438D01*
G01X63578Y34446D01*
G01X63474Y34537D01*
G01X63413Y34479D01*
G01X63296Y34479D01*
G01X63329Y34555D01*
G01X63362Y34637D01*
G01X63394Y34716D01*
G01X63421Y34784D01*
G01X63438Y34787D01*
G01X63453Y34792D01*
G01X63466Y34799D01*
G01X63474Y34807D01*
G37*

%LPC*%
G36*
G01X63324Y34801D02*
G01X63060Y34801D01*
G01X63059Y34691D01*
G01X63058Y34636D01*
G01X63058Y34580D01*
G01X63072Y34509D01*
G01X63091Y34440D01*
G01X63111Y34374D01*
G01X63136Y34310D01*
G01X63164Y34249D01*
G01X63194Y34191D01*
G01X63228Y34136D01*
G01X63266Y34085D01*
G01X63292Y34126D01*
G01X63317Y34167D01*
G01X63338Y34211D01*
G01X63359Y34254D01*
G01X63377Y34300D01*
G01X63393Y34346D01*
G01X63408Y34393D01*
G01X63421Y34441D01*
G01X63289Y34441D01*
G01X63251Y34405D01*
G01X63159Y34474D01*
G01X63168Y34478D01*
G01X63179Y34484D01*
G01X63192Y34491D01*
G01X63205Y34497D01*
G01X63235Y34566D01*
G01X63267Y34646D01*
G01X63298Y34728D01*
G01X63324Y34801D01*
G37*

%LPD*%
G36*
G01X62753Y34908D02*
G01X62608Y34926D01*
G01X62608Y34621D01*
G01X62410Y34621D01*
G01X62417Y34586D01*
G01X62588Y34586D01*
G01X62573Y34512D01*
G01X62556Y34439D01*
G01X62535Y34368D01*
G01X62512Y34298D01*
G01X62487Y34231D01*
G01X62457Y34166D01*
G01X62425Y34105D01*
G01X62390Y34047D01*
G01X62407Y34029D01*
G01X62467Y34098D01*
G01X62520Y34170D01*
G01X62567Y34246D01*
G01X62608Y34326D01*
G01X62608Y33747D01*
G01X62628Y33747D01*
G01X62655Y33751D01*
G01X62680Y33760D01*
G01X62697Y33771D01*
G01X62704Y33780D01*
G01X62704Y34441D01*
G01X62735Y34396D01*
G01X62765Y34346D01*
G01X62789Y34297D01*
G01X62804Y34250D01*
G01X62835Y34234D01*
G01X62862Y34238D01*
G01X62882Y34258D01*
G01X62888Y34291D01*
G01X62878Y34332D01*
G01X62847Y34378D01*
G01X62790Y34425D01*
G01X62704Y34469D01*
G01X62704Y34586D01*
G01X62882Y34586D01*
G01X62894Y34587D01*
G01X62905Y34590D01*
G01X62912Y34596D01*
G01X62915Y34606D01*
G01X62883Y34637D01*
G01X62820Y34691D01*
G01X62809Y34700D01*
G01X62750Y34621D01*
G01X62704Y34621D01*
G01X62704Y34875D01*
G01X62725Y34880D01*
G01X62739Y34887D01*
G01X62748Y34896D01*
G01X62753Y34908D01*
G37*

%LPD*%
G36*
G01X60756Y34525D02*
G01X60606Y34563D01*
G01X60605Y34506D01*
G01X60603Y34451D01*
G01X60599Y34397D01*
G01X60594Y34343D01*
G01X60587Y34290D01*
G01X60576Y34239D01*
G01X60564Y34188D01*
G01X60548Y34138D01*
G01X60528Y34088D01*
G01X60504Y34040D01*
G01X60476Y33993D01*
G01X60444Y33946D01*
G01X60406Y33900D01*
G01X60363Y33855D01*
G01X60314Y33811D01*
G01X60258Y33768D01*
G01X60276Y33747D01*
G01X60349Y33790D01*
G01X60413Y33835D01*
G01X60468Y33880D01*
G01X60516Y33928D01*
G01X60556Y33977D01*
G01X60590Y34027D01*
G01X60618Y34078D01*
G01X60640Y34130D01*
G01X60658Y34184D01*
G01X60672Y34237D01*
G01X60683Y34292D01*
G01X60690Y34347D01*
G01X60698Y34287D01*
G01X60708Y34228D01*
G01X60719Y34171D01*
G01X60733Y34115D01*
G01X60750Y34060D01*
G01X60770Y34007D01*
G01X60792Y33958D01*
G01X60818Y33910D01*
G01X60847Y33865D01*
G01X60881Y33824D01*
G01X60918Y33786D01*
G01X60960Y33752D01*
G01X60971Y33794D01*
G01X60992Y33823D01*
G01X61019Y33843D01*
G01X61053Y33854D01*
G01X61056Y33869D01*
G01X60998Y33904D01*
G01X60946Y33942D01*
G01X60901Y33983D01*
G01X60861Y34027D01*
G01X60827Y34075D01*
G01X60797Y34124D01*
G01X60773Y34177D01*
G01X60752Y34232D01*
G01X60735Y34290D01*
G01X60722Y34350D01*
G01X60711Y34412D01*
G01X60703Y34476D01*
G01X60706Y34499D01*
G01X60726Y34501D01*
G01X60741Y34506D01*
G01X60751Y34514D01*
G01X60756Y34525D01*
G37*

%LPD*%
G36*
G01X59635Y34885D02*
G01X59621Y34895D01*
G01X59547Y34807D01*
G01X58605Y34807D01*
G01X58615Y34768D01*
G01X59169Y34768D01*
G01X59149Y34717D01*
G01X59127Y34664D01*
G01X59101Y34612D01*
G01X59073Y34560D01*
G01X59043Y34507D01*
G01X59010Y34455D01*
G01X58975Y34403D01*
G01X58938Y34352D01*
G01X58899Y34302D01*
G01X58858Y34253D01*
G01X58815Y34205D01*
G01X58772Y34159D01*
G01X58726Y34114D01*
G01X58680Y34071D01*
G01X58633Y34030D01*
G01X58585Y33991D01*
G01X58597Y33976D01*
G01X58649Y34007D01*
G01X58699Y34041D01*
G01X58749Y34077D01*
G01X58796Y34114D01*
G01X58843Y34152D01*
G01X58888Y34192D01*
G01X58933Y34234D01*
G01X58975Y34277D01*
G01X59015Y34321D01*
G01X59055Y34366D01*
G01X59092Y34412D01*
G01X59128Y34459D01*
G01X59128Y33747D01*
G01X59146Y33747D01*
G01X59176Y33750D01*
G01X59203Y33759D01*
G01X59222Y33768D01*
G01X59230Y33775D01*
G01X59230Y34525D01*
G01X59246Y34528D01*
G01X59258Y34533D01*
G01X59266Y34540D01*
G01X59270Y34547D01*
G01X59204Y34573D01*
G01X59232Y34621D01*
G01X59259Y34670D01*
G01X59283Y34719D01*
G01X59303Y34768D01*
G01X59723Y34768D01*
G01X59735Y34769D01*
G01X59746Y34773D01*
G01X59754Y34778D01*
G01X59758Y34786D01*
G01X59714Y34823D01*
G01X59670Y34858D01*
G01X59635Y34885D01*
G37*

%LPD*%
G36*
G01X67337Y34809D02*
G01X67231Y34895D01*
G01X67177Y34840D01*
G01X66852Y34840D01*
G01X66743Y34890D01*
G01X66743Y33907D01*
G01X66741Y33889D01*
G01X66734Y33875D01*
G01X66721Y33863D01*
G01X66697Y33849D01*
G01X66746Y33745D01*
G01X66752Y33748D01*
G01X66760Y33753D01*
G01X66768Y33761D01*
G01X66776Y33770D01*
G01X66860Y33818D01*
G01X66938Y33865D01*
G01X67005Y33905D01*
G01X67058Y33938D01*
G01X67050Y33956D01*
G01X66995Y33937D01*
G01X66940Y33920D01*
G01X66888Y33904D01*
G01X66840Y33890D01*
G01X66840Y34352D01*
G01X66967Y34352D01*
G01X66982Y34283D01*
G01X66999Y34218D01*
G01X67019Y34156D01*
G01X67041Y34097D01*
G01X67067Y34042D01*
G01X67094Y33991D01*
G01X67125Y33942D01*
G01X67159Y33898D01*
G01X67195Y33857D01*
G01X67235Y33819D01*
G01X67278Y33785D01*
G01X67325Y33755D01*
G01X67337Y33787D01*
G01X67356Y33813D01*
G01X67379Y33830D01*
G01X67406Y33839D01*
G01X67409Y33854D01*
G01X67366Y33872D01*
G01X67325Y33894D01*
G01X67286Y33920D01*
G01X67248Y33949D01*
G01X67212Y33980D01*
G01X67179Y34015D01*
G01X67147Y34051D01*
G01X67116Y34090D01*
G01X67183Y34121D01*
G01X67245Y34154D01*
G01X67300Y34187D01*
G01X67343Y34215D01*
G01X67355Y34212D01*
G01X67365Y34212D01*
G01X67374Y34214D01*
G01X67381Y34220D01*
G01X67279Y34299D01*
G01X67245Y34259D01*
G01X67202Y34211D01*
G01X67153Y34159D01*
G01X67104Y34113D01*
G01X67070Y34167D01*
G01X67039Y34226D01*
G01X67012Y34288D01*
G01X66989Y34352D01*
G01X67190Y34352D01*
G01X67190Y34304D01*
G01X67205Y34304D01*
G01X67232Y34308D01*
G01X67257Y34317D01*
G01X67276Y34329D01*
G01X67284Y34337D01*
G01X67284Y34784D01*
G01X67303Y34788D01*
G01X67319Y34794D01*
G01X67331Y34801D01*
G01X67337Y34809D01*
G37*

%LPC*%
G36*
G01X67190Y34578D02*
G01X66840Y34578D01*
G01X66840Y34387D01*
G01X67190Y34387D01*
G01X67190Y34578D01*
G37*
G36*
G01X67190Y34801D02*
G01X66840Y34801D01*
G01X66840Y34616D01*
G01X67190Y34616D01*
G01X67190Y34801D01*
G37*

%LPD*%
G54D14*
G01X25907Y53729D02*
G01X26687Y53729D01*
G01X26842Y53780D01*
G01X26946Y53884D01*
G01X27000Y54042D01*
G01X27000Y54146D01*
G01X26946Y54301D01*
G01X26842Y54405D01*
G01X26687Y54456D01*
G01X25907Y54456D01*
G01X26116Y54799D02*
G01X26062Y54903D01*
G01X25907Y55060D01*
G01X27000Y55060D01*
G01X27056Y62782D02*
G01X26951Y62728D01*
G01X26847Y62624D01*
G01X26796Y62523D01*
G01X26796Y62314D01*
G01X26847Y62210D01*
G01X26951Y62106D01*
G01X27056Y62053D01*
G01X27210Y62002D01*
G01X27470Y62002D01*
G01X27627Y62053D01*
G01X27731Y62106D01*
G01X27835Y62210D01*
G01X27886Y62314D01*
G01X27886Y62523D01*
G01X27835Y62624D01*
G01X27731Y62728D01*
G01X27627Y62782D01*
G01X27002Y63124D02*
G01X26951Y63229D01*
G01X26796Y63384D01*
G01X27886Y63384D01*
G01X3003Y50022D02*
G01X2899Y49969D01*
G01X2795Y49865D01*
G01X2744Y49763D01*
G01X2744Y49555D01*
G01X2795Y49451D01*
G01X2899Y49347D01*
G01X3003Y49293D01*
G01X3158Y49242D01*
G01X3417Y49242D01*
G01X3574Y49293D01*
G01X3678Y49347D01*
G01X3783Y49451D01*
G01X3833Y49555D01*
G01X3833Y49763D01*
G01X3783Y49865D01*
G01X3678Y49969D01*
G01X3574Y50022D01*
G01X3003Y50416D02*
G01X2949Y50416D01*
G01X2845Y50469D01*
G01X2795Y50520D01*
G01X2744Y50624D01*
G01X2744Y50832D01*
G01X2795Y50937D01*
G01X2845Y50987D01*
G01X2949Y51041D01*
G01X3054Y51041D01*
G01X3158Y50987D01*
G01X3315Y50883D01*
G01X3833Y50365D01*
G01X3833Y51091D01*
G01X30243Y51118D02*
G01X30190Y51223D01*
G01X30086Y51327D01*
G01X29984Y51378D01*
G01X29776Y51378D01*
G01X29672Y51327D01*
G01X29567Y51223D01*
G01X29514Y51118D01*
G01X29463Y50964D01*
G01X29463Y50704D01*
G01X29514Y50547D01*
G01X29567Y50443D01*
G01X29672Y50339D01*
G01X29776Y50288D01*
G01X29984Y50288D01*
G01X30086Y50339D01*
G01X30190Y50443D01*
G01X30243Y50547D01*
G01X30690Y51378D02*
G01X31262Y51378D01*
G01X30949Y50964D01*
G01X31104Y50964D01*
G01X31208Y50910D01*
G01X31262Y50859D01*
G01X31312Y50704D01*
G01X31312Y50600D01*
G01X31262Y50443D01*
G01X31157Y50339D01*
G01X31000Y50288D01*
G01X30845Y50288D01*
G01X30690Y50339D01*
G01X30637Y50392D01*
G01X30586Y50496D01*
G01X6412Y49038D02*
G01X6412Y47949D01*
G01X6412Y49038D02*
G01X6879Y49038D01*
G01X7034Y48987D01*
G01X7087Y48937D01*
G01X7138Y48832D01*
G01X7138Y48728D01*
G01X7087Y48624D01*
G01X7034Y48571D01*
G01X6879Y48520D01*
G01X6412Y48520D01*
G01X6775Y48520D02*
G01X7138Y47949D01*
G01X7534Y48779D02*
G01X7534Y48832D01*
G01X7585Y48937D01*
G01X7638Y48987D01*
G01X7743Y49038D01*
G01X7948Y49038D01*
G01X8052Y48987D01*
G01X8106Y48937D01*
G01X8157Y48832D01*
G01X8157Y48728D01*
G01X8106Y48624D01*
G01X8002Y48467D01*
G01X7481Y47949D01*
G01X8210Y47949D01*
G01X10929Y62620D02*
G01X12019Y62620D01*
G01X10929Y62620D02*
G01X10929Y62983D01*
G01X10980Y63140D01*
G01X11084Y63242D01*
G01X11188Y63295D01*
G01X11343Y63346D01*
G01X11602Y63346D01*
G01X11760Y63295D01*
G01X11864Y63242D01*
G01X11968Y63140D01*
G01X12019Y62983D01*
G01X12019Y62620D01*
G01X11135Y63689D02*
G01X11084Y63793D01*
G01X10929Y63951D01*
G01X12019Y63951D01*
G01X30942Y60776D02*
G01X30942Y59683D01*
G01X30942Y59683D02*
G01X31564Y59683D01*
G01X31907Y60567D02*
G01X32011Y60618D01*
G01X32168Y60776D01*
G01X32168Y59683D01*
G01X10642Y61030D02*
G01X10589Y61134D01*
G01X10485Y61238D01*
G01X10383Y61289D01*
G01X10175Y61289D01*
G01X10071Y61238D01*
G01X9967Y61134D01*
G01X9913Y61030D01*
G01X9863Y60875D01*
G01X9863Y60616D01*
G01X9913Y60458D01*
G01X9967Y60354D01*
G01X10071Y60250D01*
G01X10175Y60199D01*
G01X10383Y60199D01*
G01X10485Y60250D01*
G01X10589Y60354D01*
G01X10642Y60458D01*
G01X11503Y61289D02*
G01X10985Y60562D01*
G01X11765Y60562D01*
G01X11503Y61289D02*
G01X11503Y60199D01*
G01X10495Y54934D02*
G01X11584Y55660D01*
G01X10495Y55660D02*
G01X11584Y54934D01*
G01X10701Y56003D02*
G01X10650Y56107D01*
G01X10495Y56264D01*
G01X11584Y56264D01*
G01X10385Y51162D02*
G01X10332Y51266D01*
G01X10228Y51370D01*
G01X10126Y51421D01*
G01X9918Y51421D01*
G01X9814Y51370D01*
G01X9710Y51266D01*
G01X9656Y51162D01*
G01X9605Y51007D01*
G01X9605Y50748D01*
G01X9656Y50590D01*
G01X9710Y50486D01*
G01X9814Y50382D01*
G01X9918Y50331D01*
G01X10126Y50331D01*
G01X10228Y50382D01*
G01X10332Y50486D01*
G01X10385Y50590D01*
G01X11350Y51266D02*
G01X11300Y51370D01*
G01X11142Y51421D01*
G01X11041Y51421D01*
G01X10883Y51370D01*
G01X10779Y51215D01*
G01X10728Y50953D01*
G01X10728Y50694D01*
G01X10779Y50486D01*
G01X10883Y50382D01*
G01X11041Y50331D01*
G01X11091Y50331D01*
G01X11246Y50382D01*
G01X11350Y50486D01*
G01X11404Y50643D01*
G01X11404Y50694D01*
G01X11350Y50849D01*
G01X11246Y50953D01*
G01X11091Y51007D01*
G01X11041Y51007D01*
G01X10883Y50953D01*
G01X10779Y50849D01*
G01X10728Y50694D01*
G01X10642Y59163D02*
G01X10589Y59267D01*
G01X10485Y59371D01*
G01X10383Y59422D01*
G01X10175Y59422D01*
G01X10071Y59371D01*
G01X9967Y59267D01*
G01X9913Y59163D01*
G01X9863Y59008D01*
G01X9863Y58749D01*
G01X9913Y58591D01*
G01X9967Y58487D01*
G01X10071Y58383D01*
G01X10175Y58332D01*
G01X10383Y58332D01*
G01X10485Y58383D01*
G01X10589Y58487D01*
G01X10642Y58591D01*
G01X11712Y59422D02*
G01X11194Y58332D01*
G01X10985Y59422D02*
G01X11712Y59422D01*
G01X31594Y58484D02*
G01X31541Y58589D01*
G01X31437Y58693D01*
G01X31335Y58744D01*
G01X31127Y58744D01*
G01X31023Y58693D01*
G01X30919Y58589D01*
G01X30865Y58484D01*
G01X30815Y58330D01*
G01X30815Y58070D01*
G01X30865Y57913D01*
G01X30919Y57809D01*
G01X31023Y57705D01*
G01X31127Y57654D01*
G01X31335Y57654D01*
G01X31437Y57705D01*
G01X31541Y57809D01*
G01X31594Y57913D01*
G01X32196Y58744D02*
G01X32041Y58693D01*
G01X31988Y58589D01*
G01X31988Y58484D01*
G01X32041Y58380D01*
G01X32145Y58330D01*
G01X32351Y58276D01*
G01X32509Y58225D01*
G01X32613Y58121D01*
G01X32664Y58017D01*
G01X32664Y57862D01*
G01X32613Y57758D01*
G01X32559Y57705D01*
G01X32405Y57654D01*
G01X32196Y57654D01*
G01X32041Y57705D01*
G01X31988Y57758D01*
G01X31937Y57862D01*
G01X31937Y58017D01*
G01X31988Y58121D01*
G01X32092Y58225D01*
G01X32250Y58276D01*
G01X32455Y58330D01*
G01X32559Y58380D01*
G01X32613Y58484D01*
G01X32613Y58589D01*
G01X32559Y58693D01*
G01X32405Y58744D01*
G01X32196Y58744D01*
G01X21683Y62636D02*
G01X21579Y62583D01*
G01X21475Y62479D01*
G01X21424Y62377D01*
G01X21424Y62169D01*
G01X21475Y62065D01*
G01X21579Y61961D01*
G01X21683Y61907D01*
G01X21838Y61857D01*
G01X22098Y61857D01*
G01X22255Y61907D01*
G01X22359Y61961D01*
G01X22463Y62065D01*
G01X22514Y62169D01*
G01X22514Y62377D01*
G01X22463Y62479D01*
G01X22359Y62583D01*
G01X22255Y62636D01*
G01X21788Y63655D02*
G01X21943Y63601D01*
G01X22047Y63497D01*
G01X22098Y63342D01*
G01X22098Y63292D01*
G01X22047Y63134D01*
G01X21943Y63030D01*
G01X21788Y62979D01*
G01X21734Y62979D01*
G01X21579Y63030D01*
G01X21475Y63134D01*
G01X21424Y63292D01*
G01X21424Y63342D01*
G01X21475Y63497D01*
G01X21579Y63601D01*
G01X21788Y63655D01*
G01X22047Y63655D01*
G01X22306Y63601D01*
G01X22463Y63497D01*
G01X22514Y63342D01*
G01X22514Y63238D01*
G01X22463Y63083D01*
G01X22359Y63030D01*
G01X14859Y70720D02*
G01X14859Y69630D01*
G01X14859Y70720D02*
G01X15326Y70720D01*
G01X15481Y70669D01*
G01X15534Y70618D01*
G01X15585Y70514D01*
G01X15585Y70410D01*
G01X15534Y70306D01*
G01X15481Y70252D01*
G01X15326Y70201D01*
G01X14859Y70201D01*
G01X15222Y70201D02*
G01X15585Y69630D01*
G01X16032Y70720D02*
G01X16603Y70720D01*
G01X16294Y70306D01*
G01X16449Y70306D01*
G01X16553Y70252D01*
G01X16603Y70201D01*
G01X16657Y70047D01*
G01X16657Y69942D01*
G01X16603Y69785D01*
G01X16499Y69681D01*
G01X16344Y69630D01*
G01X16189Y69630D01*
G01X16032Y69681D01*
G01X15981Y69734D01*
G01X15928Y69838D01*
G01X10541Y71063D02*
G01X10541Y69973D01*
G01X10541Y71063D02*
G01X11008Y71063D01*
G01X11163Y71012D01*
G01X11216Y70961D01*
G01X11267Y70857D01*
G01X11267Y70753D01*
G01X11216Y70649D01*
G01X11163Y70595D01*
G01X11008Y70544D01*
G01X10541Y70544D01*
G01X10904Y70544D02*
G01X11267Y69973D01*
G01X12131Y71063D02*
G01X11610Y70336D01*
G01X12390Y70336D01*
G01X12131Y71063D02*
G01X12131Y69973D01*
G01X6096Y70936D02*
G01X6096Y69846D01*
G01X6096Y70936D02*
G01X6563Y70936D01*
G01X6718Y70885D01*
G01X6771Y70834D01*
G01X6822Y70730D01*
G01X6822Y70626D01*
G01X6771Y70522D01*
G01X6718Y70468D01*
G01X6563Y70417D01*
G01X6096Y70417D01*
G01X6459Y70417D02*
G01X6822Y69846D01*
G01X7790Y70936D02*
G01X7269Y70936D01*
G01X7218Y70468D01*
G01X7269Y70522D01*
G01X7426Y70572D01*
G01X7581Y70572D01*
G01X7736Y70522D01*
G01X7841Y70417D01*
G01X7894Y70262D01*
G01X7894Y70158D01*
G01X7841Y70001D01*
G01X7736Y69897D01*
G01X7581Y69846D01*
G01X7426Y69846D01*
G01X7269Y69897D01*
G01X7218Y69950D01*
G01X7165Y70054D01*
G01X29591Y49600D02*
G01X29591Y48510D01*
G01X29591Y49600D02*
G01X30058Y49600D01*
G01X30213Y49549D01*
G01X30266Y49498D01*
G01X30317Y49394D01*
G01X30317Y49290D01*
G01X30266Y49186D01*
G01X30213Y49132D01*
G01X30058Y49081D01*
G01X29591Y49081D01*
G01X29954Y49081D02*
G01X30317Y48510D01*
G01X31285Y49445D02*
G01X31231Y49549D01*
G01X31076Y49600D01*
G01X30972Y49600D01*
G01X30817Y49549D01*
G01X30713Y49394D01*
G01X30660Y49132D01*
G01X30660Y48873D01*
G01X30713Y48665D01*
G01X30817Y48561D01*
G01X30972Y48510D01*
G01X31026Y48510D01*
G01X31181Y48561D01*
G01X31285Y48665D01*
G01X31335Y48822D01*
G01X31335Y48873D01*
G01X31285Y49028D01*
G01X31181Y49132D01*
G01X31026Y49186D01*
G01X30972Y49186D01*
G01X30817Y49132D01*
G01X30713Y49028D01*
G01X30660Y48873D01*
G01X6642Y76318D02*
G01X6642Y75228D01*
G01X6642Y75228D02*
G01X7264Y75228D01*
G01X7607Y76318D02*
G01X7607Y75228D01*
G01X7607Y76318D02*
G01X8282Y76318D01*
G01X7607Y75800D02*
G01X8023Y75800D01*
G01X7607Y75228D02*
G01X8282Y75228D01*
G01X8625Y76318D02*
G01X8625Y75228D01*
G01X8625Y76318D02*
G01X8991Y76318D01*
G01X9146Y76267D01*
G01X9250Y76163D01*
G01X9301Y76059D01*
G01X9354Y75904D01*
G01X9354Y75645D01*
G01X9301Y75487D01*
G01X9250Y75383D01*
G01X9146Y75279D01*
G01X8991Y75228D01*
G01X8625Y75228D01*
G01X9697Y76112D02*
G01X9801Y76163D01*
G01X9956Y76318D01*
G01X9956Y75228D01*
G01X10998Y76318D02*
G01X10998Y75228D01*
G01X10998Y75228D02*
G01X11620Y75228D01*
G01X11963Y76318D02*
G01X11963Y75228D01*
G01X11963Y76318D02*
G01X12639Y76318D01*
G01X11963Y75800D02*
G01X12379Y75800D01*
G01X11963Y75228D02*
G01X12639Y75228D01*
G01X12981Y76318D02*
G01X12981Y75228D01*
G01X12981Y76318D02*
G01X13347Y76318D01*
G01X13502Y76267D01*
G01X13606Y76163D01*
G01X13657Y76059D01*
G01X13710Y75904D01*
G01X13710Y75645D01*
G01X13657Y75487D01*
G01X13606Y75383D01*
G01X13502Y75279D01*
G01X13347Y75228D01*
G01X12981Y75228D01*
G01X14157Y76318D02*
G01X14729Y76318D01*
G01X14417Y75904D01*
G01X14571Y75904D01*
G01X14676Y75850D01*
G01X14729Y75800D01*
G01X14780Y75645D01*
G01X14780Y75541D01*
G01X14729Y75383D01*
G01X14625Y75279D01*
G01X14467Y75228D01*
G01X14312Y75228D01*
G01X14157Y75279D01*
G01X14104Y75332D01*
G01X14053Y75436D01*
G01X15316Y76318D02*
G01X15316Y75228D01*
G01X15316Y75228D02*
G01X15938Y75228D01*
G01X16281Y76318D02*
G01X16281Y75228D01*
G01X16281Y76318D02*
G01X16957Y76318D01*
G01X16281Y75800D02*
G01X16697Y75800D01*
G01X16281Y75228D02*
G01X16957Y75228D01*
G01X17299Y76318D02*
G01X17299Y75228D01*
G01X17299Y76318D02*
G01X17665Y76318D01*
G01X17820Y76267D01*
G01X17924Y76163D01*
G01X17975Y76059D01*
G01X18028Y75904D01*
G01X18028Y75645D01*
G01X17975Y75487D01*
G01X17924Y75383D01*
G01X17820Y75279D01*
G01X17665Y75228D01*
G01X17299Y75228D01*
G01X18889Y76318D02*
G01X18371Y75591D01*
G01X19151Y75591D01*
G01X18889Y76318D02*
G01X18889Y75228D01*
G01X25018Y61901D02*
G01X26108Y61901D01*
G01X25018Y61901D02*
G01X25018Y62369D01*
G01X25069Y62524D01*
G01X25120Y62577D01*
G01X25224Y62628D01*
G01X25328Y62628D01*
G01X25432Y62577D01*
G01X25486Y62524D01*
G01X25537Y62369D01*
G01X25537Y61901D01*
G01X25537Y62264D02*
G01X26108Y62628D01*
G01X25018Y63700D02*
G01X26108Y63179D01*
G01X25018Y62971D02*
G01X25018Y63700D01*
G01X23179Y61901D02*
G01X24268Y61901D01*
G01X23179Y61901D02*
G01X23179Y62369D01*
G01X23229Y62524D01*
G01X23280Y62577D01*
G01X23384Y62628D01*
G01X23488Y62628D01*
G01X23593Y62577D01*
G01X23646Y62524D01*
G01X23697Y62369D01*
G01X23697Y61901D01*
G01X23697Y62264D02*
G01X24268Y62628D01*
G01X23179Y63232D02*
G01X23229Y63075D01*
G01X23333Y63024D01*
G01X23438Y63024D01*
G01X23542Y63075D01*
G01X23593Y63179D01*
G01X23646Y63387D01*
G01X23697Y63542D01*
G01X23801Y63646D01*
G01X23905Y63700D01*
G01X24060Y63700D01*
G01X24164Y63646D01*
G01X24217Y63595D01*
G01X24268Y63438D01*
G01X24268Y63232D01*
G01X24217Y63075D01*
G01X24164Y63024D01*
G01X24060Y62971D01*
G01X23905Y62971D01*
G01X23801Y63024D01*
G01X23697Y63128D01*
G01X23646Y63283D01*
G01X23593Y63491D01*
G01X23542Y63595D01*
G01X23438Y63646D01*
G01X23333Y63646D01*
G01X23229Y63595D01*
G01X23179Y63438D01*
G01X23179Y63232D01*
G01X34340Y64590D02*
G01X34236Y64536D01*
G01X34132Y64432D01*
G01X34081Y64330D01*
G01X34081Y64122D01*
G01X34132Y64018D01*
G01X34236Y63914D01*
G01X34340Y63861D01*
G01X34495Y63810D01*
G01X34754Y63810D01*
G01X34912Y63861D01*
G01X35016Y63914D01*
G01X35120Y64018D01*
G01X35171Y64122D01*
G01X35171Y64330D01*
G01X35120Y64432D01*
G01X35016Y64536D01*
G01X34912Y64590D01*
G01X34287Y64932D02*
G01X34236Y65037D01*
G01X34081Y65192D01*
G01X35171Y65192D01*
G01X34081Y65847D02*
G01X34132Y65689D01*
G01X34287Y65588D01*
G01X34549Y65534D01*
G01X34704Y65534D01*
G01X34963Y65588D01*
G01X35120Y65689D01*
G01X35171Y65847D01*
G01X35171Y65951D01*
G01X35120Y66106D01*
G01X34963Y66210D01*
G01X34704Y66261D01*
G01X34549Y66261D01*
G01X34287Y66210D01*
G01X34132Y66106D01*
G01X34081Y65951D01*
G01X34081Y65847D01*
G01X59817Y15862D02*
G01X60594Y15862D01*
G01X60751Y15913D01*
G01X60855Y16017D01*
G01X60906Y16175D01*
G01X60906Y16279D01*
G01X60855Y16434D01*
G01X60751Y16538D01*
G01X60594Y16589D01*
G01X59817Y16589D01*
G01X60076Y16985D02*
G01X60022Y16985D01*
G01X59918Y17036D01*
G01X59867Y17089D01*
G01X59817Y17193D01*
G01X59817Y17399D01*
G01X59867Y17503D01*
G01X59918Y17556D01*
G01X60022Y17607D01*
G01X60126Y17607D01*
G01X60231Y17556D01*
G01X60388Y17452D01*
G01X60906Y16932D01*
G01X60906Y17661D01*
G01X63499Y11311D02*
G01X63499Y10221D01*
G01X63499Y11311D02*
G01X63967Y11311D01*
G01X64122Y11260D01*
G01X64175Y11209D01*
G01X64226Y11105D01*
G01X64226Y11001D01*
G01X64175Y10897D01*
G01X64122Y10843D01*
G01X63967Y10792D01*
G01X63499Y10792D01*
G01X63863Y10792D02*
G01X64226Y10221D01*
G01X65244Y10947D02*
G01X65194Y10792D01*
G01X65089Y10688D01*
G01X64935Y10637D01*
G01X64881Y10637D01*
G01X64726Y10688D01*
G01X64622Y10792D01*
G01X64569Y10947D01*
G01X64569Y11001D01*
G01X64622Y11156D01*
G01X64726Y11260D01*
G01X64881Y11311D01*
G01X64935Y11311D01*
G01X65089Y11260D01*
G01X65194Y11156D01*
G01X65244Y10947D01*
G01X65244Y10688D01*
G01X65194Y10429D01*
G01X65089Y10272D01*
G01X64935Y10221D01*
G01X64830Y10221D01*
G01X64673Y10272D01*
G01X64622Y10376D01*
G01X61468Y7897D02*
G01X62557Y7897D01*
G01X61468Y7897D02*
G01X61468Y8365D01*
G01X61518Y8520D01*
G01X61569Y8573D01*
G01X61673Y8624D01*
G01X61777Y8624D01*
G01X61882Y8573D01*
G01X61935Y8520D01*
G01X61986Y8365D01*
G01X61986Y7897D01*
G01X61986Y8261D02*
G01X62557Y8624D01*
G01X61673Y8967D02*
G01X61622Y9071D01*
G01X61468Y9228D01*
G01X62557Y9228D01*
G01X61468Y9881D02*
G01X61518Y9726D01*
G01X61673Y9622D01*
G01X61935Y9571D01*
G01X62090Y9571D01*
G01X62349Y9622D01*
G01X62506Y9726D01*
G01X62557Y9881D01*
G01X62557Y9985D01*
G01X62506Y10143D01*
G01X62349Y10247D01*
G01X62090Y10298D01*
G01X61935Y10298D01*
G01X61673Y10247D01*
G01X61518Y10143D01*
G01X61468Y9985D01*
G01X61468Y9881D01*
G01X70611Y18550D02*
G01X70611Y17460D01*
G01X70611Y18550D02*
G01X71079Y18550D01*
G01X71234Y18499D01*
G01X71287Y18448D01*
G01X71338Y18344D01*
G01X71338Y18240D01*
G01X71287Y18136D01*
G01X71234Y18082D01*
G01X71079Y18031D01*
G01X70611Y18031D01*
G01X70975Y18031D02*
G01X71338Y17460D01*
G01X71681Y18344D02*
G01X71785Y18395D01*
G01X71942Y18550D01*
G01X71942Y17460D01*
G01X72285Y18344D02*
G01X72389Y18395D01*
G01X72544Y18550D01*
G01X72544Y17460D01*
G01X70744Y12393D02*
G01X70639Y12339D01*
G01X70535Y12235D01*
G01X70485Y12133D01*
G01X70485Y11925D01*
G01X70535Y11821D01*
G01X70639Y11717D01*
G01X70744Y11664D01*
G01X70899Y11613D01*
G01X71158Y11613D01*
G01X71315Y11664D01*
G01X71419Y11717D01*
G01X71523Y11821D01*
G01X71574Y11925D01*
G01X71574Y12133D01*
G01X71523Y12235D01*
G01X71419Y12339D01*
G01X71315Y12393D01*
G01X70690Y12735D02*
G01X70639Y12840D01*
G01X70485Y12995D01*
G01X71574Y12995D01*
G01X70690Y13337D02*
G01X70639Y13442D01*
G01X70485Y13597D01*
G01X71574Y13597D01*
G01X5439Y9315D02*
G01X5439Y8535D01*
G01X5490Y8380D01*
G01X5594Y8276D01*
G01X5752Y8225D01*
G01X5856Y8225D01*
G01X6011Y8276D01*
G01X6115Y8380D01*
G01X6166Y8535D01*
G01X6166Y9315D01*
G01X7029Y9315D02*
G01X6509Y8589D01*
G01X7288Y8589D01*
G01X7029Y9315D02*
G01X7029Y8225D01*
G01X14825Y14435D02*
G01X14721Y14382D01*
G01X14617Y14278D01*
G01X14566Y14176D01*
G01X14566Y13968D01*
G01X14617Y13864D01*
G01X14721Y13760D01*
G01X14825Y13706D01*
G01X14980Y13655D01*
G01X15240Y13655D01*
G01X15397Y13706D01*
G01X15501Y13760D01*
G01X15605Y13864D01*
G01X15656Y13968D01*
G01X15656Y14176D01*
G01X15605Y14278D01*
G01X15501Y14382D01*
G01X15397Y14435D01*
G01X14772Y14778D02*
G01X14721Y14882D01*
G01X14566Y15037D01*
G01X15656Y15037D01*
G01X14566Y15901D02*
G01X15293Y15380D01*
G01X15293Y16160D01*
G01X14566Y15901D02*
G01X15656Y15901D01*
G01X8272Y20765D02*
G01X8219Y20870D01*
G01X8115Y20974D01*
G01X8013Y21025D01*
G01X7805Y21025D01*
G01X7701Y20974D01*
G01X7597Y20870D01*
G01X7543Y20765D01*
G01X7493Y20610D01*
G01X7493Y20351D01*
G01X7543Y20194D01*
G01X7597Y20090D01*
G01X7701Y19986D01*
G01X7805Y19935D01*
G01X8013Y19935D01*
G01X8115Y19986D01*
G01X8219Y20090D01*
G01X8272Y20194D01*
G01X8615Y20819D02*
G01X8719Y20870D01*
G01X8874Y21025D01*
G01X8874Y19935D01*
G01X9321Y21025D02*
G01X9893Y21025D01*
G01X9580Y20610D01*
G01X9738Y20610D01*
G01X9842Y20557D01*
G01X9893Y20506D01*
G01X9944Y20351D01*
G01X9944Y20247D01*
G01X9893Y20090D01*
G01X9789Y19986D01*
G01X9634Y19935D01*
G01X9476Y19935D01*
G01X9321Y19986D01*
G01X9271Y20039D01*
G01X9217Y20143D01*
G01X35560Y30021D02*
G01X36339Y30021D01*
G01X36497Y30072D01*
G01X36598Y30176D01*
G01X36652Y30334D01*
G01X36652Y30438D01*
G01X36598Y30593D01*
G01X36497Y30697D01*
G01X36339Y30748D01*
G01X35560Y30748D01*
G01X35560Y31715D02*
G01X35560Y31195D01*
G01X36027Y31144D01*
G01X35976Y31195D01*
G01X35925Y31352D01*
G01X35925Y31507D01*
G01X35976Y31662D01*
G01X36080Y31766D01*
G01X36235Y31819D01*
G01X36339Y31819D01*
G01X36497Y31766D01*
G01X36598Y31662D01*
G01X36652Y31507D01*
G01X36652Y31352D01*
G01X36598Y31195D01*
G01X36548Y31144D01*
G01X36443Y31090D01*
G01X36068Y10085D02*
G01X36068Y8995D01*
G01X36068Y10085D02*
G01X36535Y10085D01*
G01X36690Y10034D01*
G01X36743Y9981D01*
G01X36794Y9876D01*
G01X36794Y9772D01*
G01X36743Y9671D01*
G01X36690Y9617D01*
G01X36535Y9567D01*
G01X36068Y9567D02*
G01X36535Y9567D01*
G01X36690Y9513D01*
G01X36743Y9462D01*
G01X36794Y9358D01*
G01X36794Y9201D01*
G01X36743Y9099D01*
G01X36690Y9046D01*
G01X36535Y8995D01*
G01X36068Y8995D01*
G01X37503Y10085D02*
G01X37503Y8995D01*
G01X37137Y10085D02*
G01X37866Y10085D01*
G01X38209Y10085D02*
G01X38209Y8995D01*
G01X38209Y10085D02*
G01X38676Y10085D01*
G01X38831Y10034D01*
G01X38884Y9981D01*
G01X38935Y9876D01*
G01X38935Y9772D01*
G01X38884Y9671D01*
G01X38831Y9617D01*
G01X38676Y9567D01*
G01X38209Y9567D02*
G01X38676Y9567D01*
G01X38831Y9513D01*
G01X38884Y9462D01*
G01X38935Y9358D01*
G01X38935Y9201D01*
G01X38884Y9099D01*
G01X38831Y9046D01*
G01X38676Y8995D01*
G01X38209Y8995D01*
G01X39278Y9876D02*
G01X39382Y9930D01*
G01X39537Y10085D01*
G01X39537Y8995D01*
G01X12792Y14517D02*
G01X12690Y14464D01*
G01X12586Y14360D01*
G01X12533Y14258D01*
G01X12533Y14050D01*
G01X12586Y13946D01*
G01X12690Y13841D01*
G01X12792Y13788D01*
G01X12949Y13737D01*
G01X13208Y13737D01*
G01X13363Y13788D01*
G01X13467Y13841D01*
G01X13572Y13946D01*
G01X13625Y14050D01*
G01X13625Y14258D01*
G01X13572Y14360D01*
G01X13467Y14464D01*
G01X13363Y14517D01*
G01X12533Y15482D02*
G01X12533Y14964D01*
G01X13000Y14911D01*
G01X12949Y14964D01*
G01X12896Y15119D01*
G01X12896Y15274D01*
G01X12949Y15431D01*
G01X13053Y15536D01*
G01X13208Y15586D01*
G01X13312Y15586D01*
G01X13467Y15536D01*
G01X13572Y15431D01*
G01X13625Y15274D01*
G01X13625Y15119D01*
G01X13572Y14964D01*
G01X13521Y14911D01*
G01X13417Y14860D01*
G01X53847Y13786D02*
G01X53847Y13006D01*
G01X53898Y12851D01*
G01X54002Y12747D01*
G01X54160Y12696D01*
G01X54264Y12696D01*
G01X54419Y12747D01*
G01X54523Y12851D01*
G01X54574Y13006D01*
G01X54574Y13786D01*
G01X55178Y13786D02*
G01X55021Y13735D01*
G01X54970Y13631D01*
G01X54970Y13526D01*
G01X55021Y13422D01*
G01X55125Y13371D01*
G01X55333Y13318D01*
G01X55488Y13267D01*
G01X55592Y13163D01*
G01X55646Y13059D01*
G01X55646Y12904D01*
G01X55592Y12800D01*
G01X55542Y12747D01*
G01X55384Y12696D01*
G01X55178Y12696D01*
G01X55021Y12747D01*
G01X54970Y12800D01*
G01X54917Y12904D01*
G01X54917Y13059D01*
G01X54970Y13163D01*
G01X55074Y13267D01*
G01X55229Y13318D01*
G01X55437Y13371D01*
G01X55542Y13422D01*
G01X55592Y13526D01*
G01X55592Y13631D01*
G01X55542Y13735D01*
G01X55384Y13786D01*
G01X55178Y13786D01*
G01X63373Y31439D02*
G01X63373Y30661D01*
G01X63423Y30504D01*
G01X63527Y30400D01*
G01X63685Y30349D01*
G01X63789Y30349D01*
G01X63944Y30400D01*
G01X64048Y30504D01*
G01X64099Y30661D01*
G01X64099Y31439D01*
G01X65067Y31284D02*
G01X65013Y31388D01*
G01X64858Y31439D01*
G01X64754Y31439D01*
G01X64599Y31388D01*
G01X64495Y31233D01*
G01X64442Y30971D01*
G01X64442Y30712D01*
G01X64495Y30504D01*
G01X64599Y30400D01*
G01X64754Y30349D01*
G01X64808Y30349D01*
G01X64963Y30400D01*
G01X65067Y30504D01*
G01X65117Y30661D01*
G01X65117Y30712D01*
G01X65067Y30867D01*
G01X64963Y30971D01*
G01X64808Y31025D01*
G01X64754Y31025D01*
G01X64599Y30971D01*
G01X64495Y30867D01*
G01X64442Y30712D01*
G01X49784Y34360D02*
G01X49784Y33582D01*
G01X49834Y33425D01*
G01X49938Y33321D01*
G01X50096Y33270D01*
G01X50200Y33270D01*
G01X50355Y33321D01*
G01X50459Y33425D01*
G01X50510Y33582D01*
G01X50510Y34360D01*
G01X51582Y34360D02*
G01X51061Y33270D01*
G01X50853Y34360D02*
G01X51582Y34360D01*
G01X20697Y68488D02*
G01X20697Y67708D01*
G01X20748Y67551D01*
G01X20852Y67449D01*
G01X21010Y67396D01*
G01X21114Y67396D01*
G01X21269Y67449D01*
G01X21373Y67551D01*
G01X21424Y67708D01*
G01X21424Y68488D01*
G01X22496Y68330D02*
G01X22392Y68435D01*
G01X22234Y68488D01*
G01X22028Y68488D01*
G01X21871Y68435D01*
G01X21767Y68330D01*
G01X21767Y68226D01*
G01X21820Y68122D01*
G01X21871Y68071D01*
G01X21975Y68021D01*
G01X22287Y67916D01*
G01X22392Y67863D01*
G01X22442Y67812D01*
G01X22496Y67708D01*
G01X22496Y67551D01*
G01X22392Y67449D01*
G01X22234Y67396D01*
G01X22028Y67396D01*
G01X21871Y67449D01*
G01X21767Y67551D01*
G01X22839Y68488D02*
G01X22839Y67396D01*
G01X22839Y68488D02*
G01X23306Y68488D01*
G01X23461Y68435D01*
G01X23514Y68384D01*
G01X23565Y68280D01*
G01X23565Y68176D01*
G01X23514Y68071D01*
G01X23461Y68021D01*
G01X23306Y67967D01*
G01X22839Y67967D02*
G01X23306Y67967D01*
G01X23461Y67916D01*
G01X23514Y67863D01*
G01X23565Y67759D01*
G01X23565Y67604D01*
G01X23514Y67500D01*
G01X23461Y67449D01*
G01X23306Y67396D01*
G01X22839Y67396D01*
G01X23961Y68226D02*
G01X23961Y68280D01*
G01X24012Y68384D01*
G01X24063Y68435D01*
G01X24167Y68488D01*
G01X24375Y68488D01*
G01X24479Y68435D01*
G01X24533Y68384D01*
G01X24584Y68280D01*
G01X24584Y68176D01*
G01X24533Y68071D01*
G01X24429Y67916D01*
G01X23908Y67396D01*
G01X24634Y67396D01*
G54D47*
G75*
G01X24988Y58779D02*
G03X24985Y58779I-1J150D01*
G01*
G75*
G01X15621Y52648D02*
G03X15621Y52651I150J1D01*
G01*
G75*
G01X52730Y16123D02*
G03X52730Y16120I-150J-1D01*
G01*
G54D10*
G75*
G01X55499Y15716D02*
G02X53848Y15742I-825J13D01*
G01*
G75*
G01X64944Y17843D02*
G03X64944Y17843I-127J0D01*
G01*
M00*
M02*
